<?xml version="1.0" encoding="UTF-8"?>
<svg id="Capa_1" data-name="Capa 1" xmlns="http://www.w3.org/2000/svg" xmlns:xlink="http://www.w3.org/1999/xlink" viewBox="0 0 186.07 189.42">
  <defs>
    <style>
      .cls-1 {
        fill: url(#Degradado_sin_nombre_5);
      }

      .cls-2 {
        fill: #fff;
      }

      .cls-3 {
        fill: #8da1ae;
        fill-rule: evenodd;
      }

      .cls-4 {
        fill: #243751;
      }

      .cls-5 {
        clip-path: url(#clippath);
      }
    </style>
    <linearGradient id="Degradado_sin_nombre_5" data-name="Degradado sin nombre 5" x1="110.78" y1="124.45" x2="-10.43" y2="-65.51" gradientUnits="userSpaceOnUse">
      <stop offset="0" stop-color="#243751"/>
      <stop offset=".45" stop-color="#1c2c46"/>
      <stop offset="1" stop-color="#101933"/>
    </linearGradient>
    <clipPath id="clippath">
      <circle class="cls-1" cx="93.04" cy="96.65" r="82.2"/>
    </clipPath>
  </defs>
  <circle class="cls-1" cx="93.04" cy="96.65" r="82.2"/>
  <g class="cls-5">
    <path class="cls-2" d="M59.22,65.65c3.49-6.41,8.37-11.33,14.63-14.78,6.26-3.45,13.43-5.17,21.51-5.17,10.35,0,18.99,2.71,25.94,8.13,6.95,5.42,11.51,13.06,13.68,22.91h-26.91c-2.27-6.3-6.66-9.46-13.16-9.46-4.63,0-8.33,1.8-11.09,5.4-2.76,3.6-4.14,8.75-4.14,15.45s1.38,11.85,4.14,15.45c2.76,3.6,6.45,5.39,11.09,5.39,6.5,0,10.89-3.15,13.16-9.46h26.91c-2.17,9.66-6.75,17.25-13.75,22.77-7,5.52-15.62,8.28-25.87,8.28-8.08,0-15.25-1.73-21.51-5.18-6.26-3.45-11.14-8.38-14.63-14.78-3.5-6.41-5.25-13.9-5.25-22.47s1.75-16.06,5.25-22.47Z"/>
    <polygon class="cls-4" points="63.56 144.35 93.86 109.9 122.53 138.04 120.01 163.47 63.56 144.35"/>
    <path class="cls-3" d="M199.91,175.02c-.93.26-1.82.57-2.65.95-.65.3-1.28.61-1.85.96-.26-.28-.48-.52-.67-.74-.93-1.09-2.06-2.82-3.32-3.5-.61-.33-.96-.59-1.5-1.02-.61-.44-1.15-.78-1.78-1.19-.57-.35-1.22-.85-1.82-1.11-.17-.07-.3-.19-.26-.04.22.72.44,1.3.63,2.04.2.82.57,1.33.8,2.08.22.72.61.89.87,1.54.15.37.19.65.37,1.04-.09-.04-.15-.07-.22-.11-.39-.24-.78-.82-1.22-.65-.35.15-4.04-3.87-4.61-4.97-.33-.61-.63-1.15-.98-1.74-.5-.87-1.17-1.39-1.63-2.28-.3-.59-.37-.72-.8-1.26-.56-.69-.82-1.33-1.32-2.02-.3-.41-.48-.8-.72-1.22-.39-.7-.85-1.13-1.24-1.83-.5-.85-1.09-1.65-1.71-2.43-.33-.44-.67.83-1.07,2.17-.06.33.04.7.15,1.04.26.82.22.96.69,1.69.31.5.41.87.65,1.35.17.32.22.52.33.85.33,1.04.65.85,1.09,1.52.44.65.28.93.93,1.59.85.87.65,1.04,1.11,2,.3.67.87,1.15,1.09,1.7.17.37-.06.06-.13-.04-.72-.87-1.13-1.24-1.65-2.28-.39-.76-.85-.93-1.24-1.61-.46-.85-.43-.76-1.15-1.37-.33-.31-.56-.65-.8-1.06-.2-.39-.63-1.41-.91-1.65-.57-.5-.61.48-.89.07-.3-.43-.06,1.2-.24,1.24-.13.02-.11.13-.19.11-.13,0-1.04-2.08-1.15-2.35-.63-1.43-1.3-2.8-2.02-4.19-.33-.63-.87-1.82-1.32-2.32-.48-.5-.82-1.04-1.26-1.5-.43-.43-.85-.85-1.26-1.3-.13-.13-1.39-1.43-1.43-.65-.02.44.67,1.71.87,2.17.3.63.61,1.26.91,1.87,1.67,3.61.41,1.82.17,1.91-.15.06-.28-.06-.24.2.15,1.17-1.33-.5-1.54-.72-.41-.41-1.02-1.06-.89,0,.28,1.87,1.56,4.39,2.41,6.08.37.69.28,1.17.91,1.74.41.39.59.56.91,1.06.26.43.59.96.83,1.41.3.56.26.43-.22.17-.37-.2-.52-.35-.82-.65-.74-.7-1.48-.65-2.28-1.32-.24-.22-.59-.52-.8-.78-.35-.48-.63-.76-1.02-1.19-1.04-1.15-.85-1.98-1.46-3.24-.15-.32-.28-.7-.46-.98-.54-.85-.46-1.04-.72-1.93-.17-.56-.46-1.09-.56-1.59-.15-.74-.31-1.13-.7-1.78-.57-.96-.61-1.28-.85-2.35-.17-.72-.44-1.43-.67-2.15-.26-.82-.57-1.58-.83-2.37-.56.17-.61,1.52-.63,2.02-.02.76-.09,1.3-.19,2.06-.09.85-.02,1.63-.11,2.46-.07.76-.04,1.45-.04,2.22,0,.56-.04.91-.07,1.46-.07.89.26,1.56.15,2.46-.07.65-.13,1-.07,1.67.02.15.09.35-.04.17-.22-.33-.35-.91-.37-1.32-.06-.74-.13-1.07-.39-1.78-.37-.95-.37-2.09-.74-3.04-.26-.69-.26-1.48-.24-2.21,0-.5-.06-.74-.13-1.22-.09-.57-.31-.95-.41-1.48-.13-.85.26-1.04-.15-2.15-.24-.63-.31-1.02-.39-1.67-.09-.93-.04-1.37-.43-2.24-.37-.78-.22-.72-.33-1.5-.04-.15-2.09-6.63-2.87-7.84-.15-.22-.57-.76-.85-.82-.54-.07-.8,1.85-.87,2.21-.04.2-.13.87-.26.96-.11-.17-.17-.96-.19-1.22-.2-2.09-.48-5.69-1.89-7.32-.46-.54-.63-.22-1.06-1.06-.33-.63-.31-.52-.93-.63-.57-.09-1.04-.5-1.54-.7-.61-.19-1.56.02-1.91.57-.19.35-3.34,2.95-3.65,3.08-.44.19-1.06.2-1.28.63-.19.37-.09.82-.48,1.43-.3.5-.52.8-.78,1.33-.48,1.06-.96,1.59-1.69,2.48-.48.59-1,1.15-1.61,1.63-.72.57-1.95,1.22-2.89,1.2-.57,0-1.15-.04-1.72-.04-.37,0-.91.06-1.24-.06.06.44.11.3.32.61.31.52.61,1.02.93,1.54.09.15.17.3.24.46.76,1.5,1.82,2.85,2.91,4.11.41.48.85.85,1.24,1.3,1.09,1.26-.54.89-.06,2.11.04.09.06.15.09.24.63,1.15,2.04,2.35,3.15,3.06l.19.11c.37.22,1.61.82,1.74,1.17.2.54-1.28.28-.89,1.13.33.76,1.41,1.37,2.13,1.72.24.11.48.24.72.37.96.57.5.57.61,1,.19.67,3.08,2.45,3.78,2.82.52.26.87.39,1.33.72.11.09.06.35.37.09.28-.22.15.19.43.04.48-.26.63.09,1.26.07.48,0,.67.02,1.13.09.65.07,1.28-.13,1.96-.09.76.04.83.07,1.5.33.7.28,1.43.02,1.83.7.33.56.37.69.7.96h-6.02c-.13-.07-.28-.13-.41-.19-.63-.19-1.63-.61-2.22-.72-.54-.09-.44-.04-.91-.3-.43-.26-1.22-.28-1.76-.43-1.32-.33-1.33-1-3.06-1.19-.39-.06-.69-.13-1.06-.24-.95-.28-.93.11-1.48.72-.7.78-1.61-.17-2.28.15-.41.17-.52,1.09-.61,1.46-.52,2.04-1.11.26-2.52.98-.8.48-1.65,1.65-2.37,2.33-1.15,1.09-1.11.37-1.37.31-.33-.07-1.56,1.04-1.83,1.28-.52.46-1.52,1.33-2.09,1.67-.37.22-.28.09-.43.06h-.04c-.11,0-.04.13-.3-.11.06-.09.13-.2.2-.3,0-.02.02-.02.02-.04.52-.72,1.11-1.35,1.7-2,.8-.83,1.35-1.06,2.04-2.08.15-.22.3-.37.43-.56.48-.65-.76-1.26-.35-1.65.22-.2,1.58-.26,1.98-.35.96-.19.91-.59,1.48-1.13.57-.46.67-.41,1.15-1.06.74-1.02.65-1.22.95-2.37.32-1.24.15-2.04-.44-3.19-.37-.72-.46-.87-1-1.5-.33-.41-.46-.76-.76-1.13-.35-.43-.59-.59-.91-1.09-.28-.43-.57-.76-.85-1.17-.5-.74-.63-.93-1.33-1.54-.52-.46-.96-1.06-1.61-1.32-.59-.22-.96-.28-1.37.26l-.04.07c-.35.56-.52,1.52-.61,2.17-.24,1.52,0,2.65.02,4.11v.07c-.04,1.11-.87,2.78-1.48,3.69-.48.74-1.74,1.96-2.52,2.33-.89.41-.17-.74,0-.96.82-1.2,2.32-3.19,2.43-4.63.04-.39-.09-1.58-.24-1.87-.07-.09-.09-.13-.19-.2-.65-.46-1.07.17-1.41.63-.44.63-.82,1.15-1.3,1.76-.59.72-1.11,1.43-1.67,2.19-1.41,1.91-.13-1.2.04-1.61.5-1.22.11,0,.54-.46.59-.63,1.11-1.54,1.46-2.32.24-.56.41-1.15.65-1.69.67-1.48,1.45-.98,1.19-3.08-.37-2.96-1.39-11.34-4.24-12.79-.3.19-.7-.19-.91-.35-.19-.17-.35-.32-.52-.48-.5-.48-1.02-1.04-1.5-1.56-.35-.37-.8-.93-1.15-1.24-.91-.82-1.17,3.87-1.07,4.17.44,1.56,1.15,3.08,1.46,4.65.17.85.28,1.45.61,2.28.11.26.82,1.85.67,2.02-.11.09-.61-.17-.7-.24-.7-.44-.91-1.72-1-.39-.04-.46-.11-.78-.26-1.22-.5-1.43-1.11-3.09-1.87-4.39-.33-.56-.48-1.11-.8-1.63-.44-.76-1.02-1.54-1.5-2.26-.43-.69-.89-1.8-1.46-.5-.31.72-.48,1.45-.87,2.15-.48.91-.39.28-.35-.26.15-1.57-.02-2.52-.24-4.06-.19-1.26-.41-3.04-1.13-4.1-1-1.46-2.46-3.43-3.8-4.6-.72-.61-1.04.07-1.69.28-.56.09-.85-.35-1.15-.74-.17-.19-.37-.43-.59-.54-1.28-.57-1.2,3.32-1.2,3.98-.02.69-.02,1.78-.11,2.43-.15,1-.24,1.82-.24,2.85,0,1.32.04,2.61.02,3.91,0,.35.04,1.13-.3.35-.31-.76-.24-.15-.22.24.02.54-.54-.89-.82-.93-.22,0-.39.83-.41,1-.07.57-.15,1-.3,1.58-.17.63-.15,1.13-.28,1.72-.06.33-.11.67-.17,1-.32,1.85-1,3.52-1.35,5.36-.26,1.28-.02,2.46.04,3.74.02.26.06,1.5-.52.98-.33-.3-.85-1.46-1.2-1.96-.09-.11-.13-.09-.11-.19.17-.63.24-.44.19-1.19-.09-1.35.06-2.95.39-4.26.37-1.52,1.11-4.43,1.02-5.91-.2-2.54-1.67-3.93-3.15-1.43l-.06.09c-.59,1.02-1.07,2.08-1.65,3.09-.48.85-1.06,1.59-1.54,2.41-.28.48-.48.89-.8,1.37-.39.61-.67.85-1.09,1.37-.06-.2-.06-.5-.17-.67-.28-.41-1.28-.15-1.69-.06-.26.06-3.21.91-3.04.39.07-.2,1.09-.7,1.35-.87,1.3-.8,2.28-1.5,2.96-2.89.09-.22.32-.83.39-.95.46-.57.83-1.2,1.24-1.83.46-.74.7-1.04.91-1.89.19-.76.78-1.56,1.2-2.22.39-.61.89-1.15,1.24-1.72.54-.85,1.09-1.76,1.71-2.56.65-.83,1.3-1.74,1.85-2.65.28-.48.52-.83.83-1.3.39-.56.74-1.13,1.07-1.72.54-.95,1.3-2.39,1.67-3.39.15-.41.28-.7.06-1.09-.76-1.26-.39-3.22-.22-3.59.22-.48,1.06-2.32.52-2.63-.06-.02-.07-.02-.15.02-.26.09-.98.91-1.24,1.17l-.06.06c-.61.65-.61.95-1,1.65-.5.87-.96,1.59-1.35,2.52-.41.98-.93,1.91-1.32,2.91-.28.74-.78,1.28-.85,2.11-.09,1.15-2.71,3-2.71,2.89-.19,0-.78.24-.98.33-.76.3-1.06.5-1.74.93-.33.2-.56.39-.85.61-.61.41-.74.57-1.24,1.07-.61.61-1.17,1.39-1.82,1.91-.63.5-.89,1.09-1.39,1.7-.41.46-.82,1.13-1.19,1.54-.48.48-.63.67-.98,1.22-.33.48-.91,1-1.35,1.39-.48.43-1.04.61-1.41,1.11-.44.63-.46.76-1.15,1.24.07.04.15.07.22.09,1.15.56.82.93,1.52,1.63.67.65,1.35,1.28,2.06,1.87.7.57.72.52.89,1.35.35,1.59,2.33.95,3.28,1.59.98.69,1.15.56,2.28.82.8.19.74.35,1.37.65,1.02.44,1.78.91,2.71,1.5.2.15.41.28.61.41.33.26.46.39.74.7.69.78,1.09.5,1.59.83.78.52.65,1.13,1.67,1.65.56.28.82.35,1.35.74,1.35.93,2.59,1.78,4.04,2.59,1.09.61,2.21,1.13,3.37,1.58,4.02,1.54,6.97,1.54,10.77,4.06.11.07.24.17.35.24-2.3.22-4.37,1.09-6.04,2.54-.37-.35-.78-.74-1.11-1.02-.7-.56-1.45-1.22-2.39-1.35-1.15-.15-2.11-.28-3.17-.83-.24-.13-.74-.52-1.02-.41-.43.19-.07.95.04,1.2.24.52.35.8.54,1.33.24.69.63,1.11.93,1.74.28.59.3.7.7,1.26.52.69.76,1.45,1.28,2.11.35.43.61.91.89,1.35-.07.32-.15.65-.17,1l-.3-.3c-.35-.37-.63-.69-1.02-1.06-.5-.46-.7-.7-1.09-1.26-.43-.61-.96-1.13-1.33-1.76-.3-.52-.57-.96-.89-1.46-.52-.83-.41-1.26-1.13-2.04-.48-.54-.69-.7-1.07-1.37-.37-.63-.63-.96-1.09-1.54-.35-.44-.54-.95-.87-1.35-.35-.41-.67-.8-1.02-1.2-.3-.39-.7-.8-.96-1.19-.35-.52-.46-.67-.93-1.11-.35-.37-.56-.59-.89-.98-.46-.5-1.69-1.46-2.33-1.69-.98-.33-.33,2.43-.26,2.76.2,1.07.54,2,.78,3.02.28,1.13.07.87-.5.11-.28-.35-.5-.61-.8-.96-.22-.26-.39-.52-.31-.02.04.28.02.22-.13.3-.19.09.04.91.04,1.15.04.59-.02.93.11,1.56.24,1.07.48,2.06.63,3.15.09.61.32,1.78.52,2.33.26.76.46,1.28.59,2.08.09.5.19.83.31,1.32.07.33.09.26-.13.06-.65-.63-.96-1.3-1.45-2.06-.48-.74-.72-1.26-1.07-2.08-.39-.93-.63-1.87-1-2.78-.43-1.06-.61-1.91-.93-2.96-.39-1.37-.76-2.76-1.17-4.11-.26-.83-.61-1.95-.98-2.72-.39-.87-.3-1.28-1.13-1.93-.17-.13-.33-.26-.5-.41-.26-.2-.54-.5-.78-.69-.93-.72-3.26-2.3-4.1-2.87-.24-.17-.78-.56-1.02-.65-.2-.09-4.43-3.85-6.21-4.6-.83-.35-1.59-.87-2.45-1.17-.89-.3-2.06-1.5-2.46-2.3-.44-.85-.41-1.11-1.09-1.93-.76-.89-1.19-.56-1.95-1-.07.33-.06.56.04.89.24.83.3.61.24,1.52,0,.57.39,1.3.69,1.78.46.8.48.83.72,1.74.54,1.93,1,.8,1.54,1.72,1.69,2.89,1.85,5.58,1.02,8.75.15-1.45.02-2.8-.37-4.19-.19-.67-.72-2.17-1.07-2.72-.07-.13-.45-.46-.57-.5-.35-.07-.83,1.19-.95,1.48-.22.56-.35,1.04-.54,1.57-.17.48-.37,1.06-.39.13,0-1.02.09-2.11.13-3.15.04-.96.04-3.06-.45-3.87-.44-.76-1.59-2.08-1.43-3,.06-.28.07-.5.02-.78-.3-1.33-2.11-1.96-2.48-4.69v-.06c-.07-.44-.37-.41-.65-.15-.93.85-1.3,2.93-1.35,4.15-.02.98.15,1.93.13,2.91,0,1.2.24,2,.54,3.13.41,1.59.96,3.11,1.45,4.69.07.2.39,1.09-.09.46-.5-.65-.93-1.35-1.43-2.02-.35-.44-1.33-1.91-2.02-1.58-.19.11-.63.74-.78.95-.59.76-.59,1.78-.41,2.69.28,1.39.61,2.76.83,4.19.07.52.31,1.83-.33.48-.28-.57-.5-1.07-.83-1.65-.33-.57-1.17-1.63-1.65-.54-.31.72-1.19,3.24-1.22,3.97-.02.67-.67-3.58-.31-4.82.22-.82.37-1.57.56-2.41.31-1.32.52-2.45.67-3.78.13-1.24.06-2.56-1.5-1.39-.61.46-1.02.78-1.09,1.59-.06.69.02,1.35-.2,2.04-.19.54-.8.87-1.06,1.65-.22.61-.46,1.35-.33,1.98.15.76.3.96.2,1.82-.17,1.52-.04,2.35-1.13,3.65-.26.33-.3.28-.54.48-.07.07-.15.17-.2.26-.76.98-.98,1.39-1.32,2.58-.2.67-.44,1.45-.59,2.11-.28,1.19-.57,2.45-.76,3.65-.06.35-.22,2-.37,2.21-.22-.06-.35-2.58-.72-3.08-.52-.72-2.02-3.82-1.89-4.67.17-.93.46-1.95.5-2.85,0-.72-.5-.96-1.15-1.07-.3-.06-.63.2-.82.43-.33.39-.5.85-.87,1.3-.57.7-.72,1.32-1.11,2.09-.28.52-.41.93-.63,1.46-.82,2.02-1.59,4.56-2.8,6.36-.7,1.07-1,.96-1.15-.2-.09-.8-.09-1.11-.74-1.63-.33-.28-.33-.44-.56-.78-.11-.19-.26-.26-.41-.26-.33-.43-.76-.82-1.24-1.11-.85-.54-1.83-.82-2.8-.82-.78,0-1.56.19-2.28.52l-1.15.56c-.78-.69-1.98-1.15-3.45-1.39-.19-.04-.3-.11-.44-.26-.91-.91-1.48-3.84-2.3-5.13-.2-.32-.17-.87-.46-.61-.5.44-.87,1.35-1.04,1.98-.46,1.83-.78,3.78-1.15,5.65-.11.57-.22,1.15-.35,1.72-.17.87-.37,1.85-.59,2.74l-2.46,1.19c-.19.09-.37.19-.54.32.22-1.45.35-3.39.17-4.43-.06-.24-.3-1.07-.65-1.04-.17.04-.22.07-.39.17-.39.28-.46.3-.89.48-1.82.8-3.21,3.45-4.47,4.95-.11.13-.54.72-.44.19,0-.07.33-1.15.06-.78-.15.2-.17.07-.33.28-.35.44-.09.2-.5.35-.37.15-.63.98-1.17,1.35-.43.32-.57.41-.95.82-.09.11-.19.2-.28.3-1.24,1.3-2.63,2.43-3.89,3.71-.83.89-1.74,1.93-2.45,3.02-2.54-1.2-5.39-1.85-8.54-1.93.59-.56,2.26-.44,2.96-.87.26-.17,2.06-1.83,2.3-2.02.28-.2.43-.28.72-.44.44-.28.44-.87.48-1.33.06-.46.15-1,.57-1.28.56-.33,1.15-.44,1.65-.85,2.13-1.61.8-1.8,1.13-2.3.09-.13.3-.07.57-.31.57-.52.02-.3.2-.5.31-.26,1.06-.85,1.39-1.06.67-.39.87-.28,1.5-.43.89-.28,1.46-1.63,1.8-2.43.28-.65.82-1.15,1.39-1.56.82-.57,1.2-.61,2.13-.8.43-.09.96-.74,1.28-1.04l.11-.09c.56-.44.96-.48,1.59-.2.46.15.76.07,1.22-.07.63-.22.7-.59,1.13-.93.3-.22.31-.06.48.04.28.17-.24-1.13.35-1.54.52-.35.74.11,1.37-.65.74-.93,1.48-1.89,2.65-2.37.87-.31.82-.02,1.5-.04.67-.02,1.2-.95,2.11-.22.43.35.48.63,1.04,1,.09.07.19.13.26.19.74.56.93.57,1.78.78.82.22,1.15.63,1.89.98l.11.06c.46.2.7.22,1.15.39.17.06.33.11.5.17,1.11.3,1.83-.33,3.02.15.7.28.76.3,1.5.35,1.46.15,0,.96.98.95.59-.02.76-.48.89-.95.24-.76.85-1.56,1.33-2.19.15-.19.3-.37.44-.54.57-.7,1.32-1.63,1.96-2.22,6.62-5.97,4.67-7.36,7.65-12.21,1.24-2.04,8.86-11.99,10.08-12.01.35,0,.76.04,1.09-.06.41-.15.74-.41.93-.8,1.33-2.72,5.36-.54,6.62,1.33.48.69.67.48,1.33.57.5.11.83,1.09,1.04,1.52.24.48.39.78.96.91.8.2.91.59,1.33,1.2.46.65.65.82,1.37,1.09.96.35,1.87,1.06,2.52,1.83.85,1.06.44.74,1.63.65.74-.06.8.54,1.09.32.13-.17.22-.09.43-.09.11.02.43-.11.5-.2.22-.31.31-.35.67-.52.43-.2.56-.2.46-.65-.09-.39.85-1,1.15-1.32.17-.22-.43,0,.43-.74,1.33-1.15,2.02-1.8,2.76-3.41.48-1.04.76-1.43,1.48-2.33.52-.65.85-1.2,1.3-1.87.93-1.26,2.46-.98,2.82-1.59.11-.2.04-.24.22-.54.32-.44-.13-.74.63-1.24.67-.44,1.32-.63,2.02-1.15.5-.39.89-.61,1.43-.93.61-.39,1.59-1.13,1.93-1.76.15-.33.3-.59.48-.91.43-.74,1.3-1,2.02-1.43.7-.44.69-.69,1.2-1.24.7-.74.82-.52,1.35-1.56.33-.65.7-.98,1.06-1.58.35-.59.5-.91.96-1.46.07-.09.17-.19.24-.28.69-.82,1.32-1.63,2.48-1.41.87.17,1.33.41,1.87,1.11.06.09.13.17.19.26.67.85.83,1.17,1.74,1.8.2.15.33.26.5.44.39.46.54.48,1.02.82.19.15.33.26.46.44.41.56.7.57,1.26.89.2.09.37.17.57.24.48.19.69.13.91.61.11.22.24.43.35.67.28.5.22.48.31,1.02.09.48.32.74.7,1.04.7.54,1.15.59,1.32,1.54.17.87.72,1.5,1.3,2.15.22.24.43.43.7.65.56.44,1.07.85,1.56,1.37.07.07.15.15.2.22.56.74-.06,1.04.82,1.8,1.09.89,2.63,1.45,3.39,2.63.22.35.39.65.67.95.35.37.93.98,1.32,1.28l.09.07c.93.7,2.33.91,2.8,2.08.3.72.65.44,1.02.67.3.19.57.41.83.65.41.39.37.5.67.87.33.44.43.78.72,1.2.37.56.82.95,1.17,1.5.69,1.04.82.69,1.61,1.3.3.22.13.44.52.41.54-.06.96-.67,1.26-1.07.22-.28.59-.7.91-.89.43-.22.39-.19.74-.56.93-.93,1.39-.41,2.17-1.32.26-.28.5-.56.76-.83.52-.5.43-.69.59-1.35.26-1.02.74-1.06,1.58-1.46.61-.28,1.02-.95,1.33-1.5.17-.28.37-.54.52-.78.17-.33.26-.56.37-.91.17-.48.37-.76.56-1.2.19-.41.3-.83.44-1.22.22-.52.8-1.22,1.26-1.52.41-.24.56-.13.93-.02.72.17,1.26-.54,2.37-.07,1.02.41,1.39.43,2.45.59.8.15.91.3,1.43.83.54.65.19.69.26.95.07.26.96.65,1.24.83.94.67.52,1.06.78,1.8.33.78,1.54.96,2.04,1.63.28.39.33.59.3,1.06-.06.69.2,1.07.7,1.56.13.13.26.26.41.39.67.59,1.13,1.26,1.63,2,.74,1.07.5,1,.82,2.13l.04.11c.24.74,1.24,1.48,1.91,1.87.54.28.95.44,1.37.87.24.26.43.65.67.8.44.28.22.74.2,1.06-.02.5.57.22.69.78.2.98.82,1.11,1.33,1.91.78,1.28,1.2,2.58,2.59,3.37.57.35,1.2.72,1.8,1.06.76.43,1.43.87,2.22,1.22.52.24.91.5,1.39.74.65.33,1.11.56,1.72.96.65.43.87.65,1.69.74,1.04.13.98.3,1.82.72.41.2.93.44,1.33.63,1.02.44,1.76.82,2.61,1.57.57.52,1,1,1.65,1.48,1.04.8.78,1.11,1.43,1.91.54.7,1.04.52,1.52,1.56.3.63.48.78.91,1.3.2.3.46.56.67.82.31.43.61.87.95,1.3.26.33.41.48.72.76.8.69,1.54,1.39,2.33,2.08.57.46,1.04,1,1.59,1.45.67.56,1.37,1.11,1.95,1.76.54.59.8.8,1.5,1.17.63.33.83.8,1.39,1.15.78.5,1.5,1.04,2.24,1.58,1.19.91,2.37,1.61,3.61,2.35Z"/>
  </g>
</svg>