<?xml version="1.0" encoding="UTF-8"?>
<svg id="Capa_1" data-name="Capa 1" xmlns="http://www.w3.org/2000/svg" viewBox="0 0 247.52 147.56">
  <defs>
    <style>
      .cls-1 {
        fill: #fff;
      }

      .cls-2 {
        fill: #8da1ae;
        fill-rule: evenodd;
      }
    </style>
  </defs>
  <g>
    <path class="cls-2" d="M28.01,84.77c-.18.12-.32.21-.56.32.2-.09.38-.2.56-.32Z"/>
    <path class="cls-2" d="M210.22,77.72c-.76.21-1.49.47-2.18.78-.53.24-1.05.5-1.52.79-.21-.23-.4-.43-.55-.61-.76-.9-1.69-2.31-2.72-2.88-.5-.27-.79-.49-1.23-.84-.5-.37-.94-.64-1.46-.97-.47-.29-1-.7-1.49-.91-.14-.06-.24-.15-.21-.03.18.59.37,1.07.52,1.67.17.67.47,1.1.65,1.7.18.59.5.73.72,1.26.12.3.15.53.3.85-.08-.03-.12-.06-.18-.09-.32-.2-.64-.67-1-.53-.29.12-3.32-3.18-3.79-4.08-.27-.5-.52-.94-.81-1.43-.41-.72-.96-1.14-1.34-1.87-.24-.49-.3-.59-.65-1.04-.46-.56-.67-1.1-1.08-1.66-.24-.33-.4-.65-.59-1-.32-.58-.7-.93-1.02-1.51-.41-.7-.9-1.35-1.4-1.99-.27-.37-.55.69-.88,1.78-.05.27.03.58.12.85.21.67.18.79.56,1.39.26.41.33.72.53,1.11.14.26.18.43.27.7.27.85.53.7.9,1.25.36.53.23.76.76,1.31.7.72.53.85.91,1.64.24.55.72.94.9,1.4.14.3-.05.05-.11-.03-.59-.72-.93-1.02-1.35-1.87-.32-.62-.7-.76-1.02-1.32-.38-.7-.35-.62-.94-1.13-.27-.26-.46-.53-.65-.87-.17-.32-.52-1.16-.75-1.35-.47-.41-.5.4-.73.06-.24-.35-.05.99-.2,1.02-.11.02-.09.11-.15.09-.11,0-.85-1.71-.94-1.93-.52-1.17-1.07-2.3-1.66-3.44-.27-.52-.72-1.49-1.08-1.9-.4-.41-.67-.85-1.04-1.23-.35-.35-.7-.7-1.04-1.07-.11-.11-1.14-1.17-1.17-.53-.01.37.55,1.4.72,1.78.24.52.5,1.04.75,1.54,1.37,2.97.34,1.49.14,1.57-.12.05-.23-.05-.2.17.12.96-1.1-.41-1.26-.59-.33-.33-.84-.87-.73,0,.23,1.54,1.28,3.61,1.98,4.99.3.56.23.96.75,1.43.33.32.49.46.75.87.21.35.49.79.68,1.16.24.46.21.35-.18.14-.3-.17-.43-.29-.67-.53-.61-.58-1.22-.53-1.87-1.08-.2-.18-.49-.43-.65-.64-.29-.4-.52-.62-.84-.97-.85-.94-.7-1.63-1.2-2.66-.12-.26-.23-.58-.38-.81-.44-.7-.38-.85-.59-1.58-.14-.46-.38-.9-.46-1.31-.12-.61-.26-.93-.58-1.46-.47-.79-.5-1.05-.7-1.93-.14-.59-.37-1.17-.55-1.77-.21-.67-.47-1.29-.68-1.95-.46.14-.5,1.25-.52,1.66-.02.62-.08,1.07-.15,1.69-.08.7-.01,1.34-.09,2.02-.06.62-.03,1.19-.03,1.83,0,.46-.03.75-.06,1.2-.06.73.21,1.28.12,2.02-.06.53-.11.82-.06,1.37.02.12.08.29-.03.14-.18-.27-.29-.75-.3-1.08-.05-.61-.11-.88-.32-1.46-.3-.78-.3-1.72-.61-2.5-.21-.56-.21-1.22-.2-1.81,0-.41-.05-.61-.11-1-.08-.47-.26-.78-.33-1.22-.11-.7.21-.85-.12-1.77-.2-.52-.26-.84-.32-1.37-.08-.76-.03-1.13-.35-1.84-.3-.64-.18-.59-.27-1.23-.03-.12-1.72-5.45-2.36-6.44-.12-.18-.47-.62-.7-.67-.44-.06-.65,1.52-.72,1.81-.03.17-.11.72-.21.79-.09-.14-.14-.79-.15-1-.17-1.72-.4-4.67-1.55-6.01-.38-.44-.52-.18-.87-.87-.27-.52-.26-.43-.76-.52-.47-.08-.85-.41-1.26-.58-.5-.15-1.28.02-1.57.47-.15.29-2.74,2.42-3,2.53-.37.15-.87.17-1.05.52-.15.3-.08.67-.4,1.17-.24.41-.43.65-.64,1.1-.4.87-.79,1.31-1.39,2.04-.4.49-.82.94-1.32,1.34-.59.47-1.6,1-2.37.99-.47,0-.94-.03-1.42-.03-.3,0-.75.05-1.02-.05.05.37.09.24.26.5.26.43.5.84.76,1.26.08.12.14.24.2.38.62,1.23,1.49,2.34,2.39,3.38.33.4.7.7,1.02,1.07.9,1.04-.44.73-.05,1.74.03.08.05.12.08.2.52.94,1.67,1.93,2.59,2.51l.15.09c.3.18,1.32.67,1.43.96.17.44-1.05.23-.73.93.27.62,1.16,1.13,1.75,1.42.2.09.4.2.59.3.79.47.41.47.5.82.15.55,2.53,2.01,3.11,2.31.43.21.72.32,1.1.59.09.08.05.29.3.08.23-.18.12.15.35.03.4-.21.52.08,1.04.06.4,0,.55.02.93.08.53.06,1.05-.11,1.61-.08.62.03.69.06,1.23.27.58.23,1.17.02,1.51.58.27.46.3.56.58.79h-4.95c-.11-.06-.23-.11-.34-.15-.52-.15-1.34-.5-1.83-.59-.44-.08-.37-.03-.75-.24-.35-.21-1-.23-1.45-.35-1.08-.27-1.1-.82-2.51-.97-.32-.05-.56-.11-.87-.2-.78-.23-.76.09-1.22.59-.58.64-1.32-.14-1.87.12-.33.14-.43.9-.5,1.2-.43,1.67-.91.21-2.07.81-.65.4-1.35,1.35-1.95,1.92-.94.9-.91.3-1.13.26-.27-.06-1.28.85-1.51,1.05-.43.38-1.25,1.1-1.72,1.37-.3.18-.23.08-.35.05h-.03c-.09,0-.03.11-.24-.09.05-.08.11-.17.17-.24,0-.02.02-.02.02-.03.43-.59.91-1.11,1.4-1.64.65-.68,1.11-.87,1.67-1.7.12-.18.24-.3.35-.46.4-.53-.62-1.04-.29-1.35.18-.17,1.29-.21,1.63-.29.79-.15.75-.49,1.22-.93.47-.38.55-.33.94-.87.61-.84.53-1,.78-1.95.26-1.02.12-1.67-.37-2.62-.3-.59-.38-.72-.82-1.23-.27-.33-.38-.62-.62-.93-.29-.35-.49-.49-.75-.9-.23-.35-.47-.62-.7-.96-.41-.61-.52-.76-1.1-1.26-.43-.38-.79-.87-1.32-1.08-.49-.18-.79-.23-1.13.21l-.03.06c-.29.46-.43,1.25-.5,1.78-.2,1.25,0,2.18.02,3.38v.06c-.03.91-.72,2.28-1.22,3.03-.4.61-1.43,1.61-2.07,1.92-.73.33-.14-.61,0-.79.67-.99,1.9-2.62,1.99-3.81.03-.32-.08-1.29-.2-1.54-.06-.08-.08-.11-.15-.17-.53-.38-.88.14-1.16.52-.37.52-.67.94-1.07,1.45-.49.59-.91,1.17-1.37,1.8-1.16,1.57-.11-.99.03-1.32.41-1,.09,0,.44-.38.49-.52.91-1.26,1.2-1.9.2-.46.33-.94.53-1.39.55-1.22,1.19-.81.97-2.53-.3-2.44-1.14-9.32-3.49-10.5-.24.15-.58-.15-.75-.29-.15-.14-.29-.26-.43-.4-.41-.4-.84-.85-1.23-1.28-.29-.3-.65-.76-.94-1.02-.75-.67-.96,3.18-.88,3.42.37,1.28.94,2.53,1.2,3.82.14.7.23,1.19.5,1.87.09.21.67,1.52.55,1.66-.09.08-.5-.14-.58-.2-.58-.37-.75-1.42-.82-.32-.03-.38-.09-.64-.21-1-.41-1.17-.91-2.54-1.54-3.61-.27-.46-.4-.91-.65-1.34-.37-.62-.84-1.26-1.23-1.86-.35-.56-.73-1.48-1.2-.41-.26.59-.4,1.19-.72,1.77-.4.75-.32.23-.29-.21.12-1.29-.01-2.07-.2-3.33-.15-1.04-.33-2.5-.93-3.36-.82-1.2-2.02-2.82-3.12-3.78-.59-.5-.85.06-1.39.23-.46.08-.7-.29-.94-.61-.14-.15-.3-.35-.49-.44-1.05-.47-.99,2.72-.99,3.27-.01.56-.01,1.46-.09,1.99-.12.82-.2,1.49-.2,2.34,0,1.08.03,2.15.02,3.21,0,.29.03.93-.24.29-.26-.62-.2-.12-.18.2.02.44-.44-.73-.67-.76-.18,0-.32.69-.33.82-.06.47-.12.82-.24,1.29-.14.52-.12.93-.23,1.42-.05.27-.09.55-.14.82-.26,1.52-.82,2.89-1.11,4.4-.21,1.05-.01,2.02.03,3.07.02.21.05,1.23-.43.81-.27-.24-.7-1.2-.99-1.61-.08-.09-.11-.08-.09-.15.14-.52.2-.37.15-.97-.08-1.11.05-2.42.32-3.5.3-1.25.91-3.64.84-4.86-.17-2.09-1.37-3.23-2.59-1.17l-.05.08c-.49.84-.88,1.71-1.35,2.54-.4.7-.87,1.31-1.26,1.98-.23.4-.4.73-.65,1.13-.32.5-.55.7-.9,1.13-.05-.17-.05-.41-.14-.55-.23-.33-1.05-.12-1.39-.05-.21.05-2.63.75-2.5.32.06-.17.9-.58,1.11-.72,1.07-.65,1.87-1.23,2.44-2.37.08-.18.26-.68.32-.78.38-.47.68-.99,1.02-1.51.38-.61.58-.85.75-1.55.15-.62.64-1.28.99-1.83.32-.5.73-.94,1.02-1.42.44-.7.9-1.45,1.4-2.1.53-.68,1.07-1.43,1.52-2.18.23-.4.43-.68.68-1.07.32-.46.61-.93.88-1.42.44-.78,1.07-1.96,1.37-2.79.12-.33.23-.58.05-.9-.62-1.04-.32-2.65-.18-2.95.18-.4.87-1.9.43-2.16-.05-.02-.06-.02-.12.02-.21.08-.81.75-1.02.96l-.05.05c-.5.53-.5.78-.82,1.35-.41.72-.79,1.31-1.11,2.07-.33.81-.76,1.57-1.08,2.39-.23.61-.64,1.05-.7,1.74-.08.94-2.22,2.47-2.22,2.37-.15,0-.64.2-.81.27-.62.24-.87.41-1.43.76-.27.17-.46.32-.7.5-.5.33-.61.47-1.02.88-.5.5-.96,1.14-1.49,1.57-.52.41-.73.9-1.14,1.4-.33.38-.67.93-.97,1.26-.4.4-.52.55-.81,1-.27.4-.75.82-1.11,1.14-.4.35-.85.5-1.16.91-.37.52-.38.62-.94,1.02.06.03.12.06.18.08.94.46.67.76,1.25,1.34.55.53,1.11,1.05,1.69,1.54.58.47.59.43.73,1.11.29,1.31,1.92.78,2.69,1.31.81.56.94.46,1.87.67.65.15.61.29,1.13.53.84.37,1.46.75,2.22,1.23.17.12.33.23.5.33.27.21.38.32.61.58.56.64.9.41,1.31.68.64.43.53.93,1.37,1.35.46.23.67.29,1.11.61,1.11.76,2.13,1.46,3.32,2.13.9.5,1.81.93,2.77,1.29,3.3,1.26,5.72,1.26,8.84,3.33.09.06.2.14.29.2-1.89.18-3.59.9-4.96,2.09-.3-.29-.64-.61-.91-.84-.58-.46-1.19-1-1.96-1.11-.94-.12-1.74-.23-2.6-.68-.2-.11-.61-.43-.84-.33-.35.15-.06.78.03.99.2.43.29.65.44,1.1.2.56.52.91.76,1.43.23.49.24.58.58,1.04.43.56.62,1.19,1.05,1.74.29.35.5.75.73,1.11-.06.26-.12.53-.14.82l-.24-.24c-.29-.3-.52-.56-.84-.87-.41-.38-.58-.58-.9-1.04-.35-.5-.79-.93-1.1-1.45-.24-.43-.47-.79-.73-1.2-.43-.68-.33-1.04-.93-1.67-.4-.44-.56-.58-.88-1.13-.3-.52-.52-.79-.9-1.26-.29-.37-.44-.78-.72-1.11-.29-.34-.55-.65-.84-.99-.24-.32-.58-.65-.79-.97-.29-.43-.38-.55-.76-.91-.29-.3-.46-.49-.73-.81-.38-.41-1.39-1.2-1.92-1.39-.81-.27-.27,1.99-.21,2.27.17.88.44,1.64.64,2.48.23.93.06.72-.41.09-.23-.29-.41-.5-.65-.79-.18-.21-.32-.43-.26-.02.03.23.02.18-.11.24-.15.08.03.75.03.94.03.49-.02.76.09,1.28.2.88.4,1.69.52,2.59.08.5.26,1.46.43,1.92.21.62.38,1.05.49,1.7.08.41.15.68.26,1.08.06.27.08.21-.11.05-.53-.52-.79-1.07-1.19-1.69-.4-.61-.59-1.04-.88-1.71-.32-.76-.52-1.54-.82-2.28-.35-.87-.5-1.57-.76-2.44-.32-1.13-.62-2.27-.96-3.38-.21-.69-.5-1.6-.81-2.24-.32-.72-.24-1.05-.93-1.58-.14-.11-.27-.21-.41-.34-.21-.17-.44-.41-.64-.56-.76-.59-2.68-1.89-3.36-2.36-.2-.14-.64-.46-.84-.53-.17-.08-3.64-3.17-5.1-3.78-.68-.29-1.31-.72-2.01-.96-.73-.24-1.69-1.23-2.02-1.89-.37-.7-.33-.91-.9-1.58-.62-.73-.97-.46-1.6-.82-.06.27-.05.46.03.73.2.69.24.5.2,1.25,0,.47.32,1.07.56,1.46.38.65.4.69.59,1.43.44,1.58.82.65,1.26,1.42,1.39,2.37,1.52,4.58.84,7.18.12-1.19.02-2.3-.3-3.44-.15-.55-.59-1.78-.88-2.24-.06-.11-.37-.38-.47-.41-.29-.06-.69.97-.78,1.22-.18.46-.29.85-.44,1.29-.14.4-.3.87-.32.11,0-.84.08-1.74.11-2.59.03-.79.03-2.51-.37-3.18-.36-.62-1.31-1.7-1.17-2.47.05-.23.06-.41.02-.64-.24-1.1-1.74-1.61-2.04-3.85v-.05c-.06-.37-.3-.34-.53-.12-.76.7-1.07,2.41-1.11,3.41-.02.81.12,1.58.11,2.39,0,.99.2,1.64.44,2.57.33,1.31.79,2.56,1.19,3.85.06.17.32.9-.08.38-.41-.53-.76-1.11-1.17-1.66-.29-.37-1.1-1.57-1.66-1.29-.15.09-.52.61-.64.78-.49.62-.49,1.46-.33,2.21.23,1.14.5,2.27.68,3.44.06.43.26,1.51-.27.4-.23-.47-.41-.88-.69-1.35-.27-.47-.96-1.34-1.35-.44-.26.59-.97,2.66-1,3.26-.02.55-.55-2.94-.26-3.96.18-.67.3-1.29.46-1.98.26-1.08.43-2.01.55-3.11.11-1.02.05-2.1-1.23-1.14-.5.38-.84.64-.9,1.31-.05.56.02,1.11-.17,1.67-.15.44-.65.72-.87,1.35-.18.5-.38,1.11-.27,1.63.12.62.24.79.17,1.49-.14,1.25-.03,1.93-.93,3-.21.27-.24.23-.44.4-.06.06-.12.14-.17.21-.62.81-.81,1.14-1.08,2.12-.17.55-.37,1.19-.49,1.74-.23.97-.47,2.01-.62,3-.05.29-.18,1.64-.3,1.81-.18-.05-.29-2.12-.59-2.53-.43-.59-1.66-3.14-1.55-3.84.14-.76.38-1.6.41-2.34,0-.59-.41-.79-.94-.88-.24-.05-.52.17-.67.35-.27.32-.41.7-.72,1.07-.47.58-.59,1.08-.91,1.72-.23.43-.33.76-.52,1.2-.67,1.66-1.31,3.74-2.3,5.22-.58.88-.82.79-.94-.17-.08-.65-.08-.91-.61-1.34-.27-.23-.27-.37-.46-.64-.09-.15-.21-.21-.33-.21-.27-.35-.62-.67-1.02-.91-.7-.44-1.51-.67-2.3-.67-.64,0-1.28.15-1.87.43l-.94.46c-.64-.56-1.63-.94-2.83-1.14-.15-.03-.24-.09-.37-.21-.75-.75-1.22-3.15-1.89-4.22-.17-.26-.14-.72-.38-.5-.41.37-.72,1.11-.85,1.63-.38,1.51-.64,3.11-.94,4.64-.09.47-.18.94-.29,1.42-.14.72-.3,1.52-.49,2.25l-2.02.97c-.15.08-.3.15-.44.26.18-1.19.29-2.79.14-3.64-.05-.2-.24-.88-.53-.85-.14.03-.18.06-.32.14-.32.23-.38.24-.73.4-1.49.65-2.63,2.83-3.67,4.06-.09.11-.44.59-.37.15,0-.06.27-.94.05-.64-.12.17-.14.06-.27.23-.29.37-.08.17-.41.29-.3.12-.52.81-.96,1.11-.35.26-.47.33-.78.67-.08.09-.15.17-.23.24-1.02,1.07-2.16,1.99-3.2,3.04-.68.73-1.43,1.58-2.01,2.48-2.09-.99-4.43-1.52-7.02-1.58.49-.46,1.86-.37,2.44-.72.21-.14,1.69-1.51,1.89-1.66.23-.17.35-.23.59-.37.37-.23.37-.72.4-1.1.05-.38.12-.82.47-1.05.46-.27.94-.37,1.35-.7,1.75-1.32.65-1.48.93-1.89.08-.11.24-.06.47-.26.47-.43.02-.24.17-.41.26-.21.87-.7,1.14-.87.55-.32.72-.23,1.23-.35.73-.23,1.2-1.34,1.48-1.99.23-.53.67-.94,1.14-1.28.67-.47.99-.5,1.75-.65.35-.08.79-.61,1.05-.85l.09-.08c.46-.37.79-.4,1.31-.17.38.12.62.06,1-.06.52-.18.58-.49.93-.76.24-.18.26-.05.4.03.23.14-.2-.93.29-1.26.43-.29.61.09,1.13-.53.61-.76,1.22-1.55,2.18-1.95.72-.26.67-.02,1.23-.03.55-.02.99-.78,1.74-.18.35.29.4.52.85.82.08.06.15.11.21.15.61.46.76.47,1.46.64.67.18.94.52,1.55.81l.09.05c.38.17.58.18.94.32.14.05.27.09.41.14.91.24,1.51-.27,2.48.12.58.23.62.24,1.23.29,1.2.12,0,.79.81.78.49-.02.62-.4.73-.78.2-.62.7-1.28,1.1-1.8.12-.15.24-.3.37-.44.47-.58,1.08-1.34,1.61-1.83,5.43-4.9,3.84-6.04,6.29-10.03,1.02-1.67,7.28-9.85,8.28-9.86.29,0,.62.03.9-.05.33-.12.61-.33.76-.65,1.1-2.24,4.4-.44,5.43,1.1.4.56.55.4,1.1.47.41.09.68.9.85,1.25.2.4.32.64.79.75.65.17.75.49,1.1.99.38.53.53.67,1.13.9.79.29,1.54.87,2.07,1.51.7.87.36.61,1.34.53.61-.05.65.44.9.26.11-.14.18-.08.35-.08.09.02.35-.09.41-.17.18-.26.26-.29.55-.43.35-.17.46-.17.38-.53-.08-.32.7-.82.94-1.08.14-.18-.35,0,.35-.61,1.1-.94,1.66-1.48,2.27-2.8.4-.85.62-1.17,1.22-1.92.43-.53.7-.99,1.07-1.54.76-1.04,2.02-.81,2.31-1.31.09-.17.03-.2.18-.44.26-.37-.11-.61.52-1.02.55-.37,1.08-.52,1.66-.94.41-.32.73-.5,1.17-.76.5-.32,1.31-.93,1.58-1.45.12-.27.24-.49.4-.75.35-.61,1.07-.82,1.66-1.17.58-.37.56-.56.99-1.02.58-.61.67-.43,1.11-1.28.27-.53.58-.81.87-1.29.29-.49.41-.75.79-1.2.06-.08.14-.15.2-.23.56-.67,1.08-1.34,2.04-1.16.72.14,1.1.34,1.54.91.05.08.11.14.15.21.55.7.68.96,1.43,1.48.17.12.27.21.41.37.32.38.44.4.84.67.15.12.27.21.38.37.33.46.58.47,1.04.73.17.08.3.14.47.2.4.15.56.11.75.5.09.18.2.35.29.55.23.41.18.4.26.84.08.4.26.61.58.85.58.44.94.49,1.08,1.26.14.72.59,1.23,1.07,1.77.18.2.35.35.58.53.46.37.88.7,1.28,1.13.06.06.12.12.17.18.46.61-.05.85.67,1.48.9.73,2.16,1.19,2.79,2.16.18.29.32.53.55.78.29.3.76.81,1.08,1.05l.08.06c.76.58,1.92.75,2.3,1.7.24.59.53.37.84.55.24.15.47.33.68.53.33.32.3.41.55.72.27.37.35.64.59.99.3.46.67.78.96,1.23.56.85.67.56,1.32,1.07.24.18.11.37.43.33.44-.05.79-.55,1.04-.88.18-.23.49-.58.75-.73.35-.18.32-.15.61-.46.76-.76,1.14-.33,1.78-1.08.21-.23.41-.46.62-.68.43-.41.35-.56.49-1.11.21-.84.61-.87,1.29-1.2.5-.23.84-.78,1.1-1.23.14-.23.3-.44.43-.64.14-.27.21-.46.3-.75.14-.4.3-.62.46-.99.15-.34.24-.69.37-1,.18-.43.65-1,1.04-1.25.33-.2.46-.11.76-.02.59.14,1.04-.44,1.95-.06.84.33,1.14.35,2.01.49.65.12.75.24,1.17.69.44.53.15.56.21.78.06.21.79.53,1.02.68.78.55.43.87.64,1.48.27.64,1.26.79,1.67,1.34.23.32.27.49.24.87-.05.56.17.88.58,1.28.11.11.21.21.33.32.55.49.93,1.04,1.34,1.64.61.88.41.82.67,1.75l.03.09c.2.61,1.02,1.22,1.57,1.54.44.23.78.37,1.13.72.2.21.35.53.55.65.36.23.18.61.17.87-.02.41.47.18.56.64.17.81.67.91,1.1,1.57.64,1.05.99,2.12,2.13,2.77.47.29.99.59,1.48.87.62.35,1.17.72,1.83,1,.43.2.75.41,1.14.61.53.27.91.46,1.42.79.53.35.72.53,1.39.61.85.11.81.24,1.49.59.33.17.76.37,1.1.52.84.37,1.45.67,2.15,1.29.47.43.82.82,1.35,1.22.85.65.64.91,1.17,1.57.44.58.85.43,1.25,1.28.24.52.4.64.75,1.07.17.24.38.46.55.67.26.35.5.72.78,1.07.21.27.33.4.59.62.65.56,1.26,1.14,1.92,1.7.47.38.85.82,1.31,1.19.55.46,1.13.91,1.6,1.45.44.49.65.65,1.23.96.52.27.68.65,1.14.94.64.41,1.23.85,1.84,1.29.97.75,1.95,1.32,2.97,1.93Z"/>
  </g>
  <g>
    <path class="cls-1" d="M19.59,89.22c1.09-2,2.61-3.53,4.56-4.61,1.95-1.07,4.18-1.61,6.7-1.61,3.22,0,5.92.85,8.09,2.53,2.17,1.69,3.59,4.07,4.26,7.14h-8.39c-.71-1.96-2.07-2.95-4.1-2.95-1.44,0-2.6.56-3.46,1.68-.86,1.12-1.29,2.73-1.29,4.81s.43,3.69,1.29,4.81c.86,1.12,2.01,1.68,3.46,1.68,2.03,0,3.39-.98,4.1-2.95h8.39c-.68,3.01-2.1,5.38-4.28,7.1-2.18,1.72-4.87,2.58-8.06,2.58-2.52,0-4.75-.54-6.7-1.61-1.95-1.07-3.47-2.61-4.56-4.61-1.09-2-1.64-4.33-1.64-7s.55-5.01,1.64-7Z"/>
    <path class="cls-1" d="M72.78,83.37v25.71h-7.88v-3.5c-.8,1.14-1.88,2.05-3.25,2.74-1.37.69-2.88,1.04-4.54,1.04-1.97,0-3.7-.44-5.21-1.31-1.5-.88-2.67-2.14-3.5-3.8-.83-1.66-1.24-3.61-1.24-5.85v-15.02h7.83v13.96c0,1.72.45,3.06,1.34,4.01.89.95,2.09,1.43,3.59,1.43s2.75-.48,3.64-1.43c.89-.95,1.34-2.29,1.34-4.01v-13.96h7.88ZM65.46,76.97l-11.1,4.65v-5.44l11.1-5.34v6.13Z"/>
    <path class="cls-1" d="M82.92,108.3c-1.75-.77-3.13-1.82-4.15-3.16s-1.58-2.83-1.71-4.49h7.79c.09.89.51,1.61,1.24,2.17.74.55,1.64.83,2.72.83.98,0,1.74-.19,2.28-.58.54-.38.81-.88.81-1.5,0-.74-.38-1.28-1.15-1.64-.77-.35-2.01-.74-3.73-1.18-1.84-.43-3.38-.88-4.61-1.36-1.23-.48-2.29-1.23-3.18-2.26-.89-1.03-1.34-2.42-1.34-4.17,0-1.47.41-2.82,1.22-4.03.81-1.21,2.01-2.17,3.59-2.88,1.58-.71,3.46-1.06,5.64-1.06,3.23,0,5.77.8,7.63,2.4,1.86,1.6,2.92,3.72,3.2,6.36h-7.28c-.12-.89-.51-1.6-1.17-2.12-.66-.52-1.53-.78-2.6-.78-.92,0-1.63.18-2.12.53-.49.35-.74.84-.74,1.45,0,.74.39,1.29,1.18,1.66.78.37,2,.74,3.66,1.11,1.9.49,3.46.98,4.65,1.45,1.2.48,2.25,1.24,3.16,2.3.91,1.06,1.37,2.48,1.41,4.26,0,1.51-.42,2.85-1.27,4.03-.85,1.18-2.06,2.11-3.64,2.79-1.58.67-3.42,1.01-5.51,1.01-2.24,0-4.24-.38-5.99-1.15Z"/>
    <path class="cls-1" d="M115.21,84.11c1.35-.74,2.93-1.11,4.75-1.11,2.12,0,4.04.54,5.76,1.61,1.72,1.08,3.08,2.61,4.08,4.61,1,2,1.5,4.32,1.5,6.96s-.5,4.97-1.5,6.98c-1,2.01-2.36,3.56-4.08,4.65-1.72,1.09-3.64,1.64-5.76,1.64-1.78,0-3.36-.37-4.72-1.11-1.37-.74-2.44-1.69-3.2-2.86v15.85h-7.88v-37.96h7.88v3.64c.77-1.2,1.83-2.16,3.18-2.9ZM121.64,91.55c-1.09-1.12-2.43-1.68-4.03-1.68s-2.9.57-3.98,1.7c-1.09,1.14-1.64,2.69-1.64,4.65s.54,3.52,1.64,4.65c1.09,1.14,2.42,1.7,3.98,1.7s2.9-.58,4.01-1.73c1.11-1.15,1.66-2.71,1.66-4.68s-.54-3.51-1.63-4.63Z"/>
    <path class="cls-1" d="M136.02,79.48c-.88-.81-1.31-1.82-1.31-3.02s.44-2.25,1.31-3.06c.87-.81,2-1.22,3.39-1.22s2.46.41,3.34,1.22c.87.81,1.31,1.84,1.31,3.06s-.44,2.2-1.31,3.02c-.88.81-1.99,1.22-3.34,1.22s-2.51-.41-3.39-1.22ZM143.32,83.37v25.71h-7.88v-25.71h7.88Z"/>
    <path class="cls-1" d="M148.96,89.22c1-2,2.36-3.53,4.08-4.61,1.72-1.07,3.64-1.61,5.76-1.61,1.69,0,3.23.35,4.63,1.06,1.4.71,2.49,1.66,3.29,2.86v-11.93h7.88v34.09h-7.88v-3.69c-.74,1.23-1.79,2.21-3.16,2.95-1.37.74-2.96,1.11-4.77,1.11-2.12,0-4.04-.55-5.76-1.64-1.72-1.09-3.08-2.64-4.08-4.65-1-2.01-1.5-4.34-1.5-6.98s.5-4.96,1.5-6.96ZM165.09,91.57c-1.09-1.14-2.42-1.7-3.99-1.7s-2.89.56-3.98,1.68c-1.09,1.12-1.64,2.67-1.64,4.63s.55,3.52,1.64,4.68c1.09,1.15,2.42,1.73,3.98,1.73s2.89-.57,3.99-1.7c1.09-1.14,1.63-2.69,1.63-4.65s-.55-3.52-1.63-4.65Z"/>
    <path class="cls-1" d="M204.41,98.11h-17.83c.12,1.6.64,2.82,1.54,3.66.91.85,2.02,1.27,3.34,1.27,1.96,0,3.33-.83,4.1-2.49h8.39c-.43,1.69-1.21,3.21-2.33,4.56-1.12,1.35-2.53,2.41-4.22,3.18-1.69.77-3.58,1.15-5.67,1.15-2.52,0-4.76-.54-6.73-1.61-1.97-1.07-3.5-2.61-4.61-4.61-1.11-2-1.66-4.33-1.66-7s.55-5.01,1.64-7c1.09-2,2.62-3.53,4.58-4.61,1.97-1.07,4.22-1.61,6.77-1.61s4.7.52,6.63,1.57c1.93,1.04,3.45,2.53,4.54,4.47,1.09,1.93,1.63,4.19,1.63,6.77,0,.74-.04,1.51-.14,2.3ZM196.49,93.74c0-1.35-.46-2.43-1.38-3.22-.92-.8-2.07-1.2-3.46-1.2s-2.44.38-3.34,1.15c-.91.77-1.47,1.86-1.68,3.27h9.86Z"/>
    <path class="cls-1" d="M213.16,108.3c-1.75-.77-3.13-1.82-4.15-3.16-1.01-1.34-1.58-2.83-1.71-4.49h7.79c.09.89.51,1.61,1.24,2.17.74.55,1.64.83,2.72.83.98,0,1.74-.19,2.28-.58.54-.38.81-.88.81-1.5,0-.74-.38-1.28-1.15-1.64-.77-.35-2.01-.74-3.73-1.18-1.84-.43-3.38-.88-4.61-1.36-1.23-.48-2.29-1.23-3.18-2.26-.89-1.03-1.34-2.42-1.34-4.17,0-1.47.41-2.82,1.22-4.03.81-1.21,2.01-2.17,3.59-2.88,1.58-.71,3.46-1.06,5.64-1.06,3.23,0,5.77.8,7.63,2.4,1.86,1.6,2.92,3.72,3.2,6.36h-7.28c-.12-.89-.51-1.6-1.17-2.12-.66-.52-1.53-.78-2.6-.78-.92,0-1.63.18-2.12.53-.49.35-.74.84-.74,1.45,0,.74.39,1.29,1.18,1.66.78.37,2,.74,3.66,1.11,1.9.49,3.46.98,4.65,1.45,1.2.48,2.25,1.24,3.16,2.3.91,1.06,1.37,2.48,1.41,4.26,0,1.51-.42,2.85-1.27,4.03-.85,1.18-2.06,2.11-3.64,2.79-1.58.67-3.42,1.01-5.51,1.01-2.24,0-4.24-.38-5.99-1.15Z"/>
  </g>
</svg>