<?xml version="1.0" encoding="UTF-8"?>
<svg id="Capa_1" data-name="Capa 1" xmlns="http://www.w3.org/2000/svg" xmlns:xlink="http://www.w3.org/1999/xlink" viewBox="0 0 1920 1080">
  <defs>
    <style>
      .cls-1 {
        mask: url(#mask);
      }

      .cls-2 {
        opacity: .26;
      }

      .cls-3 {
        fill: url(#Degradado_sin_nombre_8);
      }

      .cls-4 {
        fill: #83a1be;
      }

      .cls-5 {
        opacity: .7;
      }
    </style>
    <linearGradient id="Degradado_sin_nombre_8" data-name="Degradado sin nombre 8" x1="959.11" y1="1078.55" x2="959.11" y2="17.84" gradientUnits="userSpaceOnUse">
      <stop offset="0" stop-color="#000"/>
      <stop offset=".17" stop-color="#fff"/>
      <stop offset=".77" stop-color="#fff"/>
      <stop offset=".79" stop-color="#f9f9f9" stop-opacity=".98"/>
      <stop offset=".82" stop-color="#ebebeb" stop-opacity=".92"/>
      <stop offset=".85" stop-color="#d3d3d3" stop-opacity=".83"/>
      <stop offset=".88" stop-color="#b1b1b1" stop-opacity=".7"/>
      <stop offset=".92" stop-color="#858585" stop-opacity=".52"/>
      <stop offset=".95" stop-color="#505050" stop-opacity=".32"/>
      <stop offset=".99" stop-color="#121212" stop-opacity=".07"/>
      <stop offset="1" stop-color="#000" stop-opacity="0"/>
    </linearGradient>
    <mask id="mask" x="0" y="-22.96" width="1920" height="1695.46" maskUnits="userSpaceOnUse">
      <rect class="cls-3" x="1.78" y="-14.79" width="1914.67" height="1093.33"/>
    </mask>
  </defs>
  <g class="cls-1">
    <g class="cls-2">
      <g class="cls-5">
        <path class="cls-4" d="M1295.17-22.96h-1.95c-13.06,14.59-22.84,32.2-21.12,56.41.92,12.88,3.2,25.56,5.41,37.82,6.19,34.33,12.01,66.77-13.52,96.49-9.78,11.41-21.86,20.77-33.55,29.82-19.27,14.94-39.2,30.39-50.2,55.7-12.4,28.52-5.73,63.17,2.03,87.22,1.42,4.38,3.08,8.92,4.67,13.3,8.73,23.98,17.78,48.77-4.08,67.2-14.45,12.19-33.47,18.29-51.86,24.2-8.5,2.73-16.55,5.31-24.06,8.44-27.36,11.4-51.67,22.39-72.17,41.66-38.42,36.11-31.03,80.43-23.2,127.36,2.45,14.67,4.98,29.84,6.14,45.03,4.88,64.26-32.73,98.32-69.1,131.26-5.91,5.35-12.02,10.89-17.81,16.43-39.88,38.22-55.8,92.2-72.68,149.35-3.14,10.64-6.39,21.64-9.77,32.41-9.05,28.81-18.21,63.52-17.51,102.56.11,6.12,1.38,13.93,2.73,22.19,3.17,19.5,6.77,41.59-2.21,53.33-10.17,13.27-30.99,15.41-63.64,6.53-18.41-5.01-44.54-15.99-64.43-39.86-31.36-37.59-22.76-94.63-15.16-144.94,2.35-15.6,4.58-30.35,5.7-44.31.13-1.68.28-3.47.44-5.34,1.95-23.34,5.22-62.31-5.34-80.82-4.48-23.22-16.74-41.95-28.59-60.06-4.19-6.4-8.52-13-12.37-19.64-15.5-26.7-10-46.94.15-74.78,4.98-13.66,10.85-27.07,16.52-40.04,7.91-18.08,16.08-36.78,22.01-56.46,17.72-58.8,5.3-115.53-31.63-144.55-25.45-19.99-54.7-16.82-77.34-11.81-3.24.71-6.52,1.52-9.98,2.39-21.96,5.45-46.86,11.63-64.75-8.75-8.1-9.23-14.09-22.7-17.79-40.02-2.05-9.59-3.21-19.64-4.34-29.36-.18-1.54-.29-4.33-.42-7.57-.52-12.57-1.22-24.11-4.12-27.2-2.53-5.92-3.64-12.85-4.81-20.17-1.28-7.96-2.6-16.2-5.9-23.33-1.69-15-13.62-34.39-23.21-49.99-2.9-4.71-5.63-9.17-7.71-12.9-34.89-62.8-84.82-135.4-161.89-139.48-6.56-.35-13.47-.32-20.16-.29-21.97.09-44.67.17-64.01-12-29.31-18.44-35.8-69.35-29.36-113.43h-1.3c-6.47,44.57.24,96.09,30.09,114.87,19.61,12.33,42.49,12.26,64.59,12.17,6.98-.03,13.57-.05,20.09.29,76.5,4.05,126.16,76.3,160.89,138.79,2.09,3.77,4.84,8.23,7.75,12.96,9.53,15.5,21.39,34.79,22.97,49.39l.08.29c3.24,6.94,4.55,15.09,5.81,22.98,1.2,7.5,2.34,14.59,5,20.75l.17.25c2.79,2.71,3.38,17.37,3.74,26.13.13,3.27.25,6.1.44,7.71,1.13,9.76,2.31,19.86,4.38,29.54,3.77,17.63,9.87,31.35,18.16,40.8,18.37,20.92,43.61,14.66,65.87,9.14,3.45-.86,6.72-1.67,9.95-2.39,22.41-4.95,51.35-8.1,76.43,11.6,36.39,28.59,48.61,84.57,31.12,142.62-5.9,19.58-14.05,38.23-21.94,56.26-5.68,12.99-11.56,26.43-16.56,40.14-10.03,27.48-15.9,49.06-.02,76.4,3.88,6.67,8.21,13.29,12.41,19.7,11.8,18.02,23.99,36.64,28.38,59.58l.1.29c10.37,17.94,7.12,56.68,5.18,79.83-.16,1.89-.3,3.68-.44,5.34-1.11,13.91-3.33,28.61-5.68,44.18-7.66,50.72-16.33,108.21,15.54,146.42,20.11,24.12,46.47,35.2,65.05,40.26,13.18,3.58,24.48,5.38,33.96,5.38,14.34,0,24.56-4.11,30.88-12.37,9.45-12.35,5.78-34.89,2.54-54.76-1.34-8.2-2.6-15.93-2.7-21.91-.69-38.74,8.41-73.26,17.41-101.92,3.39-10.79,6.64-21.82,9.79-32.47,16.8-56.92,32.67-110.68,72.25-148.61,5.78-5.53,11.88-11.06,17.78-16.4,36.66-33.21,74.57-67.54,69.63-132.71-1.17-15.28-3.7-30.49-6.16-45.21-7.73-46.41-15.05-90.25,22.72-125.74,20.34-19.12,44.55-30.07,71.8-41.41,7.47-3.12,15.5-5.69,23.98-8.42,18.48-5.94,37.61-12.09,52.25-24.43,22.77-19.2,13.48-44.62,4.53-69.2-1.59-4.37-3.25-8.89-4.66-13.25-7.66-23.72-14.25-57.88-2.09-85.84,10.84-24.94,30.62-40.27,49.75-55.1,11.73-9.1,23.88-18.5,33.77-30.02,26.06-30.36,20.14-63.23,13.89-98.03-2.2-12.21-4.48-24.84-5.39-37.61-1.7-24.16,8.44-41.7,21.8-56.27Z"/>
        <path class="cls-4" d="M1209.44-22.96c-1.16,50.65-58.45,85.45-93.39,106.68-2.11,1.27-4.12,2.5-6.06,3.68-13.25,8.12-26.89,15.21-40.08,22.07-34.78,18.07-67.62,35.14-95.56,70.15-8.7,10.91-16.42,23.03-23.89,34.77-7.31,11.48-14.88,23.36-23.26,33.9-18.74,23.57-39.33,38.68-71.05,52.13l-.24.12c-15.99,8.53-42.95,2.91-62.84-5.18-16.66-6.79-32.57-17.99-47.95-28.81-7.92-5.58-16.12-11.35-24.28-16.41l-.38-.23-.41-.11c-10.44-2.62-17.66,6.21-24.03,14-2.28,2.79-4.44,5.43-6.61,7.41l-.42.46c-9.16,11.89-19.22,22.07-29.91,30.24-25.76,19.69-48.16,22.23-66.58,7.53-7.56-6.04-12.51-14.66-14.31-24.93-2.09-11.98.26-25.74,6.45-37.74,13.39-25.97,38.01-40.91,62.74-38.02,5.3.61,13.41,4.61,22.01,8.84,17.7,8.73,37.77,18.62,48.03,6.51,12.4-14.64,17.42-45.02,15.84-66.16-5.16-69.5-56.45-73.17-97.67-76.12-4.08-.29-8.11-.58-12.04-.92-54.17-4.73-100.48-33.74-127.02-79.62-.44-.75-.92-1.58-1.44-2.46-3.23-5.46-8.46-14.34-9.97-21.77h-6.54c1.37,9.64,7.31,19.73,11.34,26.54.51.87.98,1.67,1.4,2.4,27.67,47.82,75.7,78.04,131.79,82.93,3.95.34,8.01.63,12.12.93,42.76,3.07,86.98,6.23,91.64,68.84,1.45,19.53-3.34,47.15-13.86,59.57-7.29,8.6-26.13-.68-41.26-8.14-9.03-4.45-17.56-8.66-23.78-9.38-27.09-3.14-54.06,13.23-68.73,41.67-7.11,13.79-9.78,29.76-7.32,43.82,2.16,12.41,8.09,22.78,17.13,30,8.82,7.04,18.58,10.55,29.06,10.55,13.71,0,28.66-6.02,44.34-18,11.08-8.47,21.51-18.99,31-31.27,2.46-2.29,4.81-5.16,7.08-7.95,5.63-6.89,10.95-13.4,17.87-11.94,7.88,4.91,15.87,10.53,23.59,15.96,15.66,11.02,31.84,22.4,49.12,29.44,20.96,8.53,49.61,14.32,67.25,4.99,32.67-13.87,53.95-29.53,73.43-54.03,8.63-10.86,16.3-22.91,23.73-34.57,7.36-11.55,14.97-23.51,23.42-34.1,27.03-33.87,59.3-50.64,93.47-68.41,13.28-6.9,27-14.03,40.45-22.26,1.92-1.18,3.94-2.41,6.03-3.68,36.37-22.1,96-58.31,97.03-113.9h-6.45Z"/>
        <path class="cls-4" d="M1389.47,1098.72c43.19,33.74,101.84,36.27,144.69,38.12,2.12.1,4.33.16,6.58.23,23.39.82,52.5,1.81,68.05,23.71,13.09,18.45,12.77,44.3,8.06,62.57-3.05,5.67-5.17,11.47-7.23,17.08-3.08,8.38-5.97,16.28-11.66,23.41-7.81,9.76-17.45,18.08-28.66,24.72-9.06,5.36-18.77,9.43-28.14,13.36-12.31,5.14-25.05,10.48-36.84,18.89-37.61,26.78-46.55,78.52-26.58,153.77,3.52,13.28,7.73,27.06,11.8,40.38,15.73,51.54,31.97,104.78,19.47,157.53h6.72c12.16-54.5-4.27-108.28-20.19-160.39-4.22-13.85-8.22-26.94-11.7-40.05-18.86-71.1-10.89-119.64,23.67-144.26,11.25-8.01,23.67-13.21,35.7-18.25,9.56-4.01,19.44-8.14,28.84-13.71,11.88-7.03,22.12-15.88,30.45-26.32,6.5-8.12,9.78-17.08,12.95-25.73,2.09-5.71,4.08-11.12,6.95-16.4l.27-.47.14-.52c6.89-26.04,3.34-53.24-9.24-70.94-17.39-24.48-48.03-25.56-72.66-26.39-2.25-.08-4.42-.16-6.55-.25-42.11-1.81-99.78-4.3-141.5-36.89-10.02-7.83-15.69-17.55-17.31-29.74-4.67-35,26.14-82.53,44.56-110.92,2.24-3.45,4.33-6.68,6.2-9.64,1.91-3,3.84-6.08,5.81-9.21,28.48-45.41,63.94-101.93,112.69-88.31,52.73,14.72,94.98,56.89,140.86,106.39,45.33,48.91,100.5,43.11,143.5,32.59,31.75-7.77,54.34-25.3,60.47-46.88,4.56-16.15.47-33.93-12.22-52.87-8.47-12.68-18.23-23.96-27.69-34.87-10.05-11.61-20.44-23.61-29.12-37.16-14.27-22.22-23-47.18-32.24-73.6-1.39-3.95-2.76-7.9-4.19-11.85-11.09-31.21-24.92-53.49-43.51-70.13-13.91-12.46-29.27-19.66-44.11-26.63-7.92-3.73-16.12-7.58-24.03-12.19-24.53-14.33-21.86-36.76-18.19-67.8.22-1.84.45-3.7.67-5.58,4.59-39.72-5.27-70.74-21.48-105.1-27.45-58.17-27.34-109.38.37-161.15,12.84-23.97,27.69-47,42.06-69.29,23.31-36.15,47.42-73.54,64.02-116.5.33-.87.69-1.74,1.03-2.63,3.76-9.5,8.91-22.49.83-33.92-6.88-9.74-17.03-15.26-26.84-20.6-3.84-2.09-7.47-4.06-10.77-6.21-21.42-14.03-36.34-31.14-44.66-51.07h-7.19c8.56,22.98,24.91,42.49,48.86,58.18,3.5,2.29,7.24,4.31,11.17,6.47,9.19,4.99,18.67,10.15,24.61,18.55,4.84,6.87,2.44,14.37-1.78,25.02-.36.92-.72,1.82-1.06,2.71-16.27,42.12-40.14,79.15-63.24,114.96-14.45,22.41-29.39,45.59-42.39,69.86-29.25,54.64-29.44,108.57-.58,169.71,15.97,33.84,25,62.33,20.66,99.86-.22,1.87-.44,3.72-.66,5.55-3.63,30.54-7.05,59.4,21.83,76.26,8.14,4.74,16.45,8.65,24.5,12.43,15.11,7.09,29.39,13.8,42.61,25.64,17.63,15.77,30.78,37.01,41.39,66.86,1.41,3.94,2.78,7.87,4.16,11.8,9.02,25.74,18.33,52.36,33.12,75.41,8.98,14.01,19.56,26.22,29.78,38.02,9.3,10.73,18.91,21.84,27.12,34.13,11.11,16.6,14.83,31.75,11.08,45.02-5.36,18.88-26.16,34.46-55.64,41.68-61.75,15.12-104.33,5.61-138.06-30.78-46.55-50.22-89.47-93.03-143.66-108.16-52.7-14.72-89.55,44.01-119.16,91.19-1.97,3.14-3.89,6.19-5.8,9.19-1.86,2.94-3.94,6.14-6.16,9.56-20.33,31.34-51.06,78.72-45.91,117.3,1.92,14.4,8.73,26.24,20.25,35.24Z"/>
        <path class="cls-4" d="M145.7,120.71c-.61-3.55-1.24-7.24-1.74-10.85-5.06-36.51-10.28-74.28-5.87-116.35.55-5.25,1.36-10.77,2.33-16.48h-1.32c-.94,5.63-1.74,11.08-2.29,16.26-4.43,42.33.81,80.21,5.88,116.84.51,3.65,1.14,7.34,1.76,10.91,1.56,9.06,3.16,18.43,2.79,27.89-.55,13.77-11.29,23.96-19.92,32.15-.8.75-1.57,1.49-2.31,2.2-17.16,16.54-33.21,36.54-48.73,55.89-5.77,7.19-11.73,14.62-17.59,21.67C39.69,273.32,20.32,274.37,0,274.44v1.61c20.55-.06,40.07-1.12,59.36-13.84l.15-.14c5.89-7.08,11.88-14.55,17.67-21.77,15.49-19.31,31.51-39.27,48.61-55.75.74-.71,1.51-1.44,2.31-2.2,8.84-8.39,19.84-18.83,20.42-33.35.39-9.66-1.24-19.14-2.81-28.29Z"/>
        <path class="cls-4" d="M122.31-22.96c-2.7,19.24-4.01,39.05-5.27,58.28-2.95,44.86-6,91.25-27.12,130.16-14.68,27.04-32.01,48.21-51.49,62.94C25.71,238.03,13.33,242.62,0,246.14v1.64c13.33-3.52,26.23-8.27,39.09-17.99,19.65-14.84,37.11-36.18,51.89-63.4,21.31-39.26,24.38-85.86,27.34-130.94,1.27-19.28,2.57-39.14,5.29-58.41h-1.31Z"/>
        <path class="cls-4" d="M552.44,97.24c-4.98-3.05-9.69-5.92-13.61-8.65-11.62-8.1-23.94-16.82-35.64-26.37-3.36-2.74-6.95-6.66-10.76-10.82-6.19-6.75-12.58-13.73-18.7-16.38-5.58-2.42-11.55-8.99-17.33-15.35-3.78-4.15-7.34-8.07-10.73-10.81-11.53-9.27-23.49-17.37-34.7-24.74-3.2-2.11-6.41-4.2-9.63-6.3l-1.22-.79h-2.78c1.13.74,2.27,1.48,3.41,2.22,3.21,2.09,6.43,4.19,9.63,6.29,11.18,7.35,23.11,15.44,34.59,24.67,3.31,2.67,6.84,6.55,10.59,10.66,5.88,6.46,11.95,13.14,17.76,15.66,5.88,2.55,12.19,9.43,18.28,16.08,3.84,4.19,7.47,8.15,10.91,10.95,11.73,9.57,24.08,18.3,35.72,26.42,3.94,2.76,8.67,5.64,13.67,8.69,17.26,10.52,38.73,23.61,45.37,42.08,5.8,16.12-16.85,45.94-31.84,65.66-5.05,6.64-9.41,12.39-11.89,16.48-9.52,15.73-16.91,30.16-22.59,44.14-.8,1.96-1.69,4.67-2.71,7.81-3.71,11.38-9.37,28.82-17.26,27.19-15.57-3.16-33.3-30.21-45.03-48.1-2.25-3.42-4.37-6.65-6.22-9.33-7.89-11.45-15.59-23.43-23.05-35.01-6.11-9.5-12.42-19.32-18.82-28.81-28.77-42.68-66.1-87.51-124.73-96.32-6.46-.97-13.22-1.75-19.76-2.5-44.24-5.11-89.99-10.39-97.23-77.67-.56-9.04-.21-18.16.77-27.25h-1.3c-.98,9.14-1.32,18.31-.76,27.43,7.38,68.6,53.65,73.93,98.39,79.09,6.53.75,13.28,1.53,19.72,2.5,58.19,8.76,95.29,53.33,123.9,95.76,6.39,9.48,12.7,19.29,18.81,28.79,7.45,11.59,15.16,23.59,23.08,35.05,1.84,2.66,3.95,5.88,6.19,9.3,11.86,18.08,29.78,45.41,45.83,48.67.41.09.83.13,1.23.13,8.18,0,13.52-16.35,17.42-28.29,1.01-3.11,1.89-5.79,2.66-7.69,5.66-13.89,13.01-28.25,22.48-43.9,2.44-4.02,6.77-9.73,11.8-16.34,16.13-21.24,38.23-50.33,32.08-67.44-6.84-18.99-28.54-32.23-45.99-42.85Z"/>
        <path class="cls-4" d="M101.99-22.96c-2.68,15.59-4.7,31.71-6.67,47.44-4.84,38.73-9.85,78.78-24.74,112.55C54.46,173.6,28.94,201.58,0,215.35v1.71c29.41-13.83,55.35-42.17,71.71-79.27,14.99-34.01,20.02-74.21,24.88-113.07,1.98-15.82,4.01-32.03,6.71-47.69h-1.31Z"/>
        <path class="cls-4" d="M82.15-22.96c-1.28,4.77-2.49,9.31-3.52,13.44-3.77,15.14-6.8,31.37-10,48.55C57.77,97.14,45.62,162.09,0,187.66v1.77c46.62-25.62,58.91-91.3,69.87-150.04,3.2-17.16,6.23-33.36,9.98-48.44,1.06-4.26,2.32-8.96,3.65-13.92h-1.35Z"/>
        <path class="cls-4" d="M49.28-22.96c-8.88,26-12.91,50.12-17.16,75.6-1.14,6.85-2.32,13.93-3.62,21.19C23.46,102,13.75,124.64,0,140.72v2.15c14.4-16.34,24.55-39.6,29.75-68.69,1.3-7.27,2.48-14.37,3.63-21.21,4.27-25.61,8.32-49.83,17.3-75.93h-1.4Z"/>
        <g>
          <path class="cls-4" d="M732.6-12.45c13.08,7.28,26.61,14.83,41.52,15.71,4.62.39,9.45.58,14.35.58,13.83,0,28.83-1.5,47.21-4.71,22.93-4,44.63-11.19,66.14-22.1h-3.45c-20.44,10.03-41.1,16.7-62.86,20.5-18.33,3.21-33.27,4.69-47.04,4.69-4.88,0-9.68-.19-14.28-.57-14.67-.87-28.09-8.35-41.06-15.57-5.39-3-10.97-6.11-16.57-8.72-.25-.12-.51-.21-.76-.32h-4.37c1.61.52,3.16,1.13,4.69,1.83,5.56,2.59,11.12,5.68,16.49,8.68Z"/>
          <path class="cls-4" d="M1181.83-22.96c-1.5,18.53-10.38,36.63-26.75,54.73-27.42,30.31-59.12,46.11-92.7,62.84-14.3,7.13-29.08,14.49-43.34,23.03-25.6,15.31-46.09,35.71-64.55,64.18-3.7,5.72-7.39,11.65-10.95,17.4-13.05,21.02-26.56,42.77-44.04,58.85-17.23,15.86-39.25,24.95-60.42,24.95-33.21,0-57.16-21.42-65.7-58.75-4.12-18.01-5.55-37.08-6.92-55.52-1.22-16.3-2.48-33.17-5.59-49.35-5.44-28.31-15.3-67.43-37.89-80.22-11.97-6.77-25.59-9.79-44.15-9.79-7.33,0-14.76.45-21.95.89-5.11.31-10.39.63-15.48.78h-.17c-5.84,0-52.08-5.63-55.62-17.56-.6-2.01.16-4.13,2.37-6.52,10.48-14.33,36.06-18.95,54.75-22.32,4.12-.75,8.02-1.45,11.3-2.18,3.18-.71,6.43-1.51,9.73-2.33,4.4-1.09,8.87-2.19,13.37-3.11h-7.34c-2.1.5-4.2,1.01-6.28,1.53-3.29.81-6.53,1.62-9.69,2.32-3.27.73-7.16,1.43-11.27,2.17-18.88,3.41-44.73,8.08-55.46,22.77-2.58,2.78-3.48,5.55-2.68,8.24,4.05,13.62,52.85,18.6,56.83,18.6h.2c5.09-.15,10.39-.47,15.51-.78,7.17-.44,14.59-.89,21.88-.89,18.37,0,31.83,2.97,43.62,9.64,22.08,12.49,31.79,51.14,37.17,79.13,3.08,16.07,4.34,32.87,5.55,49.12,1.38,18.51,2.81,37.65,6.96,55.8,8.71,38.08,33.11,59.92,66.94,59.92,21.44,0,43.74-9.2,61.19-25.26,17.62-16.22,31.18-38.04,44.29-59.16,3.56-5.74,7.24-11.66,10.94-17.37,18.33-28.28,38.69-48.54,64.09-63.75,14.24-8.52,29-15.88,43.28-22.99,32.19-16.05,65.48-32.64,93.08-63.13,16.7-18.46,25.72-36.95,27.2-55.93h-1.31Z"/>
        </g>
        <path class="cls-4" d="M1160.22-22.96c-.67,13.27-5.64,26.2-14.87,38.56-27.28,36.58-64.25,53.69-100.02,70.24-4.03,1.87-8.08,3.74-12.09,5.64-42.14,19.84-71.87,47.5-99.44,92.5-18.03,29.43-48.21,78.71-84.6,78.71-5.98,0-12.03-1.32-17.98-3.94-35.73-15.69-39.59-67.63-43.01-113.45-.85-11.38-1.65-22.12-2.91-31.64-1.52-23.32-3.4-52.34,13.73-70.45,12.48-13.2,31.46-19.37,48.2-24.83,4.16-1.35,8.09-2.64,11.84-3.99,26.55-9.56,50.14-22.1,73.23-37.35h-2.8c-22.32,14.55-45.18,26.58-70.78,35.81-3.74,1.34-7.66,2.62-11.81,3.97-16.87,5.49-36,11.73-48.71,25.16-17.63,18.64-15.72,48.11-14.17,71.87,1.26,9.52,2.06,20.25,2.91,31.6,3.28,44.01,7.36,98.79,43.87,114.82,6.08,2.67,12.27,4.02,18.4,4.02h0c37.02,0,67.44-49.66,85.62-79.34,27.41-44.73,56.98-72.25,98.85-91.97,4.03-1.9,8.08-3.77,12.11-5.63,35.89-16.62,73.02-33.8,100.52-70.65,9.45-12.68,14.55-25.98,15.22-39.66h-1.3Z"/>
        <path class="cls-4" d="M1594.58-22.96h-1.91c11.95,13.56,21.22,29.68,20.89,51.19-.87,55.88-34.22,106-89.2,134.08-10.55,5.39-21.86,10.16-32.78,14.77-35.58,15.01-72.36,30.53-94.45,70.74-7.02,12.74-13.5,26.44-19.76,39.69-19.3,40.79-39.27,82.97-77.16,102.54-10.95,5.66-19.84,8.3-28.02,8.3-12.08,0-23.14-5.98-34.81-18.82-21.53-23.7-34.91-49.05-39.73-75.32-3.94-29.28,7.77-55.29,35.75-79.53,6.83-5.9,14.36-11.47,21.64-16.85,28.56-21.1,58.09-42.9,55.01-91.84-.7-11.03-2.5-22.14-4.23-32.88-2.84-17.5-5.78-35.6-3.97-53.69,2.09-20.79,11.95-37.79,24.06-52.37h-1.84c-11.86,14.53-21.42,31.47-23.48,52.17-1.84,18.35,1.11,36.57,3.97,54.2,1.73,10.7,3.53,21.76,4.22,32.69,3.01,47.95-26.17,69.5-54.39,90.34-7.3,5.4-14.86,10.97-21.72,16.92-28.44,24.61-40.31,51.14-36.28,81.15,4.91,26.66,18.41,52.3,40.16,76.22,11.91,13.11,23.24,19.21,35.66,19.21,8.34,0,17.41-2.68,28.52-8.41,38.28-19.77,58.36-62.19,77.77-103.2,6.25-13.23,12.73-26.91,19.72-39.61,21.86-39.76,58.42-55.19,93.8-70.12,10.95-4.62,22.28-9.4,32.86-14.8,55.47-28.32,89.13-78.99,90-135.53.34-21.52-8.59-37.67-20.27-51.23Z"/>
        <path class="cls-4" d="M474.94,82.72c-2.31-1.62-4.47-3.13-6.41-4.53-16.98-12.23-34.7-24.1-54.18-36.28-7.64-4.78-15.81-10.02-23.78-15.97-3.81-2.83-7.47-6.51-11.34-10.4-5.03-5.05-10.23-10.28-15.92-13.65-7.49-7.96-15.06-16.52-22.42-24.86h-9.59c1.39,1.57,2.77,3.14,4.16,4.7,7.84,8.89,15.97,18.1,24.02,26.64l.34.36.41.22c5.13,2.94,10.14,7.98,14.98,12.85,3.88,3.89,7.88,7.91,12.07,11.04,8.16,6.08,16.45,11.41,24.2,16.25,19.36,12.12,36.97,23.91,53.84,36.07,1.96,1.41,4.13,2.93,6.47,4.57,24.17,16.95,64.64,45.32,55.54,79.91-4.98,18.92-16.09,33.06-29.73,37.82-1.79.63-3.67.95-5.59.95h0c-10.56,0-23.02-9.32-37-27.71-9.75-12.81-18.63-27.07-27.23-40.86-13.3-21.33-27.05-43.39-44.48-61.01-21.99-22.22-53.52-24.11-84.02-25.92-40.59-2.43-78.94-4.7-93.11-52.71-.95-7.58-1.05-15.43-.39-23.17h-6.44c-.66,8.32-.53,16.72.52,24.84l.16.73c15.55,53.37,57.94,55.9,98.94,58.34,29.47,1.76,59.93,3.57,80.28,24.15,16.86,17.03,30.38,38.72,43.45,59.7,8.7,13.94,17.68,28.36,27.64,41.45,15.25,20.04,29.27,30.21,41.66,30.21h0c2.51,0,4.97-.42,7.33-1.24,15.7-5.49,28.45-21.58,34.1-43.06,10.76-40.88-32.6-71.27-58.5-89.44Z"/>
        <path class="cls-4" d="M1133.05-22.96c-.55,13.15-5.55,26.21-14.75,37.89-23.17,29.44-54.86,42.16-85.5,54.46-4.55,1.82-9.06,3.64-13.55,5.5-39.36,16.37-65.52,37.67-87.45,71.24-2.6,3.98-5.64,9.06-8.86,14.43-15.57,26.02-39.1,65.34-63.63,65.33-5.04,0-9.99-1.68-14.71-4.99-21.48-15.08-24.82-44.57-28.04-73.1-.55-4.78-1.1-9.73-1.73-14.36-2.95-55.05,18.33-76.84,56.07-95.89,38.04-19.19,68.45-38.14,97.04-60.53h-2.42c-28.01,21.76-57.9,40.28-95.09,59.04-38.3,19.31-59.88,41.46-56.88,97.57.63,4.67,1.16,9.39,1.73,14.39,3.27,28.92,6.64,58.81,28.69,74.27,4.91,3.45,10.07,5.19,15.34,5.19h0c25.16,0,48.93-39.7,64.66-65.98,3.35-5.59,6.24-10.42,8.83-14.39,21.77-33.31,47.75-54.45,86.86-70.72,4.47-1.86,9-3.67,13.53-5.49,30.8-12.37,62.64-25.15,86.03-54.87,9.3-11.81,14.45-25.44,15.05-39.02h-1.22Z"/>
        <path class="cls-4" d="M1553-22.96c19.09,21.73,26.58,43.69,26.37,76.51-4.39,29.9-20.5,51.58-33.27,64.53-25.03,25.38-56.25,36.42-86.45,47.08-18.76,6.63-38.16,13.49-56.09,23.72-24.81,14.16-31.03,36.99-38.22,63.41-1.13,4.14-2.28,8.41-3.55,12.79-6.41,22.11-16.14,50.03-34.91,69.94-13.84,14.68-30.56,22.76-47.06,22.76h0c-26.44,0-48.08-19.87-57.97-53.18-.61-29.16,6.3-46.22,25.36-62.81,11.58-10.06,24.73-17.66,37.45-25,3.75-2.16,7.48-4.31,11.19-6.53l2.19-1.3c18.66-11.13,37.95-22.66,41.72-52.23l.06-.45-.03-.46c-.98-18.04-4.72-35.51-8.34-52.41-2.61-12.18-5.3-24.79-6.89-37.35-4.84-38.33,8.91-67.66,27.03-89.02h-9.02c-.39.51-.78,1-1.16,1.51-19.5,26.53-27.3,56.39-23.22,88.77,1.64,12.97,4.39,25.79,7.05,38.18,3.5,16.37,7.12,33.31,8.11,50.41-3.38,25.08-20.25,35.15-38.09,45.8l-2.19,1.31c-3.67,2.19-7.38,4.33-11.09,6.48-12.98,7.49-26.41,15.23-38.44,25.71-21.02,18.28-28.89,37.98-28.11,70.29l.02.65.19.6c10.78,36.99,34.77,59.08,64.17,59.08h.02c18.03,0,36.22-8.77,51.22-24.67,19.92-21.15,30.12-50.3,36.8-73.34,1.28-4.44,2.45-8.75,3.59-12.93,7.25-26.69,12.5-45.97,34.8-58.69,17.48-9.98,36.64-16.75,55.17-23.3,30.83-10.89,62.7-22.15,88.76-48.58,13.66-13.85,30.92-37.18,35.6-69.68l.05-.67c.25-32.17-6.72-55.37-23.56-76.93h-9.25Z"/>
        <path class="cls-4" d="M1920,18.65c-21.94,15.63-44.06,29.09-70.91,34.8-18.72,2.91-38.08,5.93-56.55-1.07-5-1.89-8.06-4.79-9.12-8.63-2.14-7.78,4.14-18.97,8.31-26.38,7.94-14.14,18.33-27.8,30.5-40.33h-2.01c-11.77,12.29-21.8,25.62-29.55,39.41-5.7,10.16-10.64,19.93-8.47,27.84,1.2,4.35,4.56,7.6,9.97,9.64,8.52,3.22,17.19,4.35,25.88,4.35,10.45,0,20.94-1.63,31.24-3.24,26.81-5.69,48.89-19.02,70.72-34.54v-1.85Z"/>
        <path class="cls-4" d="M1528.64-22.96h-2.01c16.34,15.91,27.94,36.97,28.83,62.19,2.11,59.88-51.36,94.33-102.09,106.6-14.24,3.45-25.11,4.98-35.25,4.98h0c-15,0-27.69-3.54-38.64-10.73-20.22-22.35-32.05-48.38-36.17-79.58-2.52-22.81,2.72-45.05,15.14-64.32,4.42-6.86,9.77-13.27,15.75-19.13h-2.08c-5.55,5.58-10.52,11.66-14.67,18.12-12.66,19.63-17.98,42.3-15.42,65.58,4.19,31.6,16.15,57.94,36.73,80.65,11.27,7.42,24.14,11.02,39.36,11.02h0c10.22,0,21.17-1.54,35.48-5.01,51.27-12.4,105.3-47.34,103.14-108.24-.88-25.06-12.12-46.09-28.09-62.12Z"/>
        <path class="cls-4" d="M1107.14-22.96c.11,3.97-.36,8.24-1.47,12.8-20.27,42.14-56.73,52.37-92,62.27-19.42,5.45-39.52,11.09-56.87,21.96-17.66,11.05-30.06,30.21-42.05,48.75-5.48,8.46-11.15,17.22-17.24,25.06-9.86,12.72-20.56,20-29.36,20-10.84,0-18.39-10.5-21.85-30.32-3.95-32.18,10.21-59.43,37.87-72.91,2.59-1.25,5.16-2.49,7.71-3.72,25.35-12.22,49.3-23.76,70.41-46.15,12.23-12.96,24.67-26.14,38.08-37.74h-2.25c-12.88,11.31-24.87,24.01-36.66,36.51-20.94,22.2-44.79,33.7-70.03,45.86-2.56,1.24-5.13,2.48-7.71,3.74-28.26,13.76-42.72,41.67-38.67,74.69,4.56,26.15,15.09,31.63,23.12,31.63h0c9.27,0,20.03-7.27,30.28-20.49,6.12-7.89,11.81-16.67,17.31-25.18,11.9-18.39,24.21-37.41,41.62-48.32,17.21-10.78,37.23-16.39,56.57-21.83,35.53-9.96,72.27-20.28,92.88-63.18,1.19-4.8,1.69-9.28,1.59-13.45h-1.28Z"/>
        <path class="cls-4" d="M1497.97-22.96h-2.98c16.03,9.32,29.67,24.6,36.27,47.68,5.34,18.74,3.39,37.11-5.64,53.13-15.47,27.42-49.91,45.84-85.7,45.83h-.03c-38.73,0-66.75-21.72-74.95-58.08-4.94-23.17-1.95-44.5,8.59-61.67,6.84-11.12,16.75-20.26,28.55-26.89h-3.08c-10.88,6.6-20.02,15.39-26.48,25.91-10.81,17.59-13.86,39.4-8.81,63.08,8.36,37.1,36.84,59.26,76.19,59.27h.03c36.19,0,71.06-18.7,86.75-46.52,9.28-16.47,11.3-35.35,5.81-54.59-6.39-22.38-19.25-37.56-34.5-47.15Z"/>
        <path class="cls-4" d="M275.92-22.96h-2.56c3.23,2.09,5.96,4.84,7.56,8.23,1.93,4.1,1.87,8.52-.18,13.16-3.27,7.38-9.95,8.48-13.65,8.48h0c-8.42,0-18.63-5.73-21.15-15.4-2.11-5.55-2.33-10.05-.65-13.37.2-.39.44-.75.69-1.1h-1.62c-.05.09-.1.16-.15.24-1.93,3.82-1.74,8.83.54,14.82,2.67,10.27,13.46,16.41,22.34,16.41h0c6.76,0,12.15-3.39,14.77-9.31,2.26-5.09,2.31-10.2.17-14.75-1.38-2.92-3.53-5.4-6.11-7.41Z"/>
        <path class="cls-4" d="M1443.73,93.41h0c-25.97,0-45.22-14.12-51.5-37.77l-.03-.22c-.59-21.42,1.63-35.62,15.05-49.28,9.14-9.33,21.39-15.23,34.5-16.63,1.98-.21,4.02-.31,6.03-.31,18.83,0,42.81,9.58,53.66,36.5,5.13,12.72,4.95,25.28-.48,36.34-9.11,18.47-32.63,31.37-57.22,31.37ZM1393.48,55.24c6.12,22.9,24.89,36.56,50.25,36.56s47.25-12.58,56.12-30.61c5.19-10.55,5.34-22.57.42-34.76-10.58-26.27-34.05-35.63-52.5-35.63-1.97,0-3.97.11-5.92.31-12.84,1.36-24.86,7.14-33.8,16.26-12.97,13.22-15.14,27.03-14.58,47.86Z"/>
        <path class="cls-4" d="M1920,312.3c-5.2,3.07-10.44,6.31-14.92,10.12-3.03,2.56-6.03,5.17-9.05,7.78-9.97,8.67-20.3,17.64-31.28,24.7-17.22,11.06-35.56,11.11-53.3,11.16-15.31.04-31.14.08-46.02,7.16-18.75,3.22-32.2,17.26-45.22,30.84-9.11,9.5-18.53,19.32-29.61,25.41-10.92,2.53-21.95-1.04-31.89-10.31-13.39-12.48-23.17-33.87-24.94-54.49-3.37-39.48,18.48-73.29,37.77-103.11l1.98-3.06c13.84-21.46,24.3-38.02,33.89-53.71,2.73-4.48,5.48-9.45,8.39-14.72,7.47-13.55,15.2-27.55,24.36-36.09l.14-.18c18.81-31.83,48.16-53.39,89.72-65.92,35.55-10.71,64.78-22.82,89.97-37.35v-1.78c-25.23,14.63-54.55,26.8-90.27,37.57-41.83,12.6-71.39,34.34-90.41,66.43-9.3,8.71-17.06,22.78-24.58,36.4-2.89,5.25-5.63,10.21-8.34,14.65-9.59,15.69-20.05,32.25-33.89,53.68l-1.97,3.06c-19.44,30.07-41.47,64.14-38.05,104.29,1.8,21.05,11.78,42.88,25.45,55.61,8.06,7.53,16.84,11.41,25.8,11.41,2.39,0,4.81-.28,7.23-.85,11.38-6.23,20.88-16.14,30.06-25.71,13.47-14.04,26.19-27.31,44.7-30.51,14.8-7.02,30.52-7.06,45.7-7.1,17.89-.05,36.39-.1,53.88-11.34,11.06-7.12,21.42-16.11,31.45-24.82,2.99-2.6,5.99-5.21,9.02-7.77,4.25-3.6,9.22-6.71,14.2-9.67v-1.77Z"/>
        <path class="cls-4" d="M751.31,1098.17c-10.61,0-21.07-6.88-30.26-19.91l-.09-.18c-12.26-30.39-10.92-65.04-8.27-100.82,2.4-32.67,4.61-70.48.34-105.85-3.2-26.49-13.87-50.32-24.2-73.36-2.09-4.67-4.19-9.34-6.2-14-19.97-46.13-5.37-90.97,8.76-134.33,6.53-20.06,13.29-40.81,16.63-61.54,12.2-75.72-28.34-135.86-70.36-166.89-10.5-7.75-19.56-12.92-29.67-12.92-3.94,0-7.81.78-11.82,2.39-3.33,1.33-6.7,2.8-9.97,4.21-8.46,3.66-17.2,7.44-26.2,9.49-3.73.85-7.34,1.28-10.7,1.28h0c-21.95,0-35.39-17.82-38.88-51.52.21-3.16.35-6.28.48-9.3.58-13.35,1.18-27.16,8.59-37.68l.11-.17.17-.07c.81-.34,1.72-.52,2.7-.52,8.2,0,20.82,12,30.05,20.76,3.27,3.11,6.09,5.78,8.11,7.36,15.92,12.42,32.38,25.26,49.84,25.26,8.21,0,16.23-2.72,24.52-8.32,9.83-6.62,19.26-14.58,28.37-22.26,9.84-8.31,20.02-16.89,30.77-23.87,14.23-9.23,28.3-13.53,44.3-13.53,12.34,0,25,2.55,36.84,5.31,18.08,4.22,33.04,6.18,47.09,6.18,12.63,0,24.37-1.6,35.86-4.87,44.68-12.75,71.81-49.47,100.54-88.34,12.53-16.96,25.49-34.5,40.07-49.95,24.67-26.18,55.34-41.3,85.02-55.92,20.37-10.04,41.45-20.43,60.34-34.3,1.7-1.36,3.5-2.8,5.34-4.29,21.98-17.69,52.39-42.16,78.12-40.21,21.3,8.28,34.97,33.7,34.95,64.82-.01,38.58-25.48,59.32-47.95,77.62-22.33,18.18-39.09,35.34-53.67,64.6-9.44,28.54-3.73,58.49,1.78,87.45,1.44,7.55,2.92,15.36,4.09,22.95,6.37,41.34-20.44,55.61-44.09,68.22-8.52,4.54-17.5,8.75-27,13.2-40.89,19.14-87.22,40.84-101.95,95.65-7.09,26.35-1.09,53.24,4.7,79.24,1.73,7.77,3.53,15.81,4.92,23.63,6.2,35.01,2.41,64.23-11.59,89.33-15.12,27.12-37.51,44.46-59.16,61.23-24.37,18.9-49.59,38.43-64.3,71.99-8.2,18.72-14.51,38.92-20.61,58.46-4.54,14.51-9.24,29.53-14.67,43.87-13.7,36.08-28.24,69-43.2,97.86-10.9,21.02-24.63,32.59-38.63,32.59ZM722.07,1077.29c9.05,12.8,18.89,19.28,29.24,19.28,13.56,0,26.9-11.32,37.55-31.87,14.92-28.81,29.43-61.65,43.11-97.69,5.42-14.28,10.11-29.26,14.63-43.75,6.12-19.58,12.44-39.82,20.69-58.63,14.87-33.94,40.23-53.59,64.75-72.59,21.53-16.7,43.8-33.94,58.78-60.8,13.78-24.7,17.5-53.51,11.37-88.05-1.37-7.78-3.16-15.8-4.89-23.55-5.84-26.23-11.91-53.35-4.69-80.18,14.92-55.55,61.56-77.39,102.72-96.66,9.5-4.44,18.45-8.64,26.95-13.17,23.2-12.36,49.52-26.38,43.33-66.43-1.17-7.56-2.64-15.34-4.08-22.88-5.56-29.21-11.31-59.42-1.67-88.55,14.75-29.64,31.63-46.91,54.11-65.23,23.28-18.95,47.36-38.56,47.38-76.27,0-30.4-13.3-55.22-33.91-63.25-.8-.03-1.75-.07-2.72-.07-24.67,0-53.45,23.16-74.47,40.07-1.86,1.49-3.64,2.93-5.37,4.31-19,13.95-40.12,24.36-60.55,34.43-29.56,14.57-60.14,29.65-84.66,55.65-14.52,15.4-27.45,32.89-39.95,49.82-28.87,39.06-56.12,75.95-101.2,88.82-11.59,3.3-23.41,4.91-36.15,4.91-14.12,0-29.16-1.97-47.32-6.19-11.78-2.75-24.37-5.29-36.61-5.29-15.79,0-29.68,4.25-43.71,13.35-10.69,6.94-20.83,15.5-30.64,23.77-9.14,7.71-18.59,15.68-28.47,22.35-8.49,5.72-16.71,8.5-25.14,8.5-17.83,0-34.45-12.96-50.52-25.51-2.07-1.62-4.91-4.31-8.21-7.44-9.08-8.62-21.51-20.43-29.27-20.43-.78,0-1.49.13-2.14.37-7.01,10.09-7.59,23.53-8.16,36.54-.13,3.04-.27,6.18-.48,9.17,2.36,22.69,10.8,49.95,37.59,49.95h0c3.28,0,6.8-.42,10.47-1.25,8.9-2.03,17.59-5.79,26.01-9.43,3.27-1.41,6.66-2.87,10-4.22,4.15-1.66,8.14-2.47,12.21-2.47,10.4,0,19.64,5.25,30.33,13.14,42.4,31.31,83.31,92.04,70.96,168.58-3.37,20.89-10.15,41.7-16.7,61.84-14.66,45-28.5,87.5-8.82,132.95,2.01,4.67,4.1,9.32,6.2,13.99,10.38,23.17,21.12,47.13,24.34,73.91,4.28,35.55,2.07,73.48-.34,106.22-2.62,35.53-3.96,69.89,8.1,99.89Z"/>
        <path class="cls-4" d="M1920,270.73c-9.17,3.97-18.45,9.5-27.11,14.67-5.69,3.4-11.05,6.59-15.99,9.13-24.81,12.73-47.09,19.15-72.27,20.83-1.47.1-3.37.25-5.64.45-20.64,1.76-75.48,6.46-86.84-15.76-3.24-6.34-2.69-14.57,1.69-24.57,17.7-58.9,48-108.42,83.14-135.85,26.59-20.76,57.53-33.75,87.44-46.32,11.78-4.95,23.8-10.01,35.58-15.54v-1.72c-11.91,5.62-24.06,10.73-35.98,15.74-29.98,12.6-61,25.64-87.72,46.49-35.36,27.61-65.86,77.42-83.61,136.54-4.58,10.46-5.13,19.24-1.61,26.11,7.59,14.84,32.5,18.21,55.36,18.21,12.6,0,24.55-1.02,32.66-1.71,2.25-.2,4.16-.36,5.61-.46,25.33-1.69,47.75-8.14,72.69-20.94,4.97-2.55,10.34-5.76,16.05-9.17,8.48-5.06,17.6-10.47,26.56-14.4v-1.72Z"/>
        <path class="cls-4" d="M1920,242.48c-9.81,2.82-19.52,6.13-29.03,9.38-18.14,6.22-36.89,12.64-55.86,15.35-12.17,1.73-50.61,1.24-60.23-15.74-3.02-5.32-3.03-11.94.02-19.85,12.16-70.61,79.09-99.88,132.88-123.39,4.17-1.82,8.25-3.6,12.23-5.38v-1.7c-4.13,1.83-8.34,3.68-12.66,5.56-54.08,23.65-121.39,53.07-133.66,124.38-3.22,8.31-3.17,15.48.14,21.31,8.09,14.29,33.67,17.02,49.55,17.02,5.5,0,9.84-.33,11.88-.62,19.06-2.72,37.88-9.16,56.06-15.39,9.41-3.23,19-6.49,28.69-9.28v-1.66Z"/>
        <path class="cls-4" d="M771.34,968.09h0c-17.92,0-19.49-36.13-20.52-60.03-.15-3.39-.28-6.51-.45-9.2-.8-28.48-7.02-59-17.07-83.8-2.45-6.06-5.11-12.11-7.92-18.51-11.37-25.9-23.12-52.67-22.13-81.64.87-25.52,6.99-50.11,12.92-73.89,2.15-8.62,4.37-17.52,6.3-26.33,8.63-39.34,8.55-75.81-.25-108.4-4.29-15.91-10.16-31.31-15.83-46.2-5.66-14.87-11.52-30.24-15.82-46.15l-.05-.17.02-.19c.2-2.06.37-4.06.54-5.99,1.34-15.37,2.3-26.47,13.44-39,9.69-10.89,22.77-18.16,38.88-21.62,13.09-2.81,26.2-3.21,38.41-3.21,3.31,0,6.63.04,9.94.07,3.31.03,6.62.06,9.94.06,10.04,0,21.87-.26,33.45-2.25,67.98-11.64,110.7-65.23,155.91-121.96,30.89-38.75,72.75-58.91,113.24-78.4,21.56-10.38,43.84-21.12,64.02-34.48,10.08-6.96,22.05-11.12,32.01-11.12,9.34,0,16.33,3.51,20.22,10.14,4.22,7.2,4.64,17.65,1.25,31.07l-.09.23c-9.67,16.78-23.47,28.33-36.81,39.51-10.11,8.46-20.56,17.21-29.11,28.16-18,23.69-25.58,58.01-21.36,96.63.59,5.34,1.39,10.86,2.23,16.71,3.99,27.57,8.5,58.84-8.98,79.9-17.67,18.58-39.23,30.7-60.11,42.42-27.53,15.47-56,31.46-75.5,62.39-17.27,27.41-21.54,58.73-13.42,98.56,1.01,5.02,2.17,10.18,3.28,15.18,5.7,25.54,11.58,51.95,5.3,78.17-10.77,44.94-44.66,66.39-77.43,87.14-17.13,10.84-34.84,22.06-48.43,36.37-18.69,19.68-29.19,46.78-39.34,72.98-10.14,26.18-20.63,53.26-39.27,72.85-4.27,2.69-8.05,3.99-11.38,3.99ZM691.83,413.61c4.28,15.75,10.09,31.02,15.71,45.8,5.69,14.94,11.57,30.39,15.89,46.38,8.88,32.9,8.98,69.69.27,109.35-1.94,8.82-4.16,17.75-6.3,26.38-5.91,23.69-12.01,48.18-12.88,73.49-.98,28.52,10.7,55.09,21.98,80.79,2.81,6.42,5.48,12.48,7.94,18.56,10.28,25.36,16.39,55.34,17.21,84.42.16,2.67.31,5.8.44,9.19,1.02,23.32,2.54,58.52,19.24,58.52h0c3.12,0,6.72-1.25,10.69-3.7,18.3-19.28,28.73-46.2,38.81-72.23,10.21-26.36,20.77-53.6,39.67-73.52,13.7-14.42,31.48-25.68,48.67-36.56,32.53-20.6,66.17-41.89,76.78-86.17,6.19-25.78.34-51.96-5.3-77.28-1.11-5-2.27-10.18-3.3-15.21-8.22-40.36-3.87-72.12,13.67-99.95,19.69-31.24,48.3-47.32,75.97-62.86,20.8-11.68,42.28-23.75,59.78-42.15,16.95-20.43,12.5-51.24,8.58-78.42-.84-5.86-1.66-11.4-2.23-16.77-4.28-39.12,3.42-73.91,21.69-97.96,8.66-11.07,19.17-19.88,29.33-28.39,13.22-11.06,26.89-22.52,36.42-39,3.24-12.85,2.86-22.77-1.08-29.51-4.6-7.84-12.97-9.49-19.19-9.49-9.75,0-21.5,4.09-31.41,10.93-20.23,13.42-42.56,24.18-64.16,34.57-40.36,19.43-82.09,39.53-112.8,78.04-45.38,56.94-88.24,110.71-156.64,122.43-11.67,1.99-23.55,2.26-33.63,2.26-3.32,0-6.63-.03-9.95-.06-3.31-.03-6.63-.06-9.93-.06-12.16,0-25.2.38-38.2,3.18-15.87,3.41-28.73,10.55-38.23,21.22-10.79,12.12-11.73,22.97-13.03,37.98-.17,1.88-.34,3.82-.52,5.82Z"/>
        <path class="cls-4" d="M21.73,603.37c5.59-38.49,10.88-74.85,19.32-111.79,8.22-35.98,16.71-73.17,22.49-110.84,1.15-3.81,2.21-7.55,3.25-11.2,6.6-23.17,11.81-41.47,30.25-53.85,5.15-3.46,10.67-6.39,16.53-9.5,14.26-7.57,29-15.4,38.56-31.38,12.78-21.37,12.84-44.96,12.9-67.77.02-11.62.05-23.63,1.79-35.22,12.16-22.95,45.4-34.44,72.62-37.53l.24-.04c31.53-6.65,61.9-2.46,85.5,11.79,49.12,29.68,80.67,88.25,100.14,129.73,13.92,29.66,22.34,57.31,26.51,87.01,1.34,9.54,2.29,19.54,3.21,29.21,2.15,22.52,4.36,45.8,11.63,67.09,20.3,59.52,59.89,49.83,98.18,40.46,8.45-2.06,17.19-4.2,25.52-5.51,25.82-4.07,50.16,4.8,65.09,23.74,12.4,15.71,17.47,37.18,14.68,62.08-6.72,59.91-48.2,113.72-84.77,144.1-1.77,1.47-4.67,3.53-8.01,5.89-15.7,11.12-39.43,27.92-40.53,46.83-.41,7.06,2.32,13.49,8.1,19.11,11.43,11.1,26.27,14.81,40.61,18.4,10.12,2.53,19.68,4.92,28.09,9.68,45.74,25.91,62.31,77.7,50.66,158.37-2.67,18.46-7.94,36.41-13.03,53.72-4.7,16.01-9.57,32.55-12.46,49.69-5.23,30.91,2.35,57.56,23.84,83.84,21.59,26.41,47.4,46.96,72.36,66.83,23.19,18.47,47.19,37.56,67.55,61.24,16,18.6,33.09,42.7,23.2,64.11l-.21.55c-6.9,21.99-13.27,45.37-20.66,75.75-6.77,27.86-17.39,35.74-38.63,42.93-23.08,7.81-45.51,16.42-66.12,35.88-26.2,24.72-41.05,59.06-55.42,92.25-7.48,17.28-15.2,35.16-24.46,51.54-2.28,4.03-4.75,8.02-7.36,11.94h8.25c1.51-2.42,2.98-4.85,4.36-7.3,9.48-16.77,17.3-34.87,24.87-52.34,14.69-33.95,28.55-66.02,53.64-89.68,19.72-18.6,40.62-26.65,63.92-34.52,22.65-7.66,35.54-17.24,43.11-48.37,7.31-30.06,13.62-53.18,20.41-74.9,13.45-29.61-13.13-60.52-24.5-73.75-20.8-24.18-45.04-43.46-68.48-62.12-24.68-19.66-50.2-39.97-71.31-65.8-20.04-24.51-26.84-48.08-22.05-76.42,2.8-16.58,7.59-32.84,12.21-48.58,5.19-17.67,10.55-35.92,13.32-55.09,12.26-84.81-5.51-139.47-54.33-167.11-9.09-5.14-19.46-7.73-29.49-10.25-14.24-3.55-27.69-6.92-37.92-16.86-4.04-3.92-5.88-7.9-5.63-12.17.85-14.62,24.56-31.4,37.28-40.41,3.46-2.45,6.44-4.57,8.41-6.19,37.73-31.35,80.56-87.13,87.57-149.69,3.09-27.47-2.61-51.27-16.47-68.83-16.34-20.72-42.68-30.46-70.47-26.07-8.55,1.34-17.4,3.51-25.95,5.6-37.42,9.16-72.77,17.8-91.03-35.72-6.9-20.23-9.06-42.92-11.15-64.88-.93-9.78-1.9-19.89-3.27-29.66-4.3-30.68-12.98-59.18-27.3-89.69-19.89-42.39-52.2-102.26-102.88-132.89-24.76-14.97-56.45-19.41-89.25-12.52-14.22,1.63-61.2,9.41-77.68,41.84l-.33.64-.12.74c-1.96,12.57-1.99,25.24-2.02,37.5-.05,22.49-.11,43.74-11.61,62.98-8.52,14.24-22.45,21.64-35.92,28.79-5.73,3.05-11.66,6.19-17.05,9.82-20.63,13.85-26.48,34.42-33.27,58.24-1.05,3.71-2.13,7.51-3.3,11.39l-.15.66c-5.73,37.43-14.21,74.57-22.41,110.48-8.52,37.32-14.09,75.58-19.46,112.56-.8,5.51-1.6,11.03-2.44,16.72C10.77,637.98,6.41,653.95,0,666.52v13.59c9.93-14.65,16.42-34.76,19.32-60.16.81-5.54,1.62-11.06,2.41-16.58Z"/>
        <path class="cls-4" d="M1522.81,603.39h0c-35.98,0-77.44-10.17-113.72-27.9-39.52-19.29-85.63-60.67-96.59-118.9-2.41-28.1,14.73-51.08,29.86-71.37,3.28-4.41,6.39-8.58,9.23-12.71,18.72-27.14,34.42-55.98,46.02-78.09,11.34-21.65,27.34-48.7,50.42-65.89,19.39-14.42,39.75-22.48,61.3-31l2.73-1.08c24.59-9.73,53.48-21.87,81.34-38.04,1.56-.92,4.33-2.98,7.84-5.59,10.77-8.03,28.8-21.48,39.58-21.48,5.95,0,9.11,3.97,9.39,11.77.75,21.66-11.24,46.32-20.84,66.14-1.76,3.62-3.44,7.08-4.95,10.34-1.41,3.01-2.81,6.02-4.24,9.04-9.73,20.77-19.8,42.26-26.34,65.28-15.08,52.98-2.14,98.37,11.58,146.43,2.94,10.33,5.98,21.02,8.76,31.81,7.95,31.06,6,62.52-5.37,86.31-10.38,21.72-27.64,35.92-49.92,41.07-11.06,2.56-23.2,3.86-36.08,3.86ZM1640.83,132.96c-10.42,0-28.27,13.29-38.92,21.24-3.53,2.63-6.33,4.72-7.97,5.66-27.92,16.22-56.86,28.38-81.48,38.13l-2.73,1.08c-21.48,8.49-41.78,16.52-61.03,30.85-22.72,16.92-38.03,42.55-50,65.38-11.63,22.15-27.36,51.06-46.13,78.27-2.86,4.15-5.97,8.33-9.27,12.76-14.94,20.02-31.86,42.73-29.53,70,10.84,57.53,56.59,98.53,95.8,117.67,36.14,17.66,77.42,27.79,113.25,27.79h0c12.8,0,24.86-1.29,35.84-3.83,21.91-5.06,38.86-19.01,49.05-40.32,11.19-23.39,13.11-54.38,5.25-84.99-2.77-10.77-5.81-21.45-8.75-31.77-13.78-48.33-26.81-93.97-11.58-147.5,6.59-23.17,16.69-44.72,26.45-65.57,1.42-3.01,2.83-6.02,4.22-9.03,1.53-3.27,3.2-6.74,4.97-10.37,9.53-19.63,21.39-44.06,20.66-65.24-.23-6.88-2.89-10.22-8.09-10.22Z"/>
        <path class="cls-4" d="M1920,192.89c-11.53.66-23.08-.55-30.49-10.82-3.08-11.88,14.38-25.04,30.49-34.69v-1.81c-17.02,10.09-35.3,23.87-31.67,37.18l.12.27c6.72,9.41,16.52,11.65,26.7,11.65,1.61,0,3.23-.07,4.84-.17v-1.61Z"/>
        <path class="cls-4" d="M649.6,902.22c-13.51-50.24-49.98-55.4-85.26-60.38-15.32-2.17-31.17-4.41-44.56-10.44-11.66-5.26-21.36-16.54-25.96-30.18-3.8-11.28-3.73-22.94.21-33.76,9.95-27.94,26.77-47.5,51.45-59.8,46.85-23.36,109.01-63.13,107.82-138.52-.3-18.94-4.98-32.88-13.91-41.42-20.83-19.93-60.63-7.5-89.7,1.58-7.08,2.22-13.78,4.3-19.2,5.59-48.71,11.58-74.37-39.08-81.55-85.97-3.28-21.43-5.67-43.53-7.99-64.9-1.67-15.51-3.41-31.56-5.47-47.19l-.06-.25c-4.69-10.98-8.52-22.4-12.21-33.44-5.41-16.15-11-32.85-19.38-48.42-34.74-64.52-73.47-100.05-115.12-105.61-18.09-2.42-51.82-1.9-74.53,28.71-13.1,17.66-17.37,41.42-21.49,64.4-.62,3.45-1.23,6.88-1.88,10.26-6.83,36-18.51,58.48-37.88,72.87-7.77,5.77-15.88,10.05-23.74,14.19-14.53,7.66-28.26,14.91-39.9,30.76-15.59,21.21-23.24,51.87-30,78.93-.92,3.67-1.83,7.29-2.73,10.85-7.97,31.05-16.82,67.21-20.98,103.43-1.12,9.75-1.75,21-2.43,32.92C30.74,639.3,27.8,690.96,0,711.96v1.94c28.99-20.98,31.98-73.68,34.45-117.39.67-11.88,1.31-23.11,2.41-32.8,4.15-36.09,12.98-72.17,20.93-103.16.91-3.55,1.82-7.18,2.74-10.86,6.72-26.89,14.33-57.38,29.72-78.32,11.45-15.59,25.05-22.77,39.46-30.37,7.89-4.16,16.05-8.46,23.89-14.29,19.7-14.64,31.57-37.42,38.48-73.88.65-3.39,1.27-6.82,1.88-10.28,4.09-22.77,8.31-46.31,21.18-63.65,22.33-30.11,55.6-30.6,73.44-28.21,41.26,5.5,79.67,40.8,114.19,104.9,8.31,15.44,13.88,32.06,19.27,48.14,3.7,11.03,7.52,22.45,12.21,33.46,2.05,15.57,3.77,31.56,5.44,47.01,2.31,21.4,4.7,43.53,7.99,64.99,4.23,27.64,13.81,51.54,26.98,67.33,15.16,18.14,34.54,25.04,56.06,19.93,5.46-1.3,12.17-3.4,19.27-5.61,28.81-9,68.27-21.32,88.61-1.87,8.6,8.23,13.11,21.75,13.4,40.18,1.17,74.38-60.51,113.8-107.01,136.98-25.01,12.47-42.06,32.31-52.15,60.64-4.09,11.23-4.16,23.35-.22,35.04,4.73,14.05,14.72,25.66,26.71,31.07,13.51,6.1,29.44,8.35,44.84,10.53,34.88,4.93,70.93,10.03,84.18,59.3,13.53,50.33-4.41,126.19-36.9,156.11-21.68,19.95-42.59,5.04-61.95-14.04-23.39-23.06-47.71-42.76-72.29-58.54-20.12-12.92-42.76-16.5-64.66-19.97-22.73-3.6-46.25-7.32-66.3-21.68-15.65-11.2-25.88-30.97-35.79-50.08-1.99-3.86-4.05-7.83-6.09-11.61-12.97-23.98-27.22-48.93-46.2-67.44-41.3-40.25-92.38-33.39-141.44-19.99-38.79,10.6-64.59,46.45-79.39,74.66-5.44,10.34-10.1,22.22-14.62,33.72C16.17,920.6,9.45,937.71,0,951.4v2.42c10.06-14.06,17.07-31.83,23.91-49.24,4.5-11.44,9.15-23.28,14.53-33.54,14.68-27.95,40.23-63.48,78.6-73.97,48.76-13.31,99.51-20.16,140.37,19.69,18.84,18.36,33.02,43.2,45.94,67.07,2.03,3.78,4.09,7.73,6.08,11.59,9.98,19.26,20.31,39.21,36.23,50.61,20.27,14.51,43.92,18.25,66.79,21.88,21.78,3.45,44.31,7.01,64.23,19.79,24.5,15.74,48.75,35.37,72.09,58.38,13.08,12.89,26.86,23.9,41.18,23.9,7.3,0,14.75-2.86,22.31-9.82,32.89-30.29,51.04-107.02,37.36-157.92Z"/>
        <path class="cls-4" d="M606.64,889.13c-17.73-15.2-41.7-16.07-64.88-16.95-32.29-1.19-62.8-2.32-78.46-38.39-20.44-47.02,9.9-115.15,33.82-147.05,7.84-10.45,16.47-19.06,25.67-25.6,5.76-4.1,12.09-6.26,18.2-8.37,5.19-1.78,10.58-3.62,15.53-6.63,23.03-5.18,56.14-26.5,57.82-57.78.53-9.91-1.76-17.25-6.8-21.81-9.41-8.5-27.39-5.42-40.12,1.04-4.92,2.5-9.84,5.49-14.6,8.39-15.85,9.62-32.23,19.59-50.58,12.43-43.7-17.06-68.33-84.63-73.34-144.02-.44-5.22-.87-10.38-1.28-15.49-4.66-57.18-8.68-106.57-34.3-157.6-15.76-31.38-58.73-103.43-117.26-94.97-38.52,5.56-47.69,44.28-56.55,81.72-1.92,8.12-3.91,16.53-6.2,24.53-4.52,26-10.73,55.18-27.2,72.31-10.84,11.28-24.17,15.33-37.07,19.26-9.67,2.94-19.67,5.98-28.74,12.03-34.91,23.26-47.78,72.8-59.13,116.5l-1.04,3.97c-9.95,38.23-10.02,78.07-10.08,116.6-.02,12.77-.04,25.98-.42,39.1-.67,23.24-1.51,52.15-12.64,71.93C28.74,748.98,14.8,753.65,0,754.75v1.64c13.91-1.1,29.35-5.69,38.07-21.17,11.35-20.16,12.2-49.34,12.88-72.9.37-13.04.4-26.26.42-39.05.06-38.4.13-78.12,10.02-116.11l1.03-3.97c11.28-43.42,24.06-92.62,58.52-115.58,8.92-5.95,18.84-8.97,28.44-11.89,13.04-3.96,26.52-8.06,37.59-19.58,16.77-17.44,23.06-46.93,27.6-73.09,2.27-7.96,4.27-16.38,6.2-24.53,8.74-36.93,17.78-75.12,55.46-80.56,57.82-8.36,100.4,63.11,116.01,94.23,25.47,50.71,29.48,99.92,34.12,156.9.42,5.1.84,10.26,1.28,15.49,5.06,59.91,29.97,128.1,74.24,145.37,18.83,7.35,35.44-2.75,51.52-12.51,4.74-2.87,9.64-5.85,14.52-8.34,12.41-6.3,29.87-9.37,38.88-1.23,4.65,4.21,6.76,11.07,6.26,20.4-1.62,30.44-34.22,51.26-56.84,56.31l-.17.07c-4.87,2.98-10.22,4.81-15.39,6.58-6.2,2.12-12.6,4.32-18.5,8.51-9.31,6.62-18.05,15.33-25.97,25.9-24.16,32.23-54.77,101.15-34.01,148.91,16.02,36.88,48.32,38.09,79.55,39.24,23,.86,46.77,1.73,64.2,16.66,20.24,17.34,24.95,51.21,20.65,77.08-4.8,28.83-19.52,48.91-39.37,53.68-21.12,5.08-44.15-13.26-62.65-28.03-1.77-1.42-3.49-2.81-5.16-4.11-3.77-2.96-7.53-5.98-11.29-9-15.53-12.47-31.59-25.34-48.92-34.52-13.47-7.11-27.8-10.17-41.66-13.11-11.13-2.36-22.65-4.81-33.62-9.35-25.75-10.68-42.9-30.89-57.59-51.15-4.45-6.14-8.8-12.39-13.41-19.01-26.64-38.28-54.19-77.87-94.88-85.94-23.05-10.94-54.66-6.39-80.06-2.73-4,.57-7.87,1.14-11.56,1.62-5.17.66-10.59,1.07-16.33,1.49-17.94,1.33-36.49,2.71-51.29,12.39-16.08,10.54-24.32,30.45-32.29,49.72-1.78,4.3-3.62,8.77-5.48,12.95-4.57,9.13-8.74,19.02-12.78,28.57C5.55,877.32,2.85,883.71,0,889.98v3.23c3.28-7.07,6.34-14.32,9.36-21.46,4.02-9.53,8.19-19.38,12.74-28.51,1.9-4.24,3.74-8.71,5.53-13.02,7.87-19.04,16.01-38.73,31.74-49.03,14.55-9.52,32.96-10.89,50.77-12.21,5.75-.43,11.19-.83,16.38-1.5,3.69-.48,7.56-1.03,11.57-1.62,25.26-3.64,56.7-8.17,79.59,2.67,40.35,8.03,67.74,47.39,94.23,85.45,4.61,6.64,8.97,12.9,13.42,19.03,14.81,20.44,32.11,40.81,58.14,51.6,11.07,4.6,22.63,7.05,33.81,9.43,13.79,2.92,28.04,5.96,41.38,12.99,17.23,9.12,33.24,21.97,48.73,34.4,3.77,3.02,7.52,6.04,11.3,9,1.67,1.3,3.39,2.69,5.16,4.09,16.5,13.17,36.56,29.18,55.9,29.18,2.58,0,5.15-.29,7.69-.92,20.38-4.91,35.48-25.44,40.38-54.93,5.28-31.73-3.24-63.36-21.18-78.73Z"/>
        <path class="cls-4" d="M796.61,816.8h0l-1.12-.03c-33.11-5.05-54.51-57.97-60.28-74.06-12.31-34.32-8.05-66.82-2.17-99.85,6.33-35.58,12.87-72.36,7.77-110.64-2.57-19.3-7.02-38.48-11.33-57.04-3.16-13.63-6.44-27.72-8.97-41.86l-.05-.41c-3.55-37.58,16.5-61.14,59.6-70.03,9.6-1.98,19.27-3.56,28.63-5.09,23.95-3.93,46.55-7.63,69.27-17.51,36.27-15.8,62.92-44.67,91.13-75.26,11.55-12.52,23.48-25.46,36.14-37.42,21.53-22.36,49.22-36.67,75.84-39.14,10.06-.93,17.8,1.96,23.08,8.59,9.33,11.72,9.25,32.86,9.19,51.5-.02,5.86-.05,11.4.2,16.43.53,10.71,2.11,21.83,3.64,32.57,2.97,20.94,6.06,42.6,2.08,64.06-6.27,33.86-31.12,50.21-53.06,64.62l-6.67,4.38c-44.7,29.35-100.34,65.85-98.08,136.22.52,16.3,4.05,32.44,7.48,48.05,3.63,16.59,7.4,33.74,7.74,51.58.58,29.18-13.37,48.39-27.73,65.58-14.01,18.92-37.99,29.81-59.16,39.41-6.95,3.16-13.52,6.14-19.34,9.23-6.41,3.39-13.16,7.87-20.32,12.61-17.45,11.56-35.48,23.51-53.48,23.51ZM796.09,808.76h.52c16.4,0,33.72-11.47,50.48-22.58,7.28-4.83,14.16-9.39,20.82-12.91,5.99-3.16,12.63-6.18,19.66-9.37,20.52-9.31,43.76-19.86,56.7-37.4l.14-.18c13.9-16.62,26.33-33.68,25.82-59.65-.33-16.87-3.99-33.53-7.52-49.65-3.52-16.04-7.16-32.64-7.71-49.86-2.41-75.44,57.67-114.87,101.53-143.66l6.66-4.38c21.73-14.28,44.19-29.04,49.8-59.31,3.67-19.86.72-40.69-2.14-60.84-1.56-10.97-3.17-22.31-3.73-33.47-.25-5.31-.23-10.98-.22-16.97.06-17.08.14-36.44-7.31-45.8-3.95-4.97-9.88-7-18.03-6.24-25.33,2.35-51.69,15.99-72.34,37.42-12.59,11.91-24.44,24.76-35.91,37.2-27.43,29.72-55.79,60.47-93.23,76.77-23.34,10.17-47.34,14.09-70.55,17.9-9.3,1.52-18.91,3.1-28.41,5.05-39.55,8.15-57.3,28.09-54.28,60.95,2.48,13.82,5.71,27.72,8.84,41.17,4.35,18.78,8.86,38.19,11.49,57.95,5.31,39.83-1.37,77.39-7.83,113.71-5.85,32.87-9.75,62.69,1.77,94.81,11.14,31.09,31.44,65.59,55.01,69.34Z"/>
        <path class="cls-4" d="M395.08,885.02h0c-31.84-.02-58.8-33.64-82.57-63.31-6.89-8.6-13.4-16.72-19.72-23.66-4.09-3.75-8.07-7.61-11.93-11.34-14.77-14.3-28.73-27.8-48.17-35.28-24.2-9.31-50.02-9.49-74.99-9.65l-5.98-.04c-28-.16-59.73-.32-72.66-37.97-7.6-22.16-9.57-46.33-11.47-69.7-.82-10.11-1.67-20.57-2.97-30.68-1.38-47.14,4.62-114.34,41.07-167.39,14.97-16.64,32.02-24.02,55.34-24.02,2.41,0,4.98.08,7.63.23,2.42.14,4.64.2,6.77.2,23.52,0,36.83-8.89,43.16-28.85,5.49-17.33,8.15-38.62,10.96-61.15,6.09-48.81,12.38-99.29,48.36-117.31,6.01-3.02,12.28-4.54,18.65-4.54,42.63,0,85.52,70.37,101.08,117.93,10.63,32.48,12.02,66.29,13.36,98.98,1.02,24.91,2.09,50.67,7.23,75.69,6.16,29.99,18.02,57.8,29.5,84.72,2.16,5.07,4.33,10.16,6.45,15.23,14.72,35.21,16.22,57.96,6.16,93.67-3.09,10.97-6.58,21.98-9.95,32.64-7.39,23.36-15.03,47.52-18.95,72.62-1.23,7.87-1.39,17.52-1.55,27.74-.35,22.33-.75,47.66-13.27,59.99l-.17.12c-7.05,3.41-14.25,5.14-21.37,5.14ZM161.04,413.59c-22.98,0-39.76,7.26-54.42,23.53-36.11,52.58-42.07,119.37-40.7,166.12,1.29,10.06,2.14,20.54,2.97,30.67,1.89,23.25,3.84,47.3,11.37,69.23,12.59,36.68,43.88,36.86,71.48,37l5.98.04c25.06.17,50.98.34,75.36,9.72,19.66,7.57,33.7,21.15,48.58,35.55,3.85,3.72,7.83,7.57,11.95,11.35,6.4,7.02,12.91,15.15,19.82,23.77,23.6,29.44,50.35,62.83,81.66,62.83h0c6.94,0,13.95-1.68,20.82-4.99,11.97-11.88,12.36-36.74,12.71-58.67.16-10.28.32-20,1.57-28.02,3.95-25.25,11.61-49.47,19.02-72.9,3.37-10.64,6.84-21.64,9.92-32.58,9.91-35.2,8.44-57.65-6.09-92.38-2.12-5.08-4.28-10.15-6.45-15.23-11.51-26.99-23.41-54.89-29.61-85.07-5.17-25.17-6.23-51.02-7.26-76.01-1.34-32.56-2.73-66.23-13.27-98.45-15.44-47.16-57.86-116.93-99.9-116.93-6.2,0-12.32,1.49-18.17,4.42-35.3,17.69-41.53,67.7-47.57,116.07-2.82,22.64-5.48,44.01-11.03,61.51-8.48,26.76-29.37,29.86-44.35,29.86-2.15,0-4.38-.07-6.83-.21-2.63-.16-5.17-.23-7.56-.23Z"/>
        <path class="cls-4" d="M1507.83,580.21h-.02c-63.09,0-160.38-32.67-169.73-122.67-4.28-30.91,18.81-66.14,37.37-94.45,4.89-7.47,9.52-14.52,13.02-20.62l3.25-5.68c19.84-34.62,40.34-70.42,71.45-91.71,15.66-10.7,49.36-28.82,76.42-28.82,11.55,0,20.77,3.27,27.42,9.73,11.92,13.66,8.09,39.42,5.02,60.12-.64,4.37-1.25,8.49-1.66,12.11-2.52,23.12-2.31,49.24.55,71.67,2.45,19.14,7.42,37.93,12.24,56.09,6.52,24.6,13.25,50.05,13.81,76.78,1.11,51.59-39.01,73.6-73.72,76.77-4.91.46-10.09.68-15.42.68ZM1539.59,217.87c-26.81,0-60.27,17.99-75.8,28.63-30.86,21.11-51.28,56.76-71.03,91.23l-3.25,5.68c-3.53,6.15-8.15,13.22-13.06,20.7-18.41,28.06-41.28,62.98-37.09,93.2,9.25,89,105.81,121.3,168.45,121.31h.02c5.3,0,10.45-.23,15.33-.67,34.14-3.12,73.61-24.67,72.53-75.13-.56-26.48-7.27-51.82-13.75-76.32-4.83-18.22-9.81-37.06-12.28-56.33-2.89-22.58-3.09-48.87-.55-72.14.39-3.65,1.02-7.79,1.66-12.18,3.03-20.32,6.78-45.59-4.58-58.6-6.37-6.2-15.34-9.35-26.59-9.35Z"/>
        <path class="cls-4" d="M366.95,822.64c-16.44,0-33.04-15.7-45.16-27.17l-.18-.17c-41.1-43.4-79.88-79.34-138.8-78.5h-.25c-28.92-2.44-58.67-4.94-77.72-37.42-13.52-23.04-17.83-51.04-22-78.11l-.1-.76c-3.12-41.97.73-99.5,36.67-135.28l.24-.21c7.66-6.29,16.02-9.35,25.54-9.35,11.73,0,23.63,4.69,35.12,9.21,11.47,4.52,22.31,8.79,32.91,8.79,8.38,0,15.69-2.78,22.33-8.52,17.72-20.64,18.23-51.31,18.73-80.98.05-3.06.1-6.09.17-9.09.12-5.6.19-11.38.24-16.96.27-27.1.56-55.12,8.84-81.07,10.64-33.4,26.65-40.41,38.2-40.41,33.3,0,71.46,55.19,83.1,93.19,9.86,32.17,10.29,66.06,10.7,98.85.38,30.54.78,62.13,8.92,91.86,3.11,11.36,6.75,22.76,10.27,33.8,6,18.79,12.2,38.21,16.12,58.38,6.54,33.76,2.59,63.12-5.37,96.84-.7,2.96-1.41,6.09-2.16,9.33-7.17,31.14-17,73.79-36.05,94.1-5.99,6.4-12.83,9.64-20.32,9.64ZM325.69,789.09c11.44,10.81,27.01,25.51,41.26,25.51,6,0,11.28-2.52,16.15-7.71,17.57-18.75,27.08-60.05,34.04-90.22.75-3.26,1.47-6.4,2.17-9.38,7.88-33.4,11.51-60.55,5.28-92.67-3.8-19.62-9.91-38.76-15.83-57.29-3.56-11.12-7.23-22.63-10.38-34.18-8.47-30.93-8.87-63.17-9.27-94.34-.4-32.08-.82-65.26-10.27-96.1-10.87-35.44-48.02-88.02-77.1-88.02-13.91,0-24.76,11.89-32.23,35.34-7.84,24.58-8.11,51.85-8.38,78.2-.05,5.62-.11,11.43-.24,17.09-.07,2.98-.12,5.99-.17,9.02-.5,29.97-1.07,63.94-20.96,86.91l-.34.34c-7.8,6.81-16.37,10.13-26.2,10.13-11.59,0-23.41-4.67-34.84-9.17-11.03-4.35-22.44-8.84-33.19-8.84-8.17,0-15.34,2.59-21.89,7.93-33.54,33.49-37.11,88.01-34.17,127.94l.02.18c4.04,26.2,8.21,53.29,20.88,74.88,17.27,29.46,44.27,31.73,72.84,34.13.5,0,1.13,0,1.75,0,59.98,0,100.97,37.99,141.08,80.34Z"/>
        <path class="cls-4" d="M1280.75,325.73h-.02c-15.02,0-26.03-10.76-30.22-29.52-.76-10.5,2.22-20.59,8.61-29.31,9.92-13.57,27.19-22.67,42.97-22.67,9.61,0,17.41,3.57,21.95,10.08,4,5.71,5.5,13.41,4.48,22.9-3.09,28.6-27.67,48.52-47.78,48.52ZM1302.09,245.84c-15.44,0-32.33,8.9-42.02,22.15-6.14,8.39-9.02,18.05-8.3,27.94,5.47,24.5,20.5,28.2,28.95,28.2h.02c19.58,0,43.5-19.35,46.5-47.13.97-9.01-.44-16.28-4.17-21.63-4.3-6.15-11.75-9.52-20.98-9.52Z"/>
        <path class="cls-4" d="M831.92,747.82h0c-14.98,0-29.25-3.82-43.6-11.67l-.17-.14c-19.16-21.55-27.02-44.84-26.24-77.89.31-12.93,1.39-26.01,2.45-38.66,1.49-18.01,3.04-36.63,2.34-55.08-.84-22.35-4.56-44.58-8.16-66.06-2.17-12.98-4.41-26.41-6.01-39.73-4.28-61.51,46.54-74.53,87.37-84.99,10.63-2.73,20.67-5.3,29.15-8.5,42.43-16.03,74.34-45.16,108.1-76.01,5.8-5.29,11.67-10.65,17.67-16.01,14.47-12.95,33.45-27.8,51.94-27.8,6.09,0,11.86,1.64,17.11,4.88,17.86,11.02,26.22,47.92,27.94,76.16,3.23,52.92-31.22,77.31-64.55,100.88-13.73,9.72-26.7,18.91-37.16,29.96-21.12,22.33-41.69,48.16-49.17,85.67-4.67,23.43-.16,46.84,4.2,69.48.8,4.19,1.61,8.37,2.35,12.53,4.27,23.77,7.02,54.05-9.61,77.29-16.36,22.88-44.87,31.69-67.77,38.78l-2.73.85c-13.05,4.05-24.65,6.03-35.44,6.03ZM788.93,734.73c14.15,7.72,28.21,11.47,42.98,11.47h0c10.7,0,22.19-1.95,35.13-5.97l2.73-.85c22.73-7.03,51.03-15.79,67.12-38.3,16.24-22.7,13.51-52.47,9.32-75.87-.75-4.16-1.55-8.33-2.35-12.51-4.4-22.83-8.95-46.44-4.2-70.25,7.57-37.95,28.3-64,49.59-86.51,10.55-11.15,23.56-20.37,37.36-30.13,32.97-23.34,67.06-47.46,63.89-99.36-1.7-27.83-9.84-64.13-27.23-74.85-5.06-3.13-10.64-4.71-16.53-4.71-18.13,0-36.88,14.7-51.19,27.5-6,5.36-11.86,10.71-17.66,16-33.87,30.92-65.85,60.13-108.49,76.24-8.54,3.23-18.61,5.8-29.27,8.54-42.44,10.87-90.53,23.19-86.35,83.22,1.58,13.24,3.82,26.64,5.98,39.59,3.61,21.55,7.34,43.84,8.19,66.32.7,18.56-.85,37.24-2.36,55.32-1.05,12.61-2.12,25.66-2.43,38.54-.76,32.47,6.93,55.38,25.73,76.55Z"/>
        <path class="cls-4" d="M1498.73,556.96c-57.25,0-123.64-29.14-134.08-93.1-4.84-32.76,12.84-68.52,30.81-99.19,17.66-30.15,35.42-58.9,58.44-79.07,12.8-11.2,32.95-23.18,51.16-23.18,11.34,0,20.61,4.59,27.52,13.63,10.44,20.97,13.38,45.11,16.2,68.44,1.36,11.29,2.78,22.96,5.02,34.09,1.75,7.96,3.7,16.11,5.59,24,7.28,30.46,14.81,61.97,13.94,93.93-5.67,36.42-30.08,58.33-66.95,60.26-2.48.13-5.06.19-7.64.19ZM1505.06,264.03c-17.89,0-37.78,11.82-50.41,22.9-22.88,20.02-40.56,48.65-58.16,78.7-17.8,30.39-35.34,65.78-30.58,97.92,10.3,63.07,76.06,91.81,132.81,91.81,2.56,0,5.12-.07,7.58-.2,36.25-1.9,60.2-23.34,65.75-58.84.86-31.57-6.66-62.94-13.91-93.29-1.89-7.89-3.84-16.06-5.59-24.05-2.27-11.21-3.69-22.93-5.06-34.25-2.8-23.18-5.7-47.14-15.94-67.7-6.56-8.58-15.52-13-26.5-13Z"/>
        <path class="cls-4" d="M351.03,752.2h0c-17.8,0-33.02-14.11-47.75-27.76-4.75-4.4-9.24-8.55-13.74-12.18-21.24-17.08-42.77-28.88-64.02-35.05-9.63-2.81-19.62-3.81-29.27-4.79-14.53-1.46-29.56-2.99-43.59-10.67-18.2-9.95-31.26-32.01-38.81-65.55-3.61-30.28-.56-51.97,9.32-66.41,6.59-9.64,14.49-14.33,24.15-14.33,10.94,0,22.29,5.91,33.27,11.63,1.51.79,3.01,1.57,4.48,2.33,14.97,7.64,26.49,11.03,37.37,11.03,11.96,0,23.19-4.34,34.32-13.27,17.74-14.24,31.55-40.1,36.03-67.48,2.14-13.07.06-33.65-2.14-55.44-4.74-46.93-10.13-100.11,20.5-112.66,1.72-.38,3.36-.54,4.99-.54,19.01,0,35.49,24.01,43.38,47.8,8.82,26.62,8.3,55.85,6.86,78.34-2.16,33.57-3.19,61.77,4.59,93.39,3.2,13,7.11,25.96,10.89,38.48,4.86,16.08,9.88,32.7,13.45,49.63,10.44,49.46,2.73,130.15-38.91,153.03l-.18.06c-1.72.27-3.48.41-5.21.41ZM147.33,517.06c-9.27,0-16.84,4.5-23.17,13.76-9.62,14.07-12.57,35.34-9.05,65.03,7.44,32.96,20.25,54.66,38.08,64.42,13.83,7.57,28.74,9.08,43.17,10.54,9.7.99,19.73,2,29.45,4.82,21.38,6.22,43.06,18.09,64.42,35.27,4.55,3.66,9.05,7.83,13.81,12.24,14.56,13.5,29.62,27.45,46.99,27.45h0c1.65,0,3.32-.13,4.96-.38,40.91-22.58,48.41-102.23,38.09-151.1-3.56-16.85-8.57-33.44-13.41-49.47-3.79-12.55-7.7-25.54-10.91-38.59-7.84-31.89-6.81-60.24-4.65-93.99,1.43-22.31,1.95-51.3-6.76-77.58-7.72-23.31-23.77-46.82-42.19-46.82-1.55,0-3.12.17-4.67.49-29.52,12.12-24.22,64.6-19.54,110.91,2.22,21.92,4.31,42.63,2.12,55.96-4.55,27.79-18.57,54.04-36.59,68.5-11.35,9.12-22.8,13.54-35.02,13.54-11.05,0-22.73-3.44-37.86-11.16-1.48-.75-2.98-1.53-4.49-2.32-10.87-5.66-22.1-11.51-32.78-11.51Z"/>
        <path class="cls-4" d="M859.87,698.12h0c-28.3,0-49.61-17.17-57.01-45.94-4.33-16.85-5.5-34.74-6.63-52.04-.63-9.77-1.3-19.88-2.52-29.63-2.08-16.65-5.07-33.4-7.96-49.57-1.94-10.84-3.94-22.05-5.65-33.14-7.99-65.02,33.74-81.01,70.55-95.12,41.6-15.94,75.97-30.28,108.08-57.22,1.63-1.36,3.41-2.88,5.31-4.52,16.47-14.07,44.01-37.64,65.59-37.64,13.36,0,22.81,8.98,28.08,26.68,13.52,45.38-24.87,75.32-52.91,97.17-5.3,4.13-10.3,8.04-14.56,11.73-24.37,21.07-66.55,65.81-75.11,128.74-1.95,14.36-.16,31.02,1.57,47.14,3.65,33.99,7.43,69.13-23.48,85.11-10.43,5.4-21.96,8.24-33.34,8.24ZM1029.63,294.91c-21.17,0-48.53,23.4-64.87,37.37-1.92,1.64-3.7,3.16-5.32,4.52-32.26,27.07-66.72,41.44-108.42,57.42-36.31,13.92-77.46,29.69-69.66,93.3,1.7,11.04,3.7,22.23,5.63,33.07,2.9,16.21,5.89,32.97,7.98,49.67,1.23,9.82,1.9,19.95,2.54,29.74,1.13,17.21,2.28,35.01,6.57,51.69,7.22,28.07,28.07,44.82,55.78,44.82h0c11.21,0,22.57-2.8,32.84-8.11,30-15.52,26.45-48.5,22.7-83.43-1.75-16.23-3.56-33.02-1.56-47.62,8.63-63.5,51.1-108.58,75.64-129.79,4.3-3.71,9.31-7.63,14.62-11.76,27.66-21.56,65.52-51.1,52.38-95.24-5.06-17.02-14.11-25.65-26.88-25.65Z"/>
        <path class="cls-4" d="M35.83,347.16C30.56,325.06,14.16,313.14,0,306.83v1.7c13.78,6.23,29.53,17.84,34.6,39.1,4.22,17.71,3.84,37.77,3.19,51.32-.29,6.06-1.34,12.62-2.35,18.97-1.41,8.91-2.88,18.13-2.4,26.51.55,10.03-3.13,23.63-6.37,35.63-1.27,4.71-2.48,9.15-3.34,13.05-1.71,7.81-3.48,15.59-5.25,23.38-3,13.22-6.1,26.87-8.86,40.41-1.55,7.56-2.89,15.49-4.2,23.15C3.48,589.09,1.92,598.21,0,607.16v5.96c2.52-10.74,4.41-21.81,6.27-32.74,1.3-7.65,2.66-15.55,4.19-23.08,2.76-13.52,5.86-27.16,8.86-40.37,1.77-7.79,3.54-15.58,5.25-23.4.84-3.85,2.05-8.28,3.31-12.96,3.28-12.14,7.01-25.9,6.43-36.26-.46-8.17.99-17.27,2.39-26.07,1.02-6.41,2.07-13.03,2.37-19.2.66-13.67,1.04-33.93-3.24-51.88Z"/>
        <path class="cls-4" d="M1487.83,536.9h0c-42.24,0-92.31-24.49-102.5-78.23l-.02-.11v-.11c1.5-57.5,32.28-118.23,74.84-147.66,7.2-4.99,18.23-10.93,29.88-10.93s20.5,5.68,27.12,16.86c12.59,21.26,18.58,50.17,23.86,75.67.95,4.59,1.89,9.12,2.84,13.52.59,2.75,1.22,5.53,1.84,8.36,5.95,26.7,12.72,56.97,4.78,83.66-6.8,22.93-23.92,35.5-52.34,38.45-3.34.34-6.81.52-10.31.52ZM1386.61,458.4c10.06,52.83,59.52,76.89,101.22,76.89h0c3.47,0,6.91-.18,10.2-.52,27.87-2.88,44.64-15.13,51.25-37.4,7.78-26.22,1.09-56.22-4.81-82.68-.63-2.82-1.25-5.61-1.84-8.36-.97-4.41-1.91-8.95-2.86-13.54-5.5-26.61-11.2-54.11-23.64-75.12-6.37-10.75-15.16-16.2-26.09-16.2s-22.17,5.82-29.25,10.71c-42.17,29.16-72.66,89.26-74.17,146.2Z"/>
        <path class="cls-4" d="M16.73,361.32C13.34,353.26,7.19,343.02,0,335.06v2.26c6.58,7.53,12.32,16.96,15.59,24.75,8.43,20.03,10.21,47.81,5.29,82.56C16.24,477.42,8.34,509.48,0,540.69v5.06c8.79-32.71,17.27-66.35,22.15-100.85,4.98-35.1,3.15-63.22-5.41-83.59Z"/>
        <path class="cls-4" d="M1920,653.34c-3.47-2.79-6.81-5.67-9.83-8.26-2.83-2.44-5.5-4.73-7.73-6.51-15.44-12.17-29.34-25.3-41.33-39.04-13-14.87-23.89-30.63-32.42-46.86-5.34-10.16-9.09-22.01-12.72-33.47-3.72-11.77-7.56-23.92-13.08-34.03-3.91-8.2-4.95-16.01-3.08-23.2,4.75-18.32,26.95-30.26,44.78-39.86,7.25-3.9,13.52-7.27,17.73-10.58,14.48-11.35,27.64-26.33,39.7-40.82,5.45-6.56,11.75-12.63,17.97-18.48v-2.02c-6.49,6.12-13.13,12.44-18.86,19.34-12.02,14.43-25.11,29.35-39.5,40.61-4.12,3.24-10.34,6.59-17.55,10.47-18.08,9.72-40.58,21.83-45.52,40.84-1.98,7.65-.91,15.91,3.24,24.56,5.45,10,9.27,22.08,12.97,33.75,3.64,11.54,7.42,23.47,12.83,33.78,8.58,16.33,19.56,32.2,32.62,47.16,12.05,13.79,26.02,26.99,41.52,39.21,2.22,1.75,4.88,4.04,7.69,6.47,3.33,2.86,6.91,5.95,10.56,8.86v-1.93Z"/>
        <path class="cls-4" d="M1479.33,510.14h0c-31.95,0-67.58-24.91-69.41-65.15,1.33-39.57,25.78-90.65,58.72-100.77,3.11-.95,6.19-1.44,9.13-1.44,35.42,0,49.28,69.47,51.64,106.2,1.14,17.48-2.3,31.77-10.2,42.47-8.89,12.06-23.05,18.69-39.87,18.69ZM1477.77,344.38c-2.84,0-5.8.47-8.81,1.39-32.39,9.96-56.44,60.28-57.75,99.21,1.78,39.22,36.75,63.55,68.13,63.55,16.47,0,30.3-6.46,38.94-18.17,7.64-10.35,10.97-24.23,9.86-41.25-2.33-36.22-15.88-104.73-50.36-104.73Z"/>
        <path class="cls-4" d="M0,376.93v3.58c8.09,21.06,8.47,45.7,6.61,65.81C5.37,459.71,2.87,472.82,0,485.19v5.63c3.41-13.94,6.46-28.93,7.88-44.31C9.86,425.23,9.34,398.92,0,376.93Z"/>
        <path class="cls-4" d="M856.87,593.34h0c-24.83,0-48.39-85.71-52.17-107.6-4.3-58.76,50.05-75.96,93.71-89.77,12.07-3.82,23.46-7.42,32.19-11.54,5.74-2.7,12.66-7.36,20-12.29,14.76-9.93,31.48-21.18,45.27-21.18,2.34,0,4.58.33,6.61.98,2.92.95,4.66,2.79,5.14,5.49,2.25,12.66-25.53,41.3-35.99,52.07-1.63,1.68-2.8,2.9-3.32,3.49-35.48,40.63-65.29,92.15-91.15,157.48-6.01,15.18-12.83,22.88-20.28,22.88ZM995.86,352.56c-13.45,0-30.03,11.15-44.66,20.99-7.37,4.96-14.34,9.64-20.16,12.39-8.79,4.15-20.22,7.76-32.32,11.59-43.2,13.66-96.95,30.67-92.76,87.97,5.04,29.18,28.34,106.23,50.9,106.24h0c6.92,0,13.36-7.4,19.13-21.98,25.92-65.52,55.83-117.19,91.42-157.96.54-.61,1.73-1.84,3.37-3.54,9.31-9.59,37.64-38.78,35.55-50.48-.36-2.09-1.73-3.5-4.19-4.29-1.94-.62-4.05-.93-6.3-.93Z"/>
        <path class="cls-4" d="M1920,627.49c-1.63-1.56-3.06-2.92-4.31-4.01-11.12-9.75-20.56-19.65-28.84-30.26-8.84-11.37-37.28-50.88-31.23-82.54,2.56-28.95,17.02-49.46,34.23-71.4,6.52-8.6,12.94-17.58,19.16-26.26,3.64-5.1,7.3-10.22,11-15.28v-2.42c-.3.43-.61.87-.91,1.28-3.72,5.09-7.39,10.22-11.06,15.35-6.2,8.67-12.61,17.64-19.11,26.21-17.39,22.16-31.98,42.89-34.58,72.25-6.19,32.36,22.61,72.42,31.58,83.94,8.34,10.69,17.83,20.66,29.03,30.45,1.42,1.24,3.09,2.85,5.05,4.72h0v-2.02Z"/>
        <path class="cls-4" d="M1471.81,468.47h-.02c-10.52,0-24-7.49-27.42-28.58-1.25-21.62,10.36-41.14,26.42-44.53l.09-.02.11.02c12.91,2.67,23.39,16.27,26.09,33.85,1.67,10.98.03,20.6-4.75,27.85-4.72,7.14-12.39,11.41-20.53,11.41ZM1470.89,396.98c-15.34,3.32-26.42,22.05-25.25,42.71,3.27,20.03,16.14,27.18,26.16,27.18h.02c7.75,0,15.06-4.04,19.55-10.82,4.53-6.87,6.08-16.03,4.47-26.52-2.6-16.87-12.61-29.93-24.94-32.55Z"/>
        <path class="cls-4" d="M1920,601.46c-4.49-4.06-8.88-8.37-12.58-13.34-10.78-14.48-23.63-37.52-23.58-64.98.03-25.1,12.8-48.62,23.92-66.31,3.92-6.24,8.09-12.38,12.23-18.37v-2.45c-4.47,6.46-9,13.07-13.25,19.83-11.25,17.89-24.16,41.71-24.2,67.3-.03,27.99,13,51.38,23.94,66.07,3.98,5.36,8.7,9.94,13.52,14.24v-1.99Z"/>
        <path class="cls-4" d="M936.81,1110.47h0c-36.7,0-59.09-18.43-64.76-53.31l-.08-.51.02-.51c.3-6.51.15-13.25,0-19.77-.1-4.83-.21-9.82-.15-14.73l.09-.86c2.66-14.16,6.27-32.82,10.53-51.4,9.02-39.33,19.68-71.9,32.57-99.58,12.73-27.35,32.72-46.43,52.05-64.87,19.41-18.52,39.47-37.67,51.58-64.97,11.48-25.85,14.11-55.01,8.28-91.75-1.09-6.91-2.47-13.9-3.92-21.29-5.3-27.05-10.8-55.02-3.08-81.61,18.81-64.81,89.36-81.42,136.03-92.41l2.38-.55c27.42-6.48,55.84-9.95,89.45-10.98h.42s.42.12.42.12c23.58,7.18,40.81,32.09,56,54.07,2.36,3.4,4.67,6.74,6.95,9.94,39.36,55.24,76.61,85.75,124.53,102.01,14.5,4.92,29.45,9,43.91,12.95,13.09,3.58,26.64,7.28,39.86,11.61,17,5.55,27.45,14.91,30.23,27.05,2.55,11.16-1.37,23.71-11.66,37.27-25.67,33.85-56.63,38.52-86.27,38.52-8.36,0-16.95-.42-25.27-.83-8.34-.4-16.98-.82-25.41-.82-6.22,0-11.76.22-16.95.69-71.64,6.42-125.58,28.28-160.31,64.97-27.25,28.8-40.64,67.63-54.81,108.75-6.76,19.64-13.76,39.95-22.39,58.89-24.42,53.59-65.34,94.14-121.64,120.56-14.95,7.01-53.52,23.34-88.61,23.34ZM878.43,1056.06c5.18,30.78,24.81,46.36,58.37,46.38,34.04,0,71.73-15.97,86.35-22.83,54.84-25.73,94.66-65.12,118.31-117.03,8.44-18.52,15.37-38.63,22.08-58.09,13.84-40.15,28.16-81.68,56.56-111.69,35.8-37.82,90.99-60.31,164.02-66.86,5.33-.48,11.03-.71,17.41-.71,8.56,0,17.25.42,25.66.83,8.25.41,16.78.82,25.02.82,28.2,0,57.59-4.36,81.59-36.02,8.61-11.36,12.02-21.28,10.14-29.52-2.12-9.25-11-16.68-25.67-21.48-13.09-4.28-26.58-7.96-39.61-11.52-14.53-3.98-29.56-8.08-44.22-13.05-49.22-16.7-87.39-47.93-127.64-104.42-2.31-3.24-4.66-6.61-7.02-10.04-14.48-20.94-30.88-44.65-52.25-51.4-33.08,1.02-61.05,4.46-88,10.82l-2.37.55c-45.24,10.66-113.61,26.75-131.17,87.26-7.05,24.3-1.8,51.07,3.28,76.94,1.41,7.16,2.86,14.55,3.98,21.64,6.14,38.71,3.28,69.61-8.97,97.21-12.77,28.77-33.38,48.44-53.3,67.47-18.83,17.97-38.3,36.55-50.4,62.52-12.62,27.11-23.06,59.08-31.94,97.76-4.18,18.23-7.73,36.58-10.37,50.61-.05,4.6.05,9.35.15,13.95.14,6.5.29,13.24,0,19.91Z"/>
        <path class="cls-4" d="M1920,560.03c-4.03-10.66-6.37-21.98-6.25-32.31.12-10.2,2.19-20.79,6.25-32.09v-3.76c-4.89,12.67-7.39,24.48-7.53,35.83-.14,11.49,2.7,24.17,7.53,35.89v-3.56Z"/>
        <path class="cls-4" d="M961.91,1073.98h0c-32.71,0-52.37-17.57-56.84-50.82-2.76-55.13,14.81-121.57,43.7-165.46,10.82-16.42,24-30.36,36.74-43.85,21.41-22.63,43.55-46.05,54.12-81.39,8.83-29.47,3.47-61.54-1.73-92.55-5.84-34.91-11.89-71.01,3.19-102.17,21.58-44.61,74.34-67.99,156.86-69.51.89-.02,1.78-.03,2.67-.03,31.56,0,56.73,10.48,79.22,32.97,11.55,11.54,21.97,25.01,32.06,38.04,9.13,11.79,18.58,24,28.78,34.68,21.27,26.23,48.09,45.03,71.59,60.59,1.53,1.01,3.48,2.22,5.7,3.59,12.69,7.85,33.94,20.98,33.3,33.3-.28,5.56-4.7,10.11-13.53,13.9-23.94,10.29-48.72,18.32-72.67,26.08-33.47,10.84-68.06,22.05-100.83,39.6-34.8,18.66-58.23,39.1-73.76,64.36-14.17,23.04-23.24,50.27-32,76.58l-2.56,7.71c-22.66,67.57-58.89,116.97-107.69,146.8-20.81,12.72-55.91,27.56-86.32,27.56ZM1200.63,469.82c-.89,0-1.77,0-2.64.03-82.05,1.51-134.47,24.63-155.8,68.73-14.81,30.62-9.08,64.81-3.02,101.01,5.24,31.23,10.64,63.53,1.69,93.43-10.72,35.74-32.98,59.29-54.52,82.06-12.7,13.44-25.83,27.33-36.58,43.65-28.7,43.58-46.15,109.59-43.41,164.25,4.41,32.74,23.1,49.4,55.56,49.4,30.18,0,65.05-14.77,85.76-27.41,48.52-29.65,84.53-78.77,107.06-145.98l2.56-7.7c8.8-26.43,17.89-53.75,32.17-76.96,15.66-25.48,39.27-46.09,74.28-64.84,32.84-17.61,67.5-28.83,101.02-39.69,23.92-7.75,48.67-15.77,72.58-26.04,8.16-3.51,12.41-7.71,12.66-12.48.58-11.25-20.19-24.1-32.59-31.76-2.24-1.38-4.19-2.6-5.73-3.61-23.56-15.61-50.5-34.49-71.84-60.82-10.22-10.69-19.69-22.93-28.84-34.75-10.06-12.99-20.47-26.43-31.94-37.91-22.25-22.25-47.17-32.62-78.42-32.62Z"/>
        <path class="cls-4" d="M985.25,1035.92h-.02c-28.81-.02-44.62-18.13-45.73-52.44-.4-31.96,6.03-63.89,18.59-92.33,11.34-25.67,28.59-45.64,45.26-64.93,18.8-21.77,38.25-44.28,48.81-74.81,11.99-34.65,8-73.34,3.19-103.17-.56-3.47-1.16-7-1.77-10.59-5.03-29.54-10.73-63.02,2.24-90.36,26.59-56.09,100.52-60.45,122.53-60.45,5.44,0,10.83.21,16.05.63,57.23,4.57,92.92,48.13,130.41,100.32,1.59,2.22,3.25,4.46,4.92,6.75,16.67,22.67,35.55,48.37,22.89,78.92l-.17.25c-21.16,21.6-44.23,35.25-68,48.45l-3.41,1.89c-48.53,26.94-98.7,54.8-122.66,117.47l-1.12,3.41c-20.25,60.99-39.39,118.57-85.5,155.89-16.78,13.56-55.11,35.1-86.52,35.1ZM1178.36,488.44c-21.84,0-95.17,4.3-121.42,59.66-12.7,26.8-7.06,59.96-2.09,89.21.63,3.58,1.22,7.13,1.78,10.6,4.84,30.07,8.86,69.07-3.27,104.14-10.69,30.84-30.22,53.46-49.13,75.34-16.59,19.23-33.76,39.1-45.01,64.54-12.45,28.21-18.83,59.84-18.43,91.51,1.08,33.74,16.03,50.86,44.44,50.86h.02c31.14,0,69.16-21.37,85.81-34.85,45.78-37.03,64.84-94.4,85.02-155.14l1.14-3.45c24.17-63.26,74.56-91.23,123.3-118.29l3.42-1.89c23.64-13.14,46.59-26.7,67.59-48.12,12.14-29.49-6.39-54.7-22.73-76.95-1.69-2.28-3.34-4.54-4.94-6.76-37.3-51.91-72.8-95.25-129.53-99.79-5.19-.41-10.56-.62-15.97-.62Z"/>
        <path class="cls-4" d="M1005.58,1002.73h-.01c-20.02,0-31.98-13.44-35.54-39.97-4.93-58.13,25.82-96.38,55.55-133.39,5.58-6.96,11.36-14.14,16.72-21.28,21.55-28.64,31.78-55.96,32.17-86,.31-23.64-3.16-47.19-6.52-69.96-1.59-10.78-3.24-21.93-4.45-32.97-3.86-34.66-1.17-63.14,24.44-89.47,17.86-13.3,39.28-22.29,62.02-26.09,8.09-1.35,16.34-2.03,24.5-2.03,39.94,0,75.03,15.91,98.83,44.79,21.06,19.3,39.66,54.33,48.72,80.46,9,25.99-1.83,50.44-32.2,72.66-13.16,9.62-27.2,18.31-40.8,26.7-28.28,17.49-57.55,35.58-80.75,63.3-18.64,22.25-28.27,52.17-37.56,81.11-9.3,28.89-18.89,58.75-37.47,81.58-17.91,20.42-58.12,50.57-87.64,50.57ZM1174.45,503.17c-8.09,0-16.28.68-24.33,2.02-22.56,3.76-43.81,12.69-61.45,25.81-25.06,25.78-27.69,53.81-23.91,87.93,1.22,10.99,2.86,22.13,4.45,32.9,3.37,22.85,6.86,46.48,6.55,70.28-.41,30.46-10.75,58.13-32.53,87.07-5.37,7.16-11.16,14.36-16.75,21.32-29.52,36.75-60.05,74.73-55.19,132.02,3.44,25.6,14.97,38.61,34.27,38.61h.01c29.17,0,69.02-29.92,86.77-50.14,18.36-22.58,27.91-52.28,37.14-81.01,9.36-29.09,19.03-59.18,37.88-81.68,23.36-27.89,52.7-46.03,81.08-63.57,13.56-8.39,27.6-17.06,40.7-26.66,29.72-21.73,40.37-45.49,31.67-70.63-8.98-25.93-27.42-60.67-48.36-79.86-23.62-28.66-58.41-44.41-98-44.41Z"/>
        <path class="cls-4" d="M1034.72,951.54h0c-10.95,0-18.69-6.53-22.34-18.84l-.05-.23c-2.39-50.24,31.45-81.4,61.31-108.9,2.72-2.5,5.39-4.97,8-7.41,22.41-20.98,20.45-37.64,16.56-70.85l-.2-1.72c-2.84-24.28-7.13-48.05-12.02-74.37-9.91-53.27-16.45-112.18,31.39-137.15,16.67-8.7,35.5-13.29,54.45-13.29,21.05,0,41.66,5.6,59.59,16.19,23.92,14.11,53.61,48.83,61.91,82.51,4.12,16.72,3,32.03-3.34,45.51-10.41,22.07-30.39,35.61-48.05,47.56-1.63,1.1-3.24,2.2-4.83,3.28-13.69,9.37-27.84,18.31-41.53,26.95-7.59,4.8-15.45,9.76-23.14,14.73-4.5,2.91-8.84,5.54-13.05,8.07-16.45,9.95-30.66,18.52-47.37,39.61-10.72,15.12-9.81,30.55-8.94,45.47.58,9.68,1.16,19.69-1.47,29.4-6.92,25.4-18.75,45.87-34.25,59.2-8.02,6.9-20.8,14.28-32.64,14.28ZM1013.61,932.25c3.52,11.73,10.62,17.67,21.11,17.67h0c11.55,0,24.06-7.23,31.92-13.99,15.25-13.13,26.92-33.33,33.75-58.4,2.55-9.39,2-18.8,1.41-28.75-.89-15.25-1.83-31.04,9.27-46.69,16.91-21.31,31.91-30.37,47.77-39.96,4.2-2.53,8.53-5.14,13.01-8.05,7.69-4.98,15.55-9.95,23.16-14.74,13.67-8.64,27.83-17.57,41.48-26.93,1.59-1.08,3.22-2.18,4.84-3.28,17.5-11.85,37.33-25.27,47.55-46.96,6.16-13.07,7.23-27.94,3.23-44.22-8.2-33.25-37.58-67.57-61.25-81.54-17.76-10.48-38.17-16.02-59.03-16.02-18.78,0-37.45,4.55-53.95,13.17-46.92,24.48-40.42,82.68-30.64,135.3,4.91,26.36,9.19,50.16,12.03,74.5l.2,1.72c3.84,32.76,5.95,50.81-17.05,72.36-2.63,2.45-5.3,4.91-8.02,7.42-29.58,27.23-63.08,58.11-60.8,107.39Z"/>
        <path class="cls-4" d="M1429.11,1091.86c32.91,21.62,69.69,22.87,105.27,24.1,19.14.64,38.94,1.32,57.86,5.18,16.61,2.71,30.06,13.13,38.89,30.15,10.8,20.86,13.44,49.24,7.03,75.93-7.91,32.96-18.88,54.97-35.58,71.39-12.83,12.58-26.98,18.48-41.98,24.74-6.94,2.9-14.11,5.88-21.12,9.58-27.84,14.72-43.31,33.15-47.25,56.31-3.88,4.3-2.99,20.61-1.58,36.06.11,1.17.19,2.14.25,2.86,1.39,17.9,5.66,35.06,10.03,50.96,2.64,9.56,5.53,19.46,8.33,29.02,15.7,53.78,31.84,109.14,24.05,164.35h1.31c7.76-55.52-8.41-110.99-24.14-164.89-2.8-9.56-5.69-19.46-8.33-29-4.36-15.8-8.59-32.84-9.97-50.59-.06-.74-.15-1.72-.25-2.88-.76-8.43-2.8-30.84,1.28-34.81l.19-.18.05-.29c3.77-22.73,19-40.87,46.53-55.44,6.97-3.68,14.13-6.66,21.03-9.53,15.11-6.31,29.37-12.25,42.37-25.01,16.92-16.63,28.03-38.9,36.02-72.19,6.5-27.14,3.81-56.02-7.19-77.27-9.05-17.42-22.8-28.09-39.78-30.86-18.99-3.88-38.83-4.56-58.02-5.22-35.44-1.21-72.06-2.46-104.69-23.9-16.88-11.08-35.62-31.5-29.12-65.78,5.3-27.97,21.34-54.44,35.48-77.78l.86-1.4c43.64-72.02,88.2-96.83,136.28-75.89,36.84,16.05,63.12,44.45,90.94,74.51,7.03,7.6,14.31,15.47,21.8,23.16,40.48,41.59,92.34,36.35,137.76,28.15,1.63-.29,3.38-.58,5.24-.92,31.14-5.42,89.12-15.49,89.97-62.9.45-25.77-20.59-49.67-31.91-62.51-6.12-6.96-12.61-13.62-18.88-20.04-13.61-13.96-27.7-28.4-38.59-46.57-13.28-22.14-20.86-48.7-28.17-74.37-8.2-28.74-16.67-58.45-33.17-81.79-5.5-7.78-14.73-15.95-24.5-24.6-26.25-23.21-55.98-49.53-37.05-84.7,5.3-9.86,12.12-15.37,20.27-16.39,25.78-3.24,59.63,38.46,75.89,58.51,1.08,1.32,2.08,2.57,3.02,3.7,31.12,38.03,71.28,65.25,114.17,90.39v-1.77c-42.58-25-82.42-52.07-113.28-89.77-.92-1.13-1.94-2.38-3.02-3.7-16.4-20.21-50.52-62.27-76.91-58.95-8.55,1.07-15.69,6.83-21.22,17.09-19.64,36.47,11.99,64.44,37.38,86.91,9.72,8.59,18.89,16.7,24.28,24.35,16.34,23.11,24.77,52.68,32.92,81.27,7.36,25.79,14.95,52.47,28.36,74.8,11,18.32,25.14,32.82,38.81,46.85,6.25,6.43,12.72,13.05,18.83,19.99,11.16,12.66,31.92,36.25,31.47,61.28-.81,46.05-58.08,56-88.84,61.34-1.86.33-3.62.64-5.25.94-45.16,8.12-96.69,13.36-136.75-27.82-7.48-7.68-14.75-15.53-21.78-23.12-27.92-30.17-54.28-58.65-91.36-74.82-48.66-21.19-93.72,3.8-137.72,76.44l-.86,1.4c-13.53,22.3-30.36,50.08-35.72,78.38-5.3,27.91,5,51.29,29.76,67.57Z"/>
        <path class="cls-4" d="M1145.03,735.39h0c-17.44,0-25.33-17.56-34.55-42.39-6.24-16.77-9.25-35.09-12.16-52.82-.75-4.62-1.52-9.23-2.33-13.83-2.06-24.56,2.56-44.82,13.72-60.31,13.03-18.09,35.08-28.46,60.47-28.46,46.27,0,96.14,34.32,99.53,91.77,3.31,55.95-68.11,91.04-110.83,102.94-5.09,2.07-9.64,3.1-13.86,3.1ZM1170.19,539.19c-25.03,0-46.72,10.18-59.51,27.93-10.91,15.13-15.41,34.96-13.41,58.97.8,4.51,1.56,9.14,2.33,13.76,2.89,17.63,5.89,35.86,12.06,52.47,9.02,24.27,16.69,41.45,33.38,41.45h0c4.01,0,8.56-1.02,13.53-3.04,42.37-11.81,113.12-46.41,109.87-101.27-3.33-56.51-52.58-90.28-98.25-90.28Z"/>
        <path class="cls-4" d="M332.59,676.11h0c-1.2,0-2.44-.09-3.69-.25-23.68-3.19-45.39-29.33-54.59-53.5l-.05-.21c-4.44-34.73,25.09-64.64,44.74-75.33,1.56-.36,2.98-.51,4.37-.51,23.74,0,37.44,43.07,39.5,66.13,1.4,15.66-.49,38.85-10.4,52.7-5.21,7.27-11.9,10.97-19.88,10.97ZM275.51,621.77c9.07,23.75,30.35,49.37,53.52,52.49,1.2.16,2.4.24,3.55.24h0c7.61,0,13.97-3.51,18.92-10.43,9.63-13.45,11.45-36.12,10.08-51.45-2.02-22.56-15.29-64.7-38.22-64.7-1.32,0-2.67.15-4.01.43-19.13,10.43-48.1,39.64-43.84,73.43Z"/>
        <path class="cls-4" d="M1163.33,703.79h0c-10.49,0-19.23-3.85-26-11.45-14.66-16.41-20.33-39.99-23.61-58.7-2.12-21.63,1.84-40.2,11.45-53.75,10.6-14.96,27.99-23.54,47.7-23.54,25.25,0,56.78,15.21,70.34,49.21,5.31,13.33,5.78,26.72,1.37,39.77-8.25,24.43-32.81,43.71-53.5,51.98-11.05,4.42-19.88,6.48-27.77,6.48ZM1172.87,557.96c-19.34,0-36.39,8.39-46.75,23-9.34,13.2-13.2,31.32-11.14,52.41,3.24,18.4,8.81,41.67,23.19,57.79,6.63,7.42,14.86,11.02,25.16,11.02,7.75,0,16.45-2.04,27.37-6.4,20.41-8.16,44.61-27.12,52.7-51.08,4.25-12.6,3.8-25.53-1.34-38.42-13.31-33.39-44.34-48.33-69.19-48.33Z"/>
        <path class="cls-4" d="M1174.08,665.5h0c-14.42,0-30.61-8.94-32.81-34.03-1.95-11.22-.34-21.3,4.69-29.08,6.11-9.48,17.11-15.14,29.41-15.14,15.44,0,28.91,8.62,35.17,22.5,5.16,11.44,5.44,22.75.8,32.68-6.36,13.59-21.67,23.07-37.25,23.07ZM1175.36,588.86c-11.92,0-22.53,5.44-28.41,14.53-4.77,7.39-6.3,17.01-4.42,27.83,1.8,20.49,13.59,32.68,31.55,32.68h0c15.14,0,30-9.17,36.14-22.28,4.39-9.4,4.11-20.14-.81-31.07-6.03-13.37-19.08-21.68-34.05-21.68Z"/>
        <path class="cls-4" d="M1778.16,969.92h0c-22.7,0-43.73-6.41-62.53-19.05-18.44-12.41-34.92-29.74-50.88-46.48-12.66-13.3-25.75-27.06-39.75-38.28-9.05-7.24-18.41-14.34-27.45-21.19-6.92-5.24-14.09-10.66-21.08-16.13-2.52-1.98-5.3-4-8.25-6.15-12.92-9.39-29-21.09-34.25-37.86l-.05-.2c-3.56-36.52,42.31-80.36,62.2-97.51,20.61-17.78,43.12-26.78,66.92-26.78,10.2,0,20.69,1.69,31.14,5.03,33.52,10.71,57.33,36.91,77.24,84.97,18.28,44.16,33.64,76.04,58.06,108.31,1.37,1.83,2.86,3.74,4.39,5.71,13.16,16.93,29.52,37.96,25.66,62.02-6.31,22.15-24.66,31.07-39.92,36.39-13.73,4.77-27.69,7.19-41.45,7.19ZM1535.19,784.31c5.12,16.2,20.95,27.71,33.69,36.96,2.95,2.14,5.73,4.17,8.28,6.17,6.97,5.46,14.14,10.88,21.06,16.13,9.05,6.86,18.42,13.95,27.48,21.21,14.06,11.26,27.19,25.05,39.88,38.37,15.89,16.71,32.33,33.97,50.66,46.3,18.61,12.52,39.44,18.88,61.92,18.88h0c13.66,0,27.48-2.4,41.11-7.15,14.97-5.2,32.94-13.91,39.03-35.26,3.7-23.1-12.41-43.83-25.34-60.48-1.53-1.97-3.02-3.88-4.41-5.71-24.51-32.42-39.94-64.4-58.27-108.68-19.72-47.62-43.28-73.56-76.41-84.15-10.36-3.31-20.73-4.99-30.83-4.99-23.53,0-45.8,8.91-66.19,26.49-19.69,16.97-65.06,60.26-61.67,95.91Z"/>
        <path class="cls-4" d="M1920,870.02c-1.88-1.72-3.49-3.2-4.59-4.27-6.53-6.47-13.34-12.74-19.92-18.84-5.63-5.18-11.44-10.55-17.05-15.99-10.48-10.18-22.53-22.64-32.4-37.92-6.41-9.92-9.91-20.41-13.6-31.54-2.05-6.2-4.17-12.58-6.84-18.87-.37-2.78-.83-5.77-1.31-8.9-3.56-23.46-8.45-55.58,12.5-65.64,17.77-.25,33.73,3.71,53.41,13.31,4.27,2.08,8.81,4.11,13.61,6.25,5.41,2.42,10.89,4.87,16.2,7.49v-1.74c-5.19-2.53-10.52-4.91-15.77-7.26-4.8-2.14-9.33-4.17-13.59-6.24-19.87-9.7-36.05-13.71-53.98-13.42l-.22.05c-22.08,10.5-17.08,43.44-13.42,67.5.48,3.18.95,6.21,1.31,9l.08.25c2.66,6.24,4.78,12.64,6.84,18.84,3.56,10.73,7.25,21.84,13.78,31.94,9.95,15.41,22.08,27.94,32.62,38.18,5.63,5.45,11.44,10.82,17.06,16.02,6.58,6.08,13.38,12.35,19.89,18.78,1.14,1.13,2.78,2.63,4.69,4.36.22.2.47.43.7.64v-1.99Z"/>
        <path class="cls-4" d="M1774.95,952.86h-.02c-20.67,0-41.58-7.85-60.47-22.71-16.17-12.72-31.58-27.84-46.5-42.42-10.23-10.03-20.83-20.42-31.53-29.9-3.58-3.16-7.53-6.43-11.73-9.9-21.08-17.41-47.33-39.09-51.4-69.54.33-34.18,18.25-55.51,33.23-67.41,18.58-14.76,42.8-23.23,66.45-23.23,12.58,0,24.22,2.51,33.69,7.26,28.16,14.13,43.41,43.74,55.7,73.62,14.42,35.07,31.09,66.91,52.45,100.19.62.97,1.3,1.99,1.98,3.06,7.91,12.12,19.86,30.43,15.36,46.73-5.42,19.67-20.56,26.67-33.16,30.58-7.83,2.44-15.94,3.66-24.06,3.66ZM1672.98,689.36c-46.89,0-97.86,33.99-98.42,88.91,4,29.61,29.98,51.07,50.86,68.32,4.2,3.49,8.17,6.76,11.75,9.93,10.75,9.51,21.34,19.89,31.6,29.94,14.89,14.57,30.28,29.65,46.39,42.33,18.67,14.69,39.36,22.46,59.78,22.46,8.05,0,16.03-1.21,23.76-3.6,12.28-3.82,27.03-10.62,32.25-29.55,4.27-15.45-7.41-33.35-15.12-45.19-.7-1.07-1.38-2.08-2-3.06-21.42-33.38-38.14-65.3-52.61-100.47-12.17-29.61-27.27-58.93-55.02-72.87-9.33-4.68-20.81-7.15-33.22-7.15Z"/>
        <path class="cls-4" d="M1920,838.98c-8.45-6.73-17.08-13.67-25.28-21.1-15.66-14.16-34.62-33.97-42.56-61.68-3.27-15.16-1.89-30.09,3.59-38.97,4.11-6.65,10.25-9.93,18.28-9.9,11.2.13,23.23,3.32,37.84,10.06,2.59,1.2,5.3,2.73,8.13,4.39v-1.78c-2.66-1.55-5.2-2.98-7.67-4.12-14.76-6.81-26.92-10.03-38.28-10.16-8.41-.07-14.95,3.45-19.33,10.52-5.81,9.41-7.23,24.49-3.78,40.43,8.06,28.2,27.23,48.21,43.03,62.51,8.45,7.65,17.34,14.78,26.03,21.7v-1.91Z"/>
        <path class="cls-4" d="M1765.2,925.06s0,0,0,0h-.03c-21.7,0-42.92-15.37-60.81-30.41-9.27-7.77-18.27-16.34-26.99-24.64-8.69-8.28-17.67-16.83-26.89-24.58-24.27-20.38-38.25-39.89-42.73-59.66l-.03-.13.02-.14c1.81-48.05,35.44-69.93,65.91-69.93,9.67,0,19.13,2.05,28.13,6.13,29.64,19.74,44.53,56.48,58.92,92.01,7.01,17.33,14.28,35.25,23.14,50.93,9.59,16.97,12.47,34.01,7.67,45.58-4.02,9.72-13.13,14.84-26.3,14.84ZM1609.02,785.46c4.44,19.34,18.23,38.53,42.19,58.65,9.25,7.77,18.25,16.34,26.95,24.62,8.7,8.28,17.69,16.85,26.92,24.6,16.69,14.02,38.61,30.12,60.09,30.13l.03.8v-.8c12.67,0,21.37-4.83,25.16-13.98,4.56-11.03,1.73-27.45-7.58-43.91-8.92-15.78-16.2-33.76-23.25-51.14-14.3-35.31-29.08-71.81-58.3-91.26-8.76-3.96-18.08-5.99-27.59-5.99-29.84,0-62.78,21.36-64.62,68.28Z"/>
        <path class="cls-4" d="M1737.05,874.71h-.19c-12.81-.84-25.72-6.39-40.63-17.47-1.36-1.01-2.76-2.06-4.2-3.12-20.88-15.4-49.45-36.48-54.77-68.41-.94-10.12,1.08-18.68,5.95-25.53,6.75-9.45,19.08-15.09,32.98-15.09,8.3,0,16.17,2.01,22.16,5.68,26.05,15.93,37.41,56.82,43.7,86.19.36,1.69.73,3.33,1.09,4.95,3,13.13,5.59,24.45-5.95,32.68l-.16.12ZM1676.2,746.7c-13.55,0-25.51,5.45-32.02,14.55-4.64,6.49-6.53,14.63-5.66,24.2,5.19,31.15,33.49,52.03,54.14,67.28,1.45,1.05,2.86,2.1,4.22,3.12,14.64,10.89,27.31,16.38,39.84,17.24,10.47-7.6,8.14-17.82,5.19-30.75-.36-1.62-.75-3.27-1.11-4.97-6.22-29.07-17.45-69.52-43.02-85.16-5.81-3.55-13.48-5.51-21.59-5.51Z"/>
        <path class="cls-4" d="M992.11,1241.54h0c-26.04,0-73.59-5.63-99.43-43.26l-.37-.53-.02-.68c-.95-26.84,32.2-40.11,54.14-48.87,3.1-1.23,6.02-2.4,8.44-3.47,8.26-3.6,16.52-7.13,24.79-10.67,19.31-8.24,39.27-16.79,58.64-26.06l4.7-2.24c24.19-11.51,49.19-23.43,68.12-45.04,17.56-20.06,32.11-46.42,45.73-82.98,5.81-15.54,10.81-32.06,16.09-49.55,14.95-49.46,30.42-100.59,65.36-130.22,34.17-28.98,79.3-44.93,127.08-44.93,11.03,0,22.12.86,32.97,2.56,29.47,4.63,64.8,14.01,76.44,45.64l.11.33.03.35c1.37,21.9-12.19,44.61-24.16,64.63-4.06,6.82-7.89,13.23-10.76,19.03-18.49,31.09-38.97,63.74-62.67,99.95-2.16,3.27-4.3,6.58-6.44,9.91-14.76,22.91-30.05,46.6-50.76,61.75-18,13.15-42.78,15.68-64.66,17.92-7.14.74-13.89,1.42-20.22,2.44-23.63,3.76-50.84,9.1-74.94,24.82-20.23,14.76-33.7,38.14-46.72,60.76-17.17,29.84-34.94,60.72-68.41,70.84-16.14,4.89-35,7.58-53.09,7.58ZM895.49,1196.19c25.09,35.94,71.25,41.34,96.62,41.34h0c17.84,0,36.42-2.67,52.33-7.48,32.31-9.78,48.95-38.69,66.56-69.27,13.22-22.97,26.88-46.69,47.78-61.94,24.63-16.07,52.17-21.48,76.08-25.28,6.39-1.01,13.19-1.72,20.37-2.46,21.52-2.18,45.92-4.68,63.28-17.38,20.22-14.78,35.3-38.18,49.89-60.81,2.14-3.33,4.28-6.64,6.44-9.94,23.69-36.15,44.14-68.76,62.52-99.66,2.86-5.8,6.75-12.29,10.86-19.17,11.55-19.34,24.64-41.27,23.53-61.56-11.11-29.58-45.25-38.52-73.8-43-10.7-1.69-21.66-2.54-32.56-2.54-47.14,0-91.62,15.71-125.27,44.24-34.11,28.92-49.39,79.45-64.17,128.32-5.3,17.57-10.31,34.15-16.17,49.85-13.83,37.05-28.59,63.81-46.5,84.23-19.38,22.13-44.67,34.19-69.14,45.84l-4.69,2.24c-19.42,9.29-39.42,17.84-58.75,26.12-8.27,3.52-16.52,7.05-24.77,10.65-2.45,1.07-5.4,2.26-8.52,3.51-19.54,7.81-52.12,20.82-51.92,44.16Z"/>
        <path class="cls-4" d="M1197.47,1051l-.06-.02c-15.08-3.49-21.36-6.49-27.56-24.5-2.31-17.78,4.17-41.12,9.39-59.88.91-3.25,1.77-6.35,2.52-9.23,1.81-6.8,3.56-13.75,5.25-20.47,3.28-12.99,6.66-26.39,10.53-39.39,11.31-37.77,27.45-66.28,50.81-89.71,28.66-22.89,70.03-37.64,105.5-37.64,28.85,0,53.05,9.41,70.02,27.2,30.22,31.71-1.53,86.55-18.58,116.03l-.11.19c-18.66,32.22-40.7,68.57-66.33,92.22-25.76,23.78-53.66,37.13-87.81,42.02-18.97,2.73-37.69,3.14-53.5,3.2h-.06ZM1353.84,771.75c-35.23,0-76.34,14.66-104.75,37.34-23.42,23.51-38.97,50.97-50.34,88.97-3.88,12.93-7.25,26.34-10.52,39.29-1.7,6.74-3.45,13.7-5.25,20.51-.76,2.88-1.62,6-2.53,9.25-5.17,18.58-11.59,41.72-9.39,58.9,5.94,17.16,11.67,19.93,26.53,23.36,15.75-.04,34.41-.47,53.3-3.17,33.91-4.85,61.62-18.1,87.19-41.71,25.48-23.51,47.45-59.76,66.05-91.86l.11-.2c16.81-29.04,48.11-83.11,18.8-113.86-16.73-17.55-40.66-26.83-69.19-26.83Z"/>
        <path class="cls-4" d="M1246.98,1018.84h-.02c-24.61,0-40.06-13.62-44.69-39.39-.12-59.84,17.55-135,67.47-166.98,20.11-12.89,43.23-19.98,65.14-19.98,19.72,0,47.48,5.81,67.78,33.53l.11.21c14.8,41.24-9.23,93.77-71.45,156.14-16.33,15.14-53.28,36.45-84.34,36.45ZM1334.89,794.11c-21.7,0-44.63,7.03-64.56,19.8-49.41,31.64-66.89,106.17-66.76,165.37,5.64,31.34,26.72,37.96,43.4,37.96,30.78,0,67.41-21.14,83.58-36.13,61.61-61.77,85.55-113.62,71.11-154.08-19.97-27.2-47.33-32.92-66.76-32.92Z"/>
        <path class="cls-4" d="M514.21,1037.32c-47.7-50.04-104.98-51.31-155.52-52.44-24.64-.52-45.84-3.62-55.63-36.06-2.13-7.07-4.03-14.26-5.87-21.21-3.75-14.24-7.63-28.97-13.66-42.89-24.86-57.45-67.51-86.91-117.04-80.8-53.47,6.59-95.34,38.94-117.89,91.1-4.84,11.18-8.39,24.54-11.82,37.48C29.32,960.69,21.63,989.62,0,999.81v1.77c22.51-10.15,30.37-39.76,38.02-68.57,3.41-12.86,6.94-26.16,11.73-37.23,22.34-51.68,63.85-83.73,116.88-90.26,48.98-6.03,91.18,23.11,115.78,79.98,5.97,13.79,9.66,27.78,13.57,42.6,1.84,6.97,3.74,14.18,5.88,21.29,10.07,33.39,31.69,36.56,56.81,37.11,50.31,1.11,107.35,2.38,154.7,52.05,10.7,11.24,39.5,46.42,31.67,60.44-1.63,3.55-2.73,6.99-3.8,10.34-1.95,6.18-3.8,12-8.73,17.49-10.88,12.12-24.41,20.72-36.34,28.3-55.83,35.47-98.37,71.1-137.98,115.55-19.04,22.98-32.76,52.92-37.65,82.14-.32,1.89-.61,3.78-.91,5.71-1.32,8.53-2.69,17.38-6.09,25.03-2.14,4.79-4.96,8.59-8.39,11.24-1.43,1.11-4.04,1.73-6.57,2.32-3.16.76-6.15,1.46-7.59,3.16-14.83,2.53-30.16,3.16-44.97,3.76-11.71.49-23.83.97-35.64,2.42-9.38,1.13-18.91,2.49-28.12,3.8-18.4,2.61-37.42,5.32-56.23,6.43C76.1,1419.64,33.84,1409.57,0,1386.8v1.89c30.05,20,66.64,30.12,109.24,30.12,5.52,0,11.14-.18,16.87-.51,18.84-1.13,37.89-3.84,56.31-6.45,9.21-1.3,18.73-2.67,28.11-3.8,11.77-1.42,23.86-1.93,35.56-2.42,14.92-.6,30.35-1.23,45.32-3.8l.23-.04.16-.21c1.09-1.46,4.12-2.18,7.06-2.86,2.64-.62,5.38-1.27,7.01-2.53,3.62-2.82,6.59-6.8,8.84-11.84,3.5-7.89,4.89-16.85,6.23-25.52.29-1.89.59-3.8.9-5.67,4.84-28.91,18.43-58.53,37.27-81.3,39.5-44.34,81.96-79.88,137.69-115.28,12.01-7.64,25.62-16.28,36.62-28.54,5.15-5.75,7.05-11.75,9.07-18.1,1.04-3.29,2.12-6.7,3.68-10.09,10.1-18.1-31.51-62.08-31.93-62.53Z"/>
        <path class="cls-4" d="M1262.8,989.4h0c-19.23,0-31.97-10.67-37.86-31.73-5.72-53.96,15.37-107.64,51.25-130.71,14.94-9.6,36.17-15.81,54.11-15.81,16.08,0,37.47,4.72,48.05,27.2,20.73,44.13-26.77,102.78-53,124.29-15.08,12.33-40.52,26.76-62.55,26.76ZM1330.3,812.76c-17.75,0-38.75,6.14-53.52,15.63-35.41,22.77-56.22,75.79-50.59,128.91,5.66,20.18,17.98,30.49,36.61,30.49h0c21.75,0,46.91-14.28,61.84-26.51,25.91-21.21,72.86-78.99,52.59-122.11-10.27-21.83-31.19-26.42-46.94-26.42Z"/>
        <path class="cls-4" d="M130.78,995.69h0c-38.03,0-59.02-16.56-64.18-50.62-.67-27.86,7.44-53.43,23.47-74.06,21.12-27.19,55.09-44.09,88.65-44.09,39.95,0,83.45,24.4,85.76,92.85,1.83,54.15-56.16,64.79-80.91,69.33l-3.72.68c-14.26,2.65-32.01,5.92-49.06,5.92ZM178.72,828.54c-33.23,0-66.84,16.7-87.73,43.6-15.77,20.32-23.77,45.46-23.11,72.76,5.01,33.06,25.59,49.2,62.9,49.2,16.96,0,34.66-3.27,48.88-5.92l3.72-.68c37.99-6.97,81.4-20.96,79.82-67.65-2.27-67.32-45.12-91.31-84.48-91.31Z"/>
        <path class="cls-4" d="M1278.77,951.56h0c-16.92,0-26.97-10.48-28.27-29.49-1.13-18.62,5.08-38.08,17.47-54.78,13.58-18.31,32.23-29.68,48.69-29.68,11.44,0,27,5.35,36.2,30.79l.06.18v.18c-.56,35.49-24.55,62.16-44.92,74.2-9.13,5.4-20.05,8.61-29.23,8.61ZM1316.66,839.22c-16.11,0-34.41,11.18-47.75,29.16-12.14,16.36-18.22,35.38-17.12,53.55,1.59,23.16,15.55,28.01,26.99,28.01,9,0,19.73-3.16,28.69-8.45,20-11.82,43.55-37.93,44.19-72.58-8.94-24.52-23.95-29.69-34.98-29.69Z"/>
        <path class="cls-4" d="M151.18,969.01h0c-32.15,0-52.74-16.38-55.06-43.81.71-46.05,42.08-76.92,80.27-76.92,19.81,0,36.6,8.24,47.27,23.2,12.05,16.89,15.44,34.15,9.79,49.92-10.68,29.8-50.22,47.61-82.27,47.61ZM176.39,849.9c-37.59,0-78.3,30.23-78.98,75.25,2.23,26.41,22.34,42.25,53.77,42.25s70.63-17.45,81.09-46.65c5.51-15.37,2.29-31.58-9.56-48.19-10.43-14.61-26.88-22.65-46.32-22.65Z"/>
        <path class="cls-4" d="M1438.58,1067.65c30.97,33.19,76.27,32.65,116.24,32.2,14.17-.18,27.56-.33,40.08.86,33.05,3.14,52.88,19.24,60.64,49.28,6.44,24.86,3.8,48.17,1.02,72.85-.66,5.82-1.34,11.84-1.91,17.9-3.03,3.53-4.94,13.32-7.27,26.57-1.01,5.86-1.98,11.38-2.89,14.08l-1.06,3.12c-3.99,11.86-8.12,24.16-15.34,33.6-14.66,19.13-35.41,27.58-59.03,35.9-18.75,6.6-50.55,23.71-52.88,64.12-1.76,30.84,5.94,57.97,14.09,86.7l.53,1.87c18.12,63.95,26.63,118.74,25.67,165.79h3.22c.95-47.53-7.63-102.77-25.86-167.13l-.53-1.87c-8.05-28.32-15.63-55.07-13.91-85.08,2.17-37.94,32.59-54.21,50.53-60.52,18.58-6.54,44.02-15.52,60.47-37.01,7.64-9.97,11.89-22.6,16-34.81l1.05-3.12c1.03-3.04,1.99-8.47,3.09-14.76,1.56-9,3.94-22.58,6.53-24.72l.63-.53.08-.93c.56-6.27,1.28-12.54,1.95-18.62,2.86-25.15,5.53-48.89-1.12-74.64-8.2-31.75-28.97-48.78-63.47-52.05-12.64-1.19-26.09-1.03-40.34-.88-41.31.49-84.05.99-114.11-31.23-9.31-9.97-14.19-22.42-14.5-36.95-.69-33.52,23.24-74.22,45.85-101.12,39.92-47.49,88.86-53.3,137.8-16.32,19.47,14.71,34.55,34.11,50.52,54.66,3.55,4.56,7.09,9.14,10.72,13.68,20.97,26.28,42.72,37.56,75.06,38.9,35.63,1.5,71.64-3.49,105.27-9.06,2.72-.45,5.45-.9,8.19-1.34,20.42-3.27,41.31-6.62,60.44-15.5v-4.32c-19.13,9.12-40.22,12.54-60.84,15.86-2.75.43-5.48.88-8.2,1.32-33.48,5.57-69.34,10.5-104.75,9.04-31.84-1.34-52.28-11.92-72.87-37.73-3.61-4.52-7.16-9.1-10.7-13.64-15.41-19.83-31.33-40.32-51.16-55.28-50.28-38-100.61-32.02-141.67,16.83-23.11,27.5-47.56,69.31-46.83,104.16.31,15.72,5.58,29.14,15.61,39.89Z"/>
        <path class="cls-4" d="M1920,1216.43c-2.67,1.31-5.23,2.71-7.5,4.34-12.56,9.16-23.69,20.43-31.99,29.22-2.11,2.24-4.2,4.48-6.31,6.74-18.3,19.52-37.22,39.72-58.84,53.98-21.52,14.18-46.09,21.88-69.42,28.56-16.33,4.68-41,11.73-60.2,5.49-23.09-7.52-19.47-39.11-16.55-64.51.27-2.32.52-4.56.75-6.7.94-9,2.12-18.17,3.27-27.06,3.66-28.46,7.44-57.89,4.48-87.15-2.24-22.15-6.72-49.63-21.59-65.76-16.16-17.53-42.44-15.8-63.56-14.42-3.33.21-6.55.43-9.58.55-2.41.12-5.09.25-8.02.41-31.94,1.66-91.39,4.75-116.75-25.13-7.7-9.06-11.7-20.69-11.91-34.54-.44-31.24,17.61-60,28.41-74.35,7.86-10.46,34.97-43.94,59.31-43.94.55,0,1.09.02,1.63.04,1.97.14,3.88.24,5.75.35,20.17,1.17,36.09,2.1,55.94,14.36,25.73,15.9,44.64,43.91,60.34,68.9.94,1.5,1.89,3.02,2.83,4.54,5.86,9.41,11.91,19.13,19.11,27.08,6.03,6.64,12.09,8.84,18.53,11.2,2.7.99,5.5,2.01,8.41,3.39l.17.06c25.3,2.92,50.91-.23,75.67-3.29,7.91-.97,16.08-1.99,24.13-2.76,10.92-1.09,21.86-2.1,32.78-3.12,26.5-2.49,53.7-5.04,80.72-8.4v-1.62c-27.05,3.35-54.28,5.92-80.81,8.4-10.94,1.03-21.86,2.04-32.8,3.12-8.05.8-16.23,1.81-24.14,2.79-24.67,3.04-50.2,6.19-75.34,3.29-2.92-1.38-5.72-2.42-8.42-3.39-6.3-2.3-12.24-4.46-18.03-10.87-7.11-7.85-13.14-17.51-18.95-26.86-.94-1.52-1.89-3.04-2.83-4.54-15.8-25.15-34.81-53.29-60.78-69.34-20.09-12.41-36.14-13.34-56.45-14.53-1.87-.1-3.78-.22-5.75-.33-25.27-1.62-53.81,33.58-61.94,44.41-10.94,14.53-29.2,43.65-28.75,75.46.2,14.3,4.34,26.32,12.3,35.69,25.76,30.35,85.56,27.23,117.7,25.56,2.91-.16,5.59-.29,7.98-.39,3.05-.14,6.27-.35,9.61-.56,20.89-1.36,46.89-3.08,62.66,14.02,14.55,15.78,18.95,42.89,21.16,64.75,2.94,29.04-.83,58.36-4.47,86.7-1.14,8.88-2.33,18.08-3.28,27.1-.22,2.14-.49,4.38-.75,6.68-2.83,24.66-6.7,58.42,17.52,66.31,5.52,1.79,11.45,2.51,17.52,2.51,15.36,0,31.48-4.62,43.28-7.99,23.41-6.7,48.08-14.43,69.75-28.71,21.75-14.34,40.72-34.6,59.06-54.17,2.11-2.26,4.22-4.5,6.33-6.74,8.25-8.75,19.31-19.97,31.78-29.04,2.06-1.5,4.41-2.82,6.86-4.03v-1.72Z"/>
        <path class="cls-4" d="M570.95,985.9h0c-8.69,0-18.76-3.21-27.63-8.82-5.09-3.19-36.29-29.72-37.89-47.59-.32-3.62.62-6.66,2.79-9,3.74-15.43,24.21-17.74,36.12-17.74s23.82,2.16,29.65,4.32c10.77,3.97,19.57,12.64,24.12,23.78,3.99,9.76,4.48,20.63,1.42,31.48-5.5,19.48-18.58,23.57-28.59,23.57ZM544.34,904.34c-11.61,0-31.58,2.2-34.94,16.83l-.05.25-.16.16c-1.95,2.01-2.76,4.54-2.48,7.73,1.45,16.15,30.5,42.11,37.19,46.34,8.69,5.49,18.55,8.65,27.05,8.65h0c9.59,0,22.12-3.91,27.37-22.52,2.94-10.4,2.47-20.84-1.35-30.19-4.4-10.77-12.91-19.15-23.35-22.99-5.74-2.12-17.64-4.26-29.28-4.26Z"/>
        <path class="cls-4" d="M1545.56,1063.37h0c-38.67,0-63.77-14.16-74.56-42.08l-.06-.29c-1.89-43.89,24.05-84.81,61.69-97.34,6.27-2.08,12.76-3.14,19.28-3.14,30.3,0,61.64,23.26,79.84,59.28,10.88,21.52,12.5,39.13,5.28,57.15l-.17.27c-14.3,14.06-31.14,19.17-52.03,22.5-9.73,1.56-24.39,3.64-39.27,3.64ZM1472.22,1020.75c10.59,27.21,35.27,41,73.34,41h0c14.8,0,29.4-2.07,39.09-3.6,20.64-3.31,37.25-8.32,51.3-22.07,6.91-17.4,5.28-34.5-5.3-55.42-17.97-35.55-48.88-58.52-78.75-58.52-6.4,0-12.78,1.03-18.95,3.08-37,12.31-62.53,52.46-60.73,95.53Z"/>
        <path class="cls-4" d="M1551.64,1038.86h0c-23.22,0-40.53-9.99-50.09-28.95l-.09-.27c-2.41-14.67,0-28.09,6.98-38.8,9.41-14.41,27.02-23.36,45.97-23.36,20.53,0,46.64,11.42,52.69,43.58,1.72,9.18.55,17.38-3.48,24.39-8.08,14.08-26.59,21-41.24,22.75-3.66.45-7.28.66-10.73.66ZM1502.69,1009.17c11.78,23.22,33.11,28.09,48.95,28.09,3.42,0,6.99-.21,10.61-.66,14.36-1.73,32.48-8.43,40.31-22.09,3.8-6.62,4.91-14.4,3.27-23.08-5.86-31.24-31.36-42.35-51.42-42.35-18.56,0-35.81,8.73-44.97,22.77-6.7,10.3-9.05,23.2-6.75,37.32Z"/>
        <path class="cls-4" d="M514.87,1081.42l-1.6-1.11c-1.26-1.17-3.92-8.38-5.52-12.68-2.05-5.55-4-10.81-5.9-13.54-7.33-10.6-16.8-19.77-28.15-27.25-39.5-26.01-102.73-29.06-140.19,10.91-16.48,17.57-25.05,41.78-33.34,65.22-8.14,23.02-15.84,44.76-30.38,60.38-19.3,20.73-48.48,4.64-69.79-7.13l-3.34-1.83c-13.57-7.42-27.45-14.69-40.88-21.7-13.59-7.11-27.63-14.45-41.33-21.95-18.67-10.25-36.65-22.52-54.03-34.4-9.92-6.78-20.18-13.79-30.52-20.4C22.18,1051,11.19,1044.49,0,1041.22v8.28c10.01,3.2,19.91,9.08,26.99,13.62,10.26,6.54,20.48,13.52,30.36,20.28,17.5,11.96,35.6,24.33,54.53,34.71,13.75,7.54,27.82,14.9,41.43,22.01,13.41,6.99,27.26,14.24,40.77,21.64l3.33,1.83c22.87,12.62,54.19,29.9,76.57,5.86,15.66-16.81,24.01-40.4,32.08-63.23,8-22.6,16.27-45.97,31.63-62.35,34.91-37.24,96.22-34.15,133.01-9.9,10.63,6.99,19.48,15.54,26.29,25.38,1.3,1.87,3.23,7.07,4.92,11.65,2.6,7.01,4.48,11.94,6.52,14.63-.16,27.56-15.24,39.93-32.64,54.21-2.66,2.18-5.34,4.4-8.02,6.68-24.48,16.28-50.63,34.46-79.93,55.57-9.7,6.99-20.56,13.25-31.07,19.28-17.34,9.95-35.27,20.26-49.9,34.77-12.24,12.15-20.29,28.56-28.08,44.43-5.04,10.26-10.26,20.88-16.5,30.04-14.34,21.04-34.8,35.7-64.41,46.18-58.27,20.63-104.51,23.74-145.52,9.8C36.87,1381.34,17.11,1371.64,0,1354.09v10.23c16.95,15.92,35.73,24.97,50.67,30.04,17.23,5.86,35.32,8.8,54.74,8.8,28.13,0,59.06-6.18,94.22-18.6,30.88-10.95,52.35-26.42,67.55-48.72,6.57-9.62,11.91-20.53,17.09-31.05,7.84-15.99,15.24-31.07,26.59-42.33,14.02-13.93,31.59-24.02,48.59-33.78,10.63-6.12,21.64-12.45,31.59-19.62,29.31-21.12,55.44-39.29,79.9-55.56l.31-.23c2.69-2.3,5.39-4.52,8.06-6.72,18.57-15.23,36.1-29.61,35.53-62.88l.02-2.26Z"/>
        <path class="cls-4" d="M216.03,1131.64h0c-7.9,0-16.22-1.73-24.73-5.14-27.38-10.95-65.4-29.55-79.37-64.58l-.06-.25c-.55-5.92.84-11.36,4.17-16.15,11.42-16.56,45.08-25.97,100.03-27.99l.52-.02c3.73-.14,7.72-.25,11.55-.25,10.54,0,22.05.78,34.87,6.54l.22.16c13.73,15.82,11.52,35.43,7.06,54.29-8.01,33.93-27.78,53.39-54.24,53.39ZM113.13,1061.34c13.8,34.4,51.43,52.79,78.56,63.62,8.38,3.37,16.57,5.06,24.34,5.06,25.86,0,45.18-19.03,53.01-52.22,4.32-18.31,6.51-37.34-6.61-52.55-12.57-5.61-23.92-6.39-34.31-6.39-3.81,0-7.78.14-11.51.27l-.52.02c-54.58,2.01-87.92,11.24-99.1,27.43-3.05,4.4-4.34,9.37-3.87,14.77Z"/>
        <path class="cls-4" d="M352.39,1189.2h0c-13.89,0-23.28-7.09-27.9-21.08l-.05-.22c-4.64-46.65,16.06-97.75,48.15-118.84,13.86-9.12,31.49-14.34,48.38-14.34,23.82,0,43.62,9.95,55.76,28.03,7.31,10.89,10.07,21.94,8.23,32.82-4.8,28.36-39.53,49.62-60.27,62.32l-6.48,3.99c-15.35,9.54-43.92,27.31-65.8,27.31ZM325.7,1167.6c4.41,13.26,13.39,19.99,26.68,19.99h0c21.58,0,49.98-17.65,65.24-27.14l6.48-3.99c20.53-12.56,54.9-33.6,59.58-61.22,1.76-10.36-.92-20.94-7.96-31.44-11.88-17.71-31.33-27.47-54.76-27.47-16.68,0-34.09,5.16-47.78,14.16-31.62,20.78-52.01,71.12-47.48,117.11Z"/>
        <path class="cls-4" d="M1920,1174.57c-.5.41-1,.82-1.49,1.23-2.58,2.12-4.83,3.98-6.62,5.28-14.92,10.73-27.63,21.54-38.86,33.08-9.22,9.47-17.72,20.1-25.94,30.39-14.03,17.57-28.53,35.72-46.8,48.1-15.06,10.19-44.36,26.49-71.22,21.19-31.92-6.29-34.95-39.41-33.5-74.26,1.59-37.98,1.22-74.47.83-113.08l-.09-9.86c-.33-34.32,12.84-52.9,44-62.16,70.55-14.28,127.06-17.1,179.69-8.71v-1.62c-52.7-8.4-109.3-5.55-179.94,8.75-31.91,9.47-45.37,28.54-45.03,63.76l.09,9.86c.39,38.59.77,75.03-.83,112.96-1.5,35.61,1.66,69.46,34.58,75.95,3.67.72,7.37,1.05,11.09,1.03,23.86,0,47.78-13.52,60.94-22.42,18.44-12.47,33-30.72,47.09-48.35,8.2-10.26,16.67-20.88,25.84-30.29,11.19-11.47,23.84-22.24,38.69-32.94,1.84-1.32,4.09-3.18,6.7-5.32.25-.21.52-.43.77-.64v-1.93Z"/>
        <path class="cls-4" d="M1920,1092.16c-10.28-26.63-49.8-32.49-65.98-34.91-10.2-1.52-20.33-2.28-30.08-2.28-16.84,0-32.98,2.28-47.95,6.8-23.27,7.01-48.16,18.92-56.39,54.08-5.08,21.7-4.25,44.2-3.44,65.94.48,12.84.97,26.1.22,38.86l-.03.29.02.29c1.37,24.04,5.86,52.63,28.56,60.35l.25.08c3.33.78,6.73,1.19,10.08,1.19h0c24.91,0,45.55-21.17,62.92-41,7.24-8.26,14.41-16.85,21.36-25.15,13.58-16.24,27.64-33.06,42.55-47.92,2.19-2.18,4.59-4.42,7.14-6.82,11.55-10.85,25.25-23.73,30.78-40.52v-29.28ZM1885.36,1155.52c-2.59,2.42-5.03,4.72-7.28,6.96-15.16,15.1-29.31,32.02-43,48.4-6.91,8.26-14.06,16.81-21.24,25.01-16.5,18.82-36,38.9-58.59,38.9-2.91,0-5.86-.35-8.76-1.01-18.5-6.41-22.38-30.25-23.69-52.85.77-13.13.27-26.55-.22-39.52-.78-21.08-1.59-42.89,3.19-63.31,7.3-31.15,29.17-41.72,51.72-48.52,14.48-4.36,30.11-6.56,46.45-6.56,9.5,0,19.36.74,29.31,2.22,15.47,2.3,62.5,9.29,62.81,40.44.2,20.8-16.94,36.91-30.7,49.85Z"/>
        <path class="cls-4" d="M400.64,1125.21h0c-7.99,0-13.37-4.03-15.16-11.34-.98-7.11.79-14.18,5.09-20.55,7.01-10.38,20.34-17.94,31.66-17.94,9.57,0,15.58,5.4,16.51,14.78.53,5.4-1.22,11.1-5.05,16.52-7.47,10.56-21.67,18.52-33.04,18.52ZM422.23,1077c-10.99,0-23.89,7.3-30.68,17.36-4.05,6-5.71,12.62-4.82,19.15,2.05,8.32,8.7,10.09,13.91,10.09h0c10.86,0,24.95-7.89,32.08-17.96,3.58-5.07,5.22-10.34,4.73-15.27-1.14-11.63-10.03-13.36-15.23-13.36Z"/>
        <path class="cls-4" d="M1770.95,1225.9h0c-14.97,0-24.78-17.88-28.39-51.74-2.73-50.53,12.84-80.27,47.59-90.99,6.86-2.1,16.89-3.37,26.83-3.37,11.58,0,39.64,1.91,50.34,19.54,4.28,7.03,5.3,15.78,3.02,26l-.06.2c-18.06,38.37-55.09,79.86-86.14,96.52-4.73,2.55-9.17,3.84-13.19,3.84ZM1816.98,1081.42c-9.84,0-19.76,1.25-26.52,3.33-34.05,10.48-49.3,39.68-46.63,89.25,2.44,22.91,9.14,50.28,27.11,50.28h0c3.84,0,8.09-1.23,12.67-3.68,30.81-16.54,67.55-57.7,85.5-95.8,2.14-9.66,1.19-17.9-2.81-24.48-10.36-17.06-37.95-18.9-49.33-18.9Z"/>
      </g>
    </g>
  </g>
</svg>